<svg width="24" height="24" viewBox="0 0 24 24" fill="none" xmlns="http://www.w3.org/2000/svg">
  <circle cx="12" cy="12" r="12" fill="#1D8649"/>
  <path d="M15.1096 8C15.2264 8 15.3385 8.05738 15.4219 8.15982L15.868 8.75246C15.9099 8.80443 15.943 8.86627 15.9657 8.9344C15.9883 9.00253 16 9.07561 16 9.14941C16 9.22322 15.9883 9.2963 15.9657 9.36443C15.943 9.43256 15.9099 9.49439 15.868 9.54637L10.8534 15.8306C10.8134 15.8841 10.765 15.9267 10.7113 15.9558C10.6576 15.985 10.5997 16 10.5411 16C10.4826 16 10.4247 15.985 10.371 15.9558C10.3173 15.9267 10.2689 15.8841 10.2288 15.8306L8.13197 13.1805C8.09015 13.1285 8.05696 13.0667 8.03431 12.9985C8.01166 12.9304 8 12.8573 8 12.7835C8 12.7097 8.01166 12.6366 8.03431 12.5685C8.05696 12.5004 8.09015 12.4385 8.13197 12.3866L8.60488 11.7939C8.64493 11.7404 8.69331 11.6978 8.74702 11.6687C8.80073 11.6395 8.85864 11.6245 8.91717 11.6245C8.9757 11.6245 9.03361 11.6395 9.08733 11.6687C9.14104 11.6978 9.18942 11.7404 9.22947 11.7939L10.5679 13.46L14.7973 8.15982C14.8807 8.05738 14.9928 8 15.1096 8Z" fill="white"/>
</svg>
