<svg width="24" height="24" viewBox="0 0 24 24" fill="none" xmlns="http://www.w3.org/2000/svg">
<path d="M17.85 16.44C17.8968 16.4865 17.934 16.5418 17.9594 16.6027C17.9848 16.6636 17.9979 16.729 17.9979 16.795C17.9979 16.861 17.9848 16.9264 17.9594 16.9873C17.934 17.0482 17.8968 17.1035 17.85 17.15L17.15 17.85C17.1035 17.8969 17.0482 17.9341 16.9873 17.9594C16.9263 17.9848 16.861 17.9979 16.795 17.9979C16.729 17.9979 16.6636 17.9848 16.6027 17.9594C16.5418 17.9341 16.4865 17.8969 16.44 17.85L12 13.41L7.55997 17.85C7.51349 17.8969 7.45819 17.9341 7.39726 17.9594C7.33633 17.9848 7.27098 17.9979 7.20497 17.9979C7.13897 17.9979 7.07362 17.9848 7.01269 17.9594C6.95176 17.9341 6.89646 17.8969 6.84997 17.85L6.14997 17.15C6.10311 17.1035 6.06591 17.0482 6.04053 16.9873C6.01514 16.9264 6.00208 16.861 6.00208 16.795C6.00208 16.729 6.01514 16.6636 6.04053 16.6027C6.06591 16.5418 6.10311 16.4865 6.14997 16.44L10.59 12L6.14997 7.56C6.10311 7.51352 6.06591 7.45822 6.04053 7.39729C6.01514 7.33636 6.00208 7.271 6.00208 7.205C6.00208 7.13899 6.01514 7.07364 6.04053 7.01271C6.06591 6.95178 6.10311 6.89648 6.14997 6.85L6.84997 6.15C6.89646 6.10313 6.95176 6.06594 7.01269 6.04055C7.07362 6.01517 7.13897 6.0021 7.20497 6.0021C7.27098 6.0021 7.33633 6.01517 7.39726 6.04055C7.45819 6.06594 7.51349 6.10313 7.55997 6.15L12 10.59L16.44 6.15C16.4865 6.10313 16.5418 6.06594 16.6027 6.04055C16.6636 6.01517 16.729 6.0021 16.795 6.0021C16.861 6.0021 16.9263 6.01517 16.9873 6.04055C17.0482 6.06594 17.1035 6.10313 17.15 6.15L17.85 6.85C17.8968 6.89648 17.934 6.95178 17.9594 7.01271C17.9848 7.07364 17.9979 7.13899 17.9979 7.205C17.9979 7.271 17.9848 7.33636 17.9594 7.39729C17.934 7.45822 17.8968 7.51352 17.85 7.56L13.41 12L17.85 16.44Z" fill="black"/>
</svg>
