<svg width="148" height="36" viewBox="0 0 148 36" fill="none" xmlns="http://www.w3.org/2000/svg"><path d="M1.509 27.894h1.81l2.414 6.445 2.363-6.445h1.81v7.754H8.8V28.95l-2.564 6.697H5.129L2.665 28.95v6.697H1.51v-7.754zM14.785 32.425l-3.018-4.48h1.308l2.313 3.474 2.263-3.475h1.308l-3.018 4.482v3.222h-1.106v-3.223h-.05zM26.653 27.894h2.011c1.56 0 2.917.554 2.917 2.316 0 1.712-1.358 2.316-2.715 2.316h-1.107v3.071h-1.106v-7.703zm1.106 3.676h1.107c.704 0 1.558-.353 1.558-1.36 0-.957-1.005-1.309-1.71-1.309h-.955v2.669zM36.409 27.793c2.363 0 3.721 1.712 3.721 3.978 0 2.366-1.358 3.977-3.721 3.977-2.364 0-3.721-1.661-3.721-3.977 0-2.266 1.408-3.978 3.72-3.978zm0 6.999c1.76 0 2.565-1.46 2.565-3.021s-.855-3.021-2.565-3.021-2.565 1.46-2.565 3.02c.05 1.561.805 3.022 2.565 3.022zM40.834 27.894h1.207l1.86 6.646 1.66-6.646h1.56l1.659 6.646 1.86-6.646h1.157l-2.363 7.754h-1.408l-1.66-6.747-1.71 6.747h-1.458l-2.364-7.754zM53.457 27.894h4.325v.957h-3.219v2.265h2.917v.957h-2.917v2.568h3.219v.956h-4.325v-7.703zM59.894 27.894h1.91c1.51 0 3.018.252 3.018 2.115 0 .956-.704 1.61-1.61 1.762.353.151.504.302.755.755l1.459 3.071h-1.258l-1.207-2.668c-.352-.755-.704-.755-1.307-.755H61v3.423h-1.106v-7.703zM61 31.217h.956c1.056 0 1.66-.453 1.66-1.208 0-.705-.554-1.158-1.56-1.158H61v2.366zM79.255 29.203a2.989 2.989 0 0 0-1.61-.453c-1.76 0-2.966 1.309-2.966 3.02 0 1.813 1.307 3.022 2.917 3.022.553 0 1.307-.151 1.66-.353l.05 1.057c-.604.252-1.308.252-1.76.252-2.465 0-4.074-1.56-4.074-4.028 0-2.366 1.71-3.977 4.073-3.977.604 0 1.207.1 1.76.352l-.05 1.108zM84.234 27.793c2.363 0 3.72 1.712 3.72 3.978 0 2.366-1.357 3.977-3.72 3.977-2.364 0-3.722-1.661-3.722-3.977 0-2.266 1.408-3.978 3.722-3.978zm0 6.999c1.76 0 2.564-1.46 2.564-3.021s-.855-3.021-2.564-3.021c-1.71 0-2.565 1.46-2.565 3.02.05 1.561.805 3.022 2.565 3.022zM89.967 27.894h1.508l3.42 6.243v-6.243H96v7.754h-1.408l-3.52-6.344v6.344h-1.106v-7.754zM98.717 27.894h1.508l3.42 6.243v-6.243h1.106v7.754h-1.408l-3.52-6.344v6.344h-1.106v-7.754zM107.467 27.894h4.325v.957h-3.219v2.265h2.917v.957h-2.917v2.568h3.219v.956h-4.325v-7.703zM119.184 29.203a2.987 2.987 0 0 0-1.609-.453c-1.76 0-2.967 1.309-2.967 3.02 0 1.813 1.308 3.022 2.917 3.022.553 0 1.307-.151 1.659-.353l.051 1.057c-.604.252-1.308.252-1.76.252-2.465 0-4.074-1.56-4.074-4.028 0-2.366 1.71-3.977 4.074-3.977.603 0 1.206.1 1.76.352l-.051 1.108zM122.755 28.901h-2.414v-.957h5.884v.957h-2.414v6.747h-1.106V28.9h.05zM127.884 27.894h1.107v7.754h-1.107v-7.754zM134.824 27.793c2.364 0 3.722 1.712 3.722 3.978 0 2.366-1.358 3.977-3.722 3.977-2.363 0-3.721-1.661-3.721-3.977 0-2.266 1.358-3.978 3.721-3.978zm0 6.999c1.76 0 2.565-1.46 2.565-3.021s-.855-3.021-2.565-3.021-2.565 1.46-2.565 3.02c0 1.561.805 3.022 2.565 3.022zM140.658 27.894h1.508l3.42 6.243v-6.243h1.106v7.754h-1.408l-3.52-6.344v6.344h-1.106v-7.754zM40.935.604L36.158 14.4h-.05L31.28.604h-4.677v18.227h3.37V5.186h.05l4.626 13.645h2.867l4.626-13.645h.1v13.645h3.37V.604h-4.677zM48.63.604v18.227h9.755V15.66H52v-4.28h6.135V8.207h-6.135v-4.43h6.386V.604H48.63zM72.868.604v13.242h-.05L65.325.604h-3.872v18.227h3.37V5.59h.05l7.593 13.242h3.772V.604h-3.37zM90.67.604v13.242h-.05L83.127.604h-3.822v18.227h3.37V5.59h.05l7.594 13.242h3.721V.604h-3.37zM97.108.604v18.227h9.756V15.66h-6.437v-4.28h6.185V8.207h-6.185v-4.43h6.437V.604h-9.756zM118.933.604l-5.632 7.905h-.051V.604h-3.369v18.227h3.369v-8.005h.051l5.632 8.005h3.973l-6.839-9.264 6.839-8.963h-3.973zM124.314.604v18.227h9.756V15.66h-6.387v-4.28h6.136V8.207h-6.136v-4.43h6.387V.604h-9.756zM135.729 13.595c.202 4.027 3.571 5.588 5.935 5.588 2.866 0 5.883-1.863 5.883-5.79 0-3.977-3.268-5.136-4.777-5.589-1.861-.604-3.017-.956-3.017-2.517 0-1.057.804-1.863 1.86-1.863.905 0 1.911.403 2.062 2.064h3.42c-.151-3.726-3.269-5.186-5.381-5.186-3.068 0-5.331 2.266-5.331 5.186 0 3.827 2.917 4.683 4.325 5.237 2.263.856 3.47 1.208 3.47 3.071 0 1.36-1.157 2.266-2.514 2.266-1.056 0-2.213-.605-2.414-2.417h-3.521v-.05z" fill="#000"/><path d="M.805 18.831l7.392-7.3v5.185L19.01 3.978V.604L11.416 8.66V2.77L.805 15.458v3.373z" fill="#fff"/><path d="M8.8 15.457V9.818L.806 18.831h18.204V3.978L8.801 15.458z" fill="#D9073A"/><path d="M.805.604v14.854l10.158-11.48v5.64L19.009.603H.805z" fill="#D9073A"/></svg>