<svg width="132" height="37" viewBox="0 0 132 37" fill="none" xmlns="http://www.w3.org/2000/svg"><path fill-rule="evenodd" clip-rule="evenodd" d="M68.989 29.935v.937h2.936v5.484h1.252v-5.484h2.937v-.937h-7.125zm7.92 0v6.42h6.575v-.945H78.16V33.5h5.047v-.937H78.16v-1.692h5.26v-.937h-6.51zm11.686 6.56a6.118 6.118 0 0 1-1.697-.225 4.222 4.222 0 0 1-1.363-.656 3.107 3.107 0 0 1-.906-1.054 2.99 2.99 0 0 1-.329-1.415c0-.381.085-.771.254-1.167.17-.396.43-.756.78-1.08.35-.324.795-.589 1.336-.795.541-.205 1.182-.308 1.925-.308.473 0 .922.048 1.347.144.405.088.794.24 1.15.452.345.207.647.478.89.798.251.327.444.719.578 1.175h-1.282a2.33 2.33 0 0 0-.403-.75 2.117 2.117 0 0 0-.605-.504 2.769 2.769 0 0 0-.774-.286 4.313 4.313 0 0 0-.901-.092c-.466 0-.888.065-1.262.191a2.937 2.937 0 0 0-.954.522c-.255.21-.461.471-.605.767a2.11 2.11 0 0 0-.212.933c0 .33.064.641.192.933.129.295.325.556.572.764.254.217.57.39.949.516.377.128.818.191 1.32.191.72 0 1.327-.163 1.818-.49.491-.327.815-.834.97-1.523h1.252c-.065.396-.2.778-.398 1.128a3.241 3.241 0 0 1-.811.946c-.34.272-.746.487-1.22.647a5.051 5.051 0 0 1-1.611.239zm11.377-.139v-2.898H95.17v2.898h-1.251v-6.422h1.25v2.586h4.804v-2.586h1.252v6.422h-1.252zm8.971 0l-4.878-4.738v4.738h-1.251v-6.422h1.177l4.877 4.74v-4.74h1.252v6.422h-1.177zm2.756 0h1.23v-6.422h-1.23v6.422zm6.809.14a6.115 6.115 0 0 1-1.697-.226 4.229 4.229 0 0 1-1.363-.656 3.112 3.112 0 0 1-.906-1.054 2.995 2.995 0 0 1-.329-1.415c0-.381.085-.771.254-1.167.17-.396.43-.756.78-1.08.35-.324.796-.589 1.336-.795.541-.205 1.182-.308 1.925-.308.473 0 .922.048 1.347.144.405.088.794.24 1.15.452.345.207.647.478.89.798.251.327.444.719.578 1.175h-1.282a2.342 2.342 0 0 0-.403-.75 2.112 2.112 0 0 0-.605-.504 2.776 2.776 0 0 0-.773-.286 4.315 4.315 0 0 0-.902-.092c-.466 0-.887.065-1.262.191a2.932 2.932 0 0 0-.954.522c-.255.21-.461.471-.605.767-.141.291-.213.61-.211.933 0 .33.063.641.191.933.129.295.325.556.572.764.254.217.571.39.949.516.378.128.818.191 1.32.191.721 0 1.327-.163 1.818-.49.491-.327.815-.834.97-1.523h1.252a3.391 3.391 0 0 1-.398 1.128 3.246 3.246 0 0 1-.811.946c-.34.272-.746.487-1.22.647a5.05 5.05 0 0 1-1.611.239zm8.673 0c-1.286 0-2.224-.228-2.81-.681-.587-.455-.88-1.119-.88-1.993h1.251c0 .296.041.551.122.768.081.217.215.396.402.538.188.142.436.248.743.317.307.07.684.104 1.129.104.417 0 .758-.03 1.023-.091.265-.06.474-.139.626-.234a.809.809 0 0 0 .314-.317.787.787 0 0 0 .084-.346.859.859 0 0 0-.043-.283.467.467 0 0 0-.2-.23 1.847 1.847 0 0 0-.483-.195 8.97 8.97 0 0 0-.875-.187l-1.357-.234a8.457 8.457 0 0 1-1.093-.248 2.972 2.972 0 0 1-.784-.355 1.432 1.432 0 0 1-.478-.512 1.499 1.499 0 0 1-.159-.708c0-.278.075-.528.223-.75.149-.223.36-.414.636-.573.276-.16.608-.28.997-.364.389-.084.82-.127 1.294-.127.481 0 .928.041 1.341.122.413.082.772.216 1.076.403.3.183.549.437.726.738.181.304.282.679.302 1.124h-1.25a2.296 2.296 0 0 0-.112-.568 1.06 1.06 0 0 0-.312-.46c-.149-.13-.356-.233-.621-.308-.265-.076-.606-.114-1.023-.114a5.27 5.27 0 0 0-1.012.08 1.94 1.94 0 0 0-.6.203.638.638 0 0 0-.28.286.784.784 0 0 0-.07.317c0 .105.012.197.037.277a.453.453 0 0 0 .181.226c.095.07.237.134.424.191.187.058.443.113.768.165l1.495.235c.369.057.709.13 1.023.216.315.087.588.201.817.343.23.142.408.316.535.52.129.207.192.456.192.752 0 .243-.059.481-.175.716a1.71 1.71 0 0 1-.562.624c-.258.183-.599.33-1.024.443-.424.113-.943.17-1.558.17z" fill="#EC6608"/><path fill-rule="evenodd" clip-rule="evenodd" d="M2.74 3.502v6.871h7.763v2.392H2.74v11.447H.164V1.11H10.75v2.392H2.74zM14.945 1.11h12.07v2.392h-9.493v6.872h9.215v2.391h-9.215v9.053h9.494v2.392H14.945V1.11zm19.09 12.982h.65l7.042 10.12H44.9L37.498 13.88c3.585-.308 5.825-2.832 5.825-6.39 0-5.214-4.093-6.379-8.515-6.379h-3.35v23.102h2.577v-10.12zm0-10.59h.773c3.123 0 5.938.368 5.938 4.171 0 3.588-2.97 4.14-5.907 4.14h-.804V3.502zm16.76 10.59h.65l7.042 10.12h3.173L54.258 13.88c3.585-.308 5.825-2.832 5.825-6.39 0-5.214-4.093-6.379-8.515-6.379h-3.35v23.102h2.577v-10.12zm0-10.59h.773c3.123 0 5.938.368 5.938 4.171 0 3.588-2.97 4.14-5.907 4.14h-.804V3.502zm38.38 20.71H86.6V3.502H80.97V1.11h13.895v2.392h-5.69v20.71zm8.36-23.102h12.07v2.392h-9.493v6.872h9.215v2.391h-9.215v9.053h9.493v2.392h-12.07V1.11zm34.261 5.075c-1.857-1.896-4.422-3.056-7.112-3.056-5.196 0-9.402 4.46-9.402 9.531 0 5.071 4.237 9.531 9.463 9.531 2.629 0 5.194-1.222 7.05-3.054v3.176c-2.01 1.443-4.483 2.27-6.957 2.27-6.587 0-12.133-5.294-12.133-11.83 0-6.6 5.454-12.016 12.133-12.016 2.597 0 4.885.736 6.957 2.27v3.178h.001zM72.362 6.01l7.67 18.202h2.877L72.422 0 61.66 24.212h2.845L72.362 6.01z" fill="#1D8649"/><path fill-rule="evenodd" clip-rule="evenodd" d="M76.26 19.849H68.37l3.99-9.261 3.898 9.261z" fill="#F7505E"/></svg>