<?xml version="1.0" standalone="no"?>
<!DOCTYPE svg PUBLIC "-//W3C//DTD SVG 1.1//EN" "http://www.w3.org/Graphics/SVG/1.1/DTD/svg11.dtd" >
<svg xmlns="http://www.w3.org/2000/svg" xmlns:xlink="http://www.w3.org/1999/xlink" version="1.1">
<metadata>
Created by FontForge 20170731 at Wed Oct  7 23:50:59 2015
 By Aleksey,,,
Copyright (c) 2010-2012 by Colophon Foundry / The Entente (AS&#38;EH). All rights reserved.
</metadata>
<defs>
<font id="Apercu-Medium" horiz-adv-x="1187" >
  <font-face 
    font-family="Apercu Medium"
    font-weight="500"
    font-stretch="normal"
    units-per-em="2048"
    panose-1="0 0 0 0 0 0 0 0 0 0"
    ascent="1638"
    descent="-410"
    x-height="1032"
    cap-height="1434"
    bbox="-164 -639 2460 2261"
    underline-thickness="102"
    underline-position="-306"
    unicode-range="U+000D-FB02"
  />
<missing-glyph horiz-adv-x="1320" 
d="M193 0v1434h935v-1434h-935zM406 193h509v1048h-509v-1048z" />
    <glyph glyph-name=".notdef" horiz-adv-x="1320" 
d="M193 0v1434h935v-1434h-935zM406 193h509v1048h-509v-1048z" />
    <glyph glyph-name="uni0000" horiz-adv-x="0" 
 />
    <glyph glyph-name="uni0000" horiz-adv-x="0" 
 />
    <glyph glyph-name="uni000D" unicode="&#xd;" horiz-adv-x="528" 
 />
    <glyph glyph-name="space" unicode=" " horiz-adv-x="528" 
 />
    <glyph glyph-name="exclam" unicode="!" horiz-adv-x="718" 
d="M253 36q-44 44 -44 109q0 66 44 110t111 44q68 0 112 -44t44 -110q0 -65 -44 -109t-112 -44q-67 0 -111 44zM219 1434h291l-55 -981h-181z" />
    <glyph glyph-name="quotedbl" unicode="&#x22;" horiz-adv-x="960" 
d="M172 1450h266l-61 -489h-144zM522 1450h266l-61 -489h-143z" />
    <glyph glyph-name="numbersign" unicode="#" horiz-adv-x="1486" 
d="M139 412v168h269l55 274h-242v168h277l84 412h180l-84 -412h256l84 412h180l-84 -412h234v-168h-269l-55 -274h242v-168h-277l-84 -412h-180l84 412h-256l-84 -412h-180l84 412h-234zM588 580h256l55 274h-256z" />
    <glyph glyph-name="dollar" unicode="$" horiz-adv-x="1097" 
d="M90 383l184 117q78 -303 289 -303q95 0 157 60t62 155q0 63 -43 114t-115 83q-44 21 -147 73q-77 39 -148 85q-67 43 -112 123t-45 183q0 136 80 237q80 102 207 130v178h205v-182q176 -45 278 -228l-182 -121q-84 158 -213 158q-68 0 -109 -45q-41 -46 -41 -110
q0 -80 63 -135t154 -98q88 -40 181 -90q91 -48 153 -136q64 -88 64 -211q0 -168 -97 -283q-96 -114 -251 -143v-178h-205v178q-141 28 -240 133q-96 103 -129 256z" />
    <glyph glyph-name="percent" unicode="%" horiz-adv-x="1720" 
d="M209 890q-96 94 -96 232t96 233q97 95 235 95q139 0 236 -95q96 -95 96 -233t-96 -232q-97 -95 -236 -95q-138 0 -235 95zM262 27l1104 1474l119 -92l-1104 -1475zM334 1236q-41 -44 -41 -114q0 -69 41 -113t110 -44q70 0 111 44t41 113q0 70 -41 114t-111 44
q-69 0 -110 -44zM1040 79q-96 94 -96 232q0 139 96 233q98 95 236 95t235 -95q97 -94 97 -233q0 -138 -97 -232q-97 -95 -235 -95t-236 95zM1165 425q-41 -44 -41 -114q0 -69 41 -113t111 -44q69 0 110 44t41 113q0 70 -41 114t-110 44q-70 0 -111 -44z" />
    <glyph glyph-name="ampersand" unicode="&#x26;" horiz-adv-x="1398" 
d="M139 416q0 297 264 450q-109 147 -108 279q0 128 91 216q92 89 235 89q150 0 237 -87q88 -87 88 -200q0 -231 -252 -362l262 -342q31 49 97 235l129 -145q-39 -133 -107 -246l230 -303h-240l-107 145q-65 -75 -172 -118t-213 -43q-191 0 -312 118q-122 119 -122 314z
M571 180q172 0 273 113l-322 420q-81 -47 -129.5 -127.5t-48.5 -180.5q0 -103 64 -164t163 -61zM496 1137q0 -96 75 -195q174 82 174 205q0 54 -33.5 84.5t-91.5 30.5q-56 0 -90 -35.5t-34 -89.5z" />
    <glyph glyph-name="quotesingle" unicode="'" horiz-adv-x="610" 
d="M172 1450h266l-61 -489h-144z" />
    <glyph glyph-name="parenleft" unicode="(" horiz-adv-x="622" 
d="M354 1536h213q-113 -173 -165 -362q-52 -187 -52 -457q0 -269 52 -458q52 -188 165 -361h-213q-105 177 -161 360q-56 186 -56 458q0 273 56 459q57 185 161 361z" />
    <glyph glyph-name="parenright" unicode=")" horiz-adv-x="622" 
d="M55 -102q113 173 165 361q52 189 52 458q0 270 -52 457q-52 189 -165 362h213q105 -178 160 -361q57 -185 57 -459q0 -272 -56 -458q-55 -183 -161 -360h-213z" />
    <glyph glyph-name="asterisk" unicode="*" horiz-adv-x="991" 
d="M111 1102l51 174l244 -80v254h180v-254l243 80l52 -174l-242 -80l152 -207l-142 -104l-153 204l-154 -204l-141 104l151 207z" />
    <glyph glyph-name="plus" unicode="+" horiz-adv-x="1155" 
d="M123 555v188h360v361h189v-361h362v-188h-362v-362h-189v362h-360z" />
    <glyph glyph-name="comma" unicode="," horiz-adv-x="702" 
d="M127 -270l145 532h293l-278 -532h-160z" />
    <glyph glyph-name="hyphen" unicode="-" horiz-adv-x="1001" 
d="M139 555v188h723v-188h-723z" />
    <glyph glyph-name="period" unicode="." horiz-adv-x="651" 
d="M218 34q-44 44 -44 107q0 64 44 108t107 44q64 0 108 -44t44 -108q0 -63 -44 -107t-108 -44q-63 0 -107 44z" />
    <glyph glyph-name="slash" unicode="/" horiz-adv-x="1120" 
d="M27 -102l893 1638h210l-892 -1638h-211z" />
    <glyph glyph-name="zero" unicode="0" horiz-adv-x="1294" 
d="M264 178q-133 194 -133 539t133 538q134 195 383 195t383 -195q133 -193 133 -538t-133 -539q-134 -194 -383 -194t-383 194zM423 1114q-75 -140 -75 -397q0 -259 75 -398t224 -139q151 0 224 139q75 139 75 398q0 257 -75 397q-73 139 -224 139q-149 0 -224 -139z" />
    <glyph glyph-name="one" unicode="1" horiz-adv-x="811" 
d="M145 967v229l398 238h88v-1434h-217v1126z" />
    <glyph glyph-name="two" unicode="2" horiz-adv-x="1177" 
d="M139 0v90l529 678q72 94 91 141q23 60 23 125q0 102 -51 160.5t-145 58.5q-89 0 -145 -58.5t-68 -160.5l-205 39q11 163 128 269q118 108 290 108q183 0 299 -110t116 -298q0 -176 -118 -327l-408 -518h553v-197h-889z" />
    <glyph glyph-name="three" unicode="3" 
d="M121 395l211 27q39 -242 258 -242q115 0 185 73q71 74 71 204q0 134 -71 207q-70 73 -185 73q-62 0 -125 -28l-86 114l297 414h-486v197h799v-74l-348 -475q25 6 59 6q164 0 263 -122q100 -121 100 -312q0 -206 -136 -339q-137 -134 -337 -134q-187 0 -322 116
q-135 115 -147 295z" />
    <glyph glyph-name="four" unicode="4" horiz-adv-x="1247" 
d="M125 287v98l606 1049h230v-951h167v-196h-167v-287h-218v287h-618zM395 483h348v623z" />
    <glyph glyph-name="five" unicode="5" horiz-adv-x="1185" 
d="M154 375l211 39q18 -118 79 -176t156 -58q116 0 177 78q63 78 63 209q0 130 -62 209q-62 78 -178 78q-165 0 -274 -148l-142 29l80 799h713v-197h-531l-43 -358q84 71 209 71q212 -2 328 -134q117 -134 117 -349q0 -214 -124 -348q-125 -135 -333 -135q-183 0 -304 103
q-123 104 -142 288z" />
    <glyph glyph-name="six" unicode="6" horiz-adv-x="1183" 
d="M150 451q0 141 69 260l426 739h242l-314 -541q20 9 48 9q195 1 321 -132q125 -131 125 -335q0 -200 -130 -333q-131 -134 -329 -134q-197 0 -328 134q-130 133 -130 333zM367 451q0 -119 67 -195t174 -76t174 76q68 77 68 195q0 124 -67 197t-175 73t-175 -73
q-66 -72 -66 -197z" />
    <glyph glyph-name="seven" unicode="7" horiz-adv-x="1007" 
d="M106 1237v197h848v-99l-548 -1335h-218l510 1237h-592z" />
    <glyph glyph-name="eight" unicode="8" horiz-adv-x="1212" 
d="M147 422q0 236 197 350q-143 113 -143 291q0 161 114 274q116 113 291 113t291 -113q115 -112 115 -274q0 -174 -144 -291q197 -116 197 -350q0 -202 -133 -320t-326 -118t-326 118t-133 320zM433 593q-68 -62 -68 -172q0 -111 69 -176t172 -65q102 0 172 65
q70 66 70 176q0 111 -69 172q-68 62 -173 62q-103 0 -173 -62zM412 1061q0 -88 55 -146q56 -57 139 -57q84 0 139 57q56 59 56 146q0 85 -56 143q-55 58 -139 58t-139 -58q-55 -56 -55 -143z" />
    <glyph glyph-name="nine" unicode="9" horiz-adv-x="1185" 
d="M152 983q0 200 130 333q131 134 328 134q198 0 329 -134q130 -133 130 -333q0 -138 -70 -260l-426 -739h-241l313 540q-18 -8 -47 -8q-197 0 -322 131q-124 130 -124 336zM369 983q0 -126 66 -198t175 -72t175 72q67 73 67 198q0 118 -68 194q-67 76 -174 76t-174 -76
q-67 -74 -67 -194z" />
    <glyph glyph-name="colon" unicode=":" horiz-adv-x="651" 
d="M218 34q-44 44 -44 107q0 64 44 108t107 44q64 0 108 -44t44 -108q0 -63 -44 -107t-108 -44q-63 0 -107 44zM218 695q-44 44 -44 107q0 64 44 108t107 44q64 0 108 -44t44 -108q0 -63 -44 -107t-108 -44q-63 0 -107 44z" />
    <glyph glyph-name="semicolon" unicode=";" horiz-adv-x="651" 
d="M66 -270l145 532h293l-279 -532h-159zM218 695q-44 44 -44 107q0 64 44 108t107 44q64 0 108 -44t44 -108q0 -63 -44 -107t-108 -44q-63 0 -107 44z" />
    <glyph glyph-name="less" unicode="&#x3c;" horiz-adv-x="952" 
d="M98 528v213l746 394v-228l-520 -272l520 -273v-227z" />
    <glyph glyph-name="equal" unicode="=" horiz-adv-x="1239" 
d="M195 371v188h849v-188h-849zM195 711v188h849v-188h-849z" />
    <glyph glyph-name="greater" unicode="&#x3e;" horiz-adv-x="952" 
d="M109 135v227l520 273l-520 272v228l745 -394v-213z" />
    <glyph glyph-name="question" unicode="?" horiz-adv-x="933" 
d="M92 1141q26 138 126 223q101 86 257 86q159 0 263 -84t104 -231q0 -166 -146 -238l-231 -113q-86 -42 -86 -114q0 -39 23.5 -61.5t64.5 -22.5q45 0 73 28t50 88l166 -63q-66 -215 -285 -215q-125 0 -202 68q-76 69 -76 186q0 172 174 252l170 78q55 25 77.5 57.5
t22.5 85.5q0 54 -43 89.5t-107 35.5q-154 0 -200 -168zM359 36q-44 44 -44 109q0 66 44 110t112 44t112 -44t44 -110q0 -65 -44 -109t-112 -44t-112 44z" />
    <glyph glyph-name="at" unicode="@" horiz-adv-x="1863" 
d="M143 616q0 388 234 621q236 233 604 233q367 0 563 -198q197 -197 197 -551q0 -240 -100 -370q-99 -130 -267 -130q-77 0 -142 38q-64 38 -89 99q-90 -137 -266 -137q-171 0 -265 108q-94 109 -94 275q0 194 122 324q122 129 314 129q155 0 222 -103l22 88h156l-49 -518
l-2 -35q-4 -79 79 -79q154 1 154 311q0 295 -145 428q-143 133 -420 133q-350 0 -523 -297q-90 -156 -90 -375q0 -200 90 -342q93 -144 226 -208q134 -64 295 -64q100 0 148 4q58 5 149 28q97 26 196 76l72 -174q-158 -71 -275 -98q-114 -25 -290 -25q-368 0 -598 218
q-228 217 -228 591zM719 598q0 -84 46 -136t126 -52q120 0 175 79q56 80 56 191q0 91 -48.5 139.5t-133.5 48.5q-99 0 -161 -74q-60 -74 -60 -196z" />
    <glyph glyph-name="A" unicode="A" horiz-adv-x="1245" 
d="M18 0l498 1434h213l498 -1434h-230l-118 356h-512l-119 -356h-230zM434 569h377l-188 580z" />
    <glyph glyph-name="B" unicode="B" horiz-adv-x="1275" 
d="M193 0v1434h507q183 0 293 -98q109 -97 109 -277q0 -84 -41 -164t-105 -113q103 -44 161 -139q59 -97 59 -221q0 -201 -119 -312q-119 -110 -332 -110h-532zM418 213h276q252 0 252 221t-252 221h-276v-442zM418 868h262q197 0 197 176q0 177 -197 177h-262v-353z" />
    <glyph glyph-name="C" unicode="C" horiz-adv-x="1423" 
d="M768 1450q224 0 374 -114q151 -115 206 -320l-213 -53q-55 141 -141 207q-85 67 -226 67q-190 0 -312 -134t-122 -386t122 -386t312 -134q140 0 226 66q86 68 141 208l213 -53q-56 -207 -205 -321q-151 -113 -375 -113q-277 0 -470 193q-194 194 -194 540q0 345 194 539
t470 194z" />
    <glyph glyph-name="D" unicode="D" horiz-adv-x="1378" 
d="M193 0v1434h421q277 0 468 -187q192 -186 192 -530q0 -343 -192 -531q-190 -186 -468 -186h-421zM418 213h131q205 0 341 104q74 56 114 158t40 241q0 140 -40 242t-114 158q-140 105 -341 105h-131v-1008z" />
    <glyph glyph-name="E" unicode="E" horiz-adv-x="1163" 
d="M193 0v1434h849v-213h-624v-353h504v-213h-504v-442h645v-213h-870z" />
    <glyph glyph-name="F" unicode="F" horiz-adv-x="1124" 
d="M193 0v1434h868v-213h-643v-371h518v-213h-518v-637h-225z" />
    <glyph glyph-name="G" unicode="G" horiz-adv-x="1474" 
d="M768 1450q224 0 375 -122q151 -121 196 -320l-206 -64q-102 293 -365 293q-192 0 -314 -134q-120 -134 -120 -386q0 -258 119 -389q120 -131 315 -131q160 0 249 93q90 94 103 234h-278v199h504v-723h-197l-16 178q-45 -78 -142 -136q-95 -58 -235 -58q-271 0 -462 188
q-190 187 -190 544q0 358 192 545q194 189 472 189z" />
    <glyph glyph-name="H" unicode="H" horiz-adv-x="1417" 
d="M193 0v1434h225v-562h581v562h226v-1434h-226v659h-581v-659h-225z" />
    <glyph glyph-name="I" unicode="I" horiz-adv-x="610" 
d="M193 0v1434h225v-1434h-225z" />
    <glyph glyph-name="J" unicode="J" horiz-adv-x="1048" 
d="M12 360l228 48q18 -100 73 -155.5t138 -55.5q107 0 160 60.5t53 197.5v979h225v-969q0 -245 -123 -364q-123 -117 -315 -117q-183 0 -299 107q-114 105 -140 269z" />
    <glyph glyph-name="K" unicode="K" horiz-adv-x="1271" 
d="M193 0v1434h225v-551l512 551h274l-577 -641l624 -793h-288l-545 702v-702h-225z" />
    <glyph glyph-name="L" unicode="L" horiz-adv-x="1069" 
d="M193 0v1434h225v-1221h618v-213h-843z" />
    <glyph glyph-name="M" unicode="M" horiz-adv-x="1630" 
d="M193 0v1434h266l356 -955l356 955h267v-1434h-226v967l-317 -836h-160l-317 836v-967h-225z" />
    <glyph glyph-name="N" unicode="N" horiz-adv-x="1439" 
d="M193 0v1434h241l588 -1033v1033h225v-1434h-241l-588 1028v-1028h-225z" />
    <glyph glyph-name="O" unicode="O" horiz-adv-x="1523" 
d="M293 175q-189 190 -189 542q0 351 189 541q191 192 468 192t468 -192q190 -190 190 -541t-190 -542q-189 -191 -468 -191q-277 0 -468 191zM456 1104q-122 -134 -122 -387t122 -387q121 -133 306 -133t306 133q122 134 122 387t-122 387q-121 133 -306 133t-306 -133z
" />
    <glyph glyph-name="P" unicode="P" horiz-adv-x="1206" 
d="M193 0v1434h514q209 0 326 -119q118 -118 118 -306q0 -187 -118 -305t-326 -118h-289v-586h-225zM418 799h299q96 0 150.5 55.5t54.5 154.5q0 101 -54.5 156.5t-150.5 55.5h-299v-422z" />
    <glyph glyph-name="Q" unicode="Q" horiz-adv-x="1523" 
d="M1419 717q0 -257 -110 -441l143 -141l-152 -151l-135 133q-169 -133 -403 -133q-278 0 -469 191q-189 190 -189 542q0 351 189 541q191 192 468 192t468 -192q190 -190 190 -541zM762 197q142 0 246 77l-174 175l151 151l154 -156q51 116 51 273q0 253 -122 387
q-121 133 -306 133t-306 -133q-122 -134 -122 -387t122 -387q121 -133 306 -133z" />
    <glyph glyph-name="R" unicode="R" horiz-adv-x="1329" 
d="M193 0v1434h501q200 0 312 -106t112 -290q0 -147 -72.5 -245.5t-205.5 -133.5l413 -659h-266l-403 643h-166v-643h-225zM418 856h282q89 0 139 46t50 136t-50 136.5t-139 46.5h-282v-365z" />
    <glyph glyph-name="S" unicode="S" horiz-adv-x="1085" 
d="M78 383l184 117q78 -303 289 -303q95 0 157 60t62 155q0 63 -43 114t-115 83q-44 21 -147 73q-77 39 -148 85q-67 43 -112 123t-45 183q0 163 108 269q110 108 267 108q260 0 395 -242l-182 -121q-84 158 -213 158q-69 0 -109 -45q-41 -46 -41 -110q0 -80 63 -135
t154 -98q90 -42 180 -90q91 -48 153 -136q64 -88 64 -211q0 -194 -126 -316q-125 -120 -322 -120q-184 0 -309 110q-125 112 -164 289z" />
    <glyph glyph-name="T" unicode="T" horiz-adv-x="1073" 
d="M23 1221v213h1028v-213h-402v-1221h-225v1221h-401z" />
    <glyph glyph-name="U" unicode="U" horiz-adv-x="1339" 
d="M154 516v918h225v-928q0 -148 74 -228.5t216 -80.5q143 0 217.5 80t74.5 229v928h225v-918q0 -253 -145 -392q-145 -140 -372 -140t-371 141t-144 391z" />
    <glyph glyph-name="V" unicode="V" horiz-adv-x="1224" 
d="M10 1434h242l360 -1119l361 1119h241l-489 -1434h-225z" />
    <glyph glyph-name="W" unicode="W" horiz-adv-x="1867" 
d="M47 1434h238l262 -1115l284 963h205l285 -963l262 1115h238l-379 -1434h-230l-278 909l-279 -909h-229z" />
    <glyph glyph-name="X" unicode="X" 
d="M25 0l442 770l-379 664h252l254 -443l254 443h252l-379 -664l442 -770h-256l-313 547l-313 -547h-256z" />
    <glyph glyph-name="Y" unicode="Y" horiz-adv-x="1052" 
d="M4 1434h240l282 -596l283 596h240l-410 -820v-614h-225v614z" />
    <glyph glyph-name="Z" unicode="Z" horiz-adv-x="1142" 
d="M78 0v111l653 1110h-622v213h925v-111l-645 -1110h672v-213h-983z" />
    <glyph glyph-name="bracketleft" unicode="[" horiz-adv-x="692" 
d="M193 -102v1638h425v-193h-221v-1253h221v-192h-425z" />
    <glyph glyph-name="backslash" unicode="\" horiz-adv-x="1120" 
d="M-10 1536h211l893 -1638h-211z" />
    <glyph glyph-name="bracketright" unicode="]" horiz-adv-x="692" 
d="M74 90h221v1253h-221v193h426v-1638h-426v192z" />
    <glyph glyph-name="asciicircum" unicode="^" horiz-adv-x="1183" 
d="M111 846l391 588h180l391 -588h-211l-270 399l-270 -399h-211z" />
    <glyph glyph-name="underscore" unicode="_" horiz-adv-x="1021" 
d="M55 0h912v-188h-912v188z" />
    <glyph glyph-name="grave" unicode="`" horiz-adv-x="495" 
d="M33 1450h289l139 -303h-164z" />
    <glyph glyph-name="a" unicode="a" horiz-adv-x="1052" 
d="M90 297q0 158 123 248t324 90h178v45q0 89 -54.5 134.5t-146.5 45.5q-141 0 -192 -137l-195 41q33 131 137 208q106 77 252 77q412 0 412 -408v-641h-180l-21 135q-110 -152 -319 -151q-137 0 -228 79q-90 79 -90 234zM315 297q0 -56 34 -90.5t95 -34.5q108 0 190 68
q81 69 81 194v23h-187q-98 0 -155.5 -43t-57.5 -117z" />
    <glyph glyph-name="b" unicode="b" horiz-adv-x="1230" 
d="M176 0v1450h213v-532q37 51 119 91q81 40 158 40q226 0 345 -144q119 -143 119 -389q0 -253 -118 -392q-117 -140 -342 -140q-94 0 -173 42t-108 93v-119h-213zM450 767q-73 -92 -73 -251t73 -251q74 -93 191 -93t190 93q74 94 74 251t-74 251q-73 93 -190 93t-191 -93z
" />
    <glyph glyph-name="c" unicode="c" horiz-adv-x="1110" 
d="M586 1049q322 0 446 -285l-190 -82q-79 178 -256 178q-132 0 -196 -94t-64 -250t64 -250t196 -94q177 0 256 178l190 -82q-125 -286 -446 -284q-234 0 -360 152q-126 151 -126 380q0 227 126 380t360 153z" />
    <glyph glyph-name="d" unicode="d" horiz-adv-x="1230" 
d="M100 516q0 246 119 389q119 144 346 144q77 0 158 -40q82 -40 119 -91v532h213v-1450h-213v119q-28 -51 -108 -93t-173 -42q-224 0 -343 140q-118 139 -118 392zM399 767q-73 -92 -73 -251t73 -251q73 -93 191 -93q116 0 190 93q74 94 74 251t-74 251q-74 93 -190 93
q-118 0 -191 -93z" />
    <glyph glyph-name="e" unicode="e" horiz-adv-x="1144" 
d="M582 1049q117 0 211.5 -44.5t150.5 -120.5q113 -150 113 -335v-92h-731q0 -121 67 -203t189 -82q87 0 159 46.5t111 127.5l182 -72q-78 -152 -180 -221t-272 -69q-120 0 -216.5 47t-152.5 128q-113 163 -113 357q0 196 113 357q56 81 152.5 128.5t216.5 47.5zM330 635
h501q-13 95 -78 160q-63 65 -171 65q-102 0 -168 -63q-66 -61 -84 -162z" />
    <glyph glyph-name="f" unicode="f" horiz-adv-x="741" 
d="M78 844v188h133v53q0 179 90.5 272t255.5 93q100 0 170 -37l-43 -180q-56 29 -121 29q-139 0 -139 -162v-68h227v-188h-227v-844h-213v844h-133z" />
    <glyph glyph-name="g" unicode="g" horiz-adv-x="1046" 
d="M94 -94q0 127 88 209q-59 59 -59 161q0 137 125 209q-70 85 -70 217q0 157 104 252q106 95 265 95q103 0 188 -45l191 102l86 -154l-140 -78q46 -80 46 -172q1 -159 -105 -253q-103 -93 -266 -93q-89 0 -166 31q-55 -31 -55 -90q0 -80 106 -80h227q157 0 249 -76
q93 -75 93 -219q0 -180 -130 -268t-322 -88q-204 0 -329 88q-126 88 -126 252zM549 -250q111 0 173 41t62 115q0 131 -170 131h-165q-55 0 -105 6q-45 -46 -45 -125q0 -78 66 -123q67 -45 184 -45zM547 535q74 0 119 46t45 121q0 76 -45 122t-119 46q-72 0 -117 -46.5
t-45 -121.5t45 -121t117 -46z" />
    <glyph glyph-name="h" unicode="h" horiz-adv-x="1204" 
d="M176 0v1450h213v-594q133 193 348 193q147 0 226 -81t79 -241v-727h-213v672q0 111 -41 149q-40 39 -120 39q-98 0 -189 -117q-90 -115 -90 -307v-436h-213z" />
    <glyph glyph-name="i" unicode="i" horiz-adv-x="544" 
d="M167 1220q-42 42 -42 103q0 62 43 105q43 45 104 45q62 0 105 -45q43 -43 43 -105q0 -61 -42 -103t-106 -42q-63 0 -105 42zM166 0v1032h213v-1032h-213z" />
    <glyph glyph-name="j" unicode="j" horiz-adv-x="544" 
d="M-51 -248q108 33 163 95q54 61 54 180v1005h213v-985q0 -204 -94 -321t-283 -160zM167 1220q-42 42 -42 103q0 62 43 105q43 45 104 45q62 0 105 -45q43 -43 43 -105q0 -61 -42 -103t-106 -42q-63 0 -105 42z" />
    <glyph glyph-name="k" unicode="k" horiz-adv-x="1075" 
d="M176 0v1450h213v-829l373 411h270l-432 -475l459 -557h-271l-399 494v-494h-213z" />
    <glyph glyph-name="l" unicode="l" horiz-adv-x="555" 
d="M172 0v1450h213v-1450h-213z" />
    <glyph glyph-name="m" unicode="m" horiz-adv-x="1763" 
d="M176 0v1032h213v-176q124 193 311 193q103 0 183 -59t102 -154q53 102 137 157.5t185 55.5q139 0 217 -85q78 -86 78 -225v-739h-213v692q0 81 -40.5 124.5t-111.5 43.5q-101 0 -171 -121q-71 -122 -71 -325v-414h-213v692q0 81 -40.5 124.5t-110.5 43.5
q-102 0 -172 -124t-70 -345v-391h-213z" />
    <glyph glyph-name="n" unicode="n" 
d="M176 0v1032h213v-176q54 92 142.5 142.5t191.5 50.5q137 0 220 -81t83 -229v-739h-213v672q0 188 -160 188q-105 0 -185 -120q-79 -118 -79 -322v-418h-213z" />
    <glyph glyph-name="o" unicode="o" horiz-adv-x="1216" 
d="M238 137q-138 153 -138 379q0 224 138 379q139 154 370 154q232 0 370 -154q138 -155 138 -379t-138 -379q-138 -153 -370 -153t-370 153zM400 758q-74 -101 -74 -242q0 -142 74 -243t208 -101q133 0 208 101q75 102 75 243q0 142 -75 242q-75 102 -208 102t-208 -102z
" />
    <glyph glyph-name="p" unicode="p" horiz-adv-x="1230" 
d="M176 -418v1450h213v-119q28 51 107 93q79 43 174 43q224 0 342 -141t118 -392q0 -246 -119 -389t-345 -143q-91 0 -164 37t-113 94v-533h-213zM450 767q-73 -92 -73 -251t73 -251q74 -93 191 -93t190 93q74 94 74 251t-74 251q-73 93 -190 93t-191 -93z" />
    <glyph glyph-name="q" unicode="q" horiz-adv-x="1230" 
d="M100 516q0 253 118 392q118 141 343 141q93 0 173 -42t108 -94v119h213v-1450h-213v533q-37 -51 -119 -91q-81 -40 -158 -40q-227 0 -346 143t-119 389zM399 767q-73 -92 -73 -251t73 -251q73 -93 191 -93q116 0 190 93q74 94 74 251t-74 251q-74 93 -190 93
q-118 0 -191 -93z" />
    <glyph glyph-name="r" unicode="r" horiz-adv-x="854" 
d="M176 0v1032h213v-172q51 89 135 139q85 50 170 50q71 0 131 -25l-37 -195q-49 31 -120 31q-114 0 -196 -124q-83 -125 -83 -353v-383h-213z" />
    <glyph glyph-name="s" unicode="s" horiz-adv-x="921" 
d="M82 260l180 98q82 -186 227 -186q139 0 140 135q0 51 -54 83q-27 17 -52 28q-4 2 -69 27l-71 28q-221 87 -221 283q0 122 90 208q89 85 227 85q93 0 174.5 -44t130.5 -120l-135 -119q-73 94 -180 94q-44 0 -73 -27.5t-29 -74.5t41 -78t143 -70q43 -16 85 -34
q39 -17 76 -41q40 -25 67 -55q61 -73 61 -169q0 -137 -99 -232q-98 -95 -260 -95q-148 0 -250 81t-149 195z" />
    <glyph glyph-name="t" unicode="t" horiz-adv-x="788" 
d="M43 844v188h172v285l213 133v-418h268v-188h-268v-504q0 -168 137 -168q50 0 99 29l55 -181q-73 -36 -166 -36q-156 2 -246 93q-92 94 -92 275v492h-172z" />
    <glyph glyph-name="u" unicode="u" 
d="M162 293v739h213v-672q0 -188 160 -188q105 0 185 120q79 119 79 322v418h213v-1032h-213v176q-54 -91 -142.5 -141.5t-191.5 -50.5q-138 0 -220 81q-83 81 -83 228z" />
    <glyph glyph-name="v" unicode="v" horiz-adv-x="933" 
d="M25 1032h217l225 -741l225 741h217l-342 -1032h-200z" />
    <glyph glyph-name="w" unicode="w" horiz-adv-x="1544" 
d="M63 1032h226l198 -753l183 753h204l183 -753l198 753h226l-328 -1032h-195l-186 729l-186 -729h-195z" />
    <glyph glyph-name="x" unicode="x" horiz-adv-x="962" 
d="M27 0l340 545l-304 487h230l188 -303l189 303h229l-303 -487l340 -545h-229l-226 360l-225 -360h-229z" />
    <glyph glyph-name="y" unicode="y" horiz-adv-x="960" 
d="M16 1032h226l243 -694l236 694h225l-522 -1450h-213l168 469z" />
    <glyph glyph-name="z" unicode="z" horiz-adv-x="944" 
d="M94 0v86l465 758h-434v188h711v-86l-465 -758h487v-188h-764z" />
    <glyph glyph-name="braceleft" unicode="{" horiz-adv-x="679" 
d="M121 621v192q101 0 136 32q34 31 34 124v370q0 85 56 141t147 56h135v-193h-51q-45 0 -63.5 -19t-18.5 -67v-337q0 -178 -150 -203q150 -25 150 -203v-338q0 -47 18 -66.5t64 -19.5h51v-192h-135q-91 0 -147 55q-56 56 -56 141v371q0 93 -34 124q-35 32 -136 32z" />
    <glyph glyph-name="bar" unicode="|" horiz-adv-x="589" 
d="M193 -102v1638h204v-1638h-204z" />
    <glyph glyph-name="braceright" unicode="}" horiz-adv-x="679" 
d="M51 90h51q45 0 63.5 19.5t18.5 66.5v338q0 178 150 203q-150 25 -150 203v337q0 47 -18.5 66.5t-63.5 19.5h-51v193h135q90 0 146 -56q57 -56 57 -141v-370q0 -93 34 -124q35 -32 136 -32v-192q-101 0 -136 -32q-34 -31 -34 -124v-371q0 -86 -57 -141q-55 -55 -146 -55
h-135v192z" />
    <glyph glyph-name="asciitilde" unicode="~" horiz-adv-x="1314" 
d="M158 649q39 86 119 146q80 61 172 61q91 0 214 -53q124 -53 191 -53q108 0 188 96l115 -123q-39 -85 -120 -147q-81 -60 -171 -60q-88 0 -214 53q-124 54 -191 54q-110 0 -189 -97z" />
    <glyph glyph-name="uni00A0" unicode="&#xa0;" horiz-adv-x="528" 
 />
    <glyph glyph-name="exclamdown" unicode="&#xa1;" horiz-adv-x="718" 
d="M243 761q-44 44 -44 109q0 66 44 110t111 44q68 0 112 -44t44 -110q0 -65 -44 -109t-112 -44q-67 0 -111 44zM209 -418l55 981h180l56 -981h-291z" />
    <glyph glyph-name="cent" unicode="&#xa2;" horiz-adv-x="1165" 
d="M496 1241v297h204v-295q239 -37 349 -276l-191 -82q-79 178 -256 178q-131 0 -196 -95q-64 -94 -64 -250q0 -155 64 -249t196 -94q177 0 256 178l191 -82q-110 -240 -349 -276v-295h-204v297q-184 34 -282 179q-97 143 -97 343t97 343q98 145 282 179z" />
    <glyph glyph-name="sterling" unicode="&#xa3;" horiz-adv-x="1120" 
d="M84 125q113 107 170 195q55 85 55 188q0 74 -18 135h-164v205h98q-28 100 -28 184q2 189 112 302q113 116 297 116q150 0 257.5 -73.5t154.5 -209.5l-178 -84q-70 162 -234 162q-89 0 -142.5 -55t-53.5 -160q0 -102 20 -182h334v-205h-272q10 -49 10 -102
q0 -201 -168 -346q101 66 184 65q58 0 126 -36t110 -36q94 0 164 117l161 -90q-66 -121 -141 -176t-176 -55q-91 0 -181 35q-95 36 -135 36q-122 0 -235 -71z" />
    <glyph glyph-name="currency" unicode="&#xa4;" horiz-adv-x="1150" 
d="M47 270l180 138q-61 100 -61 221t61 221l-180 137l170 170l137 -178q96 63 221 63t222 -63l137 178l170 -170l-180 -137q61 -100 61 -221t-61 -221l180 -138l-170 -170l-137 179q-95 -62 -221 -64q-125 0 -222 64l-137 -179zM431 784q-54 -58 -54 -156q0 -96 54 -155
t144 -59q91 0 145 59t54 155q0 98 -54 156q-54 60 -145 60q-90 0 -144 -60z" />
    <glyph glyph-name="yen" unicode="&#xa5;" horiz-adv-x="1060" 
d="M20 1434h240l270 -594l271 594h239l-305 -631h215v-189h-307v-137h307v-188h-307v-289h-225v289h-307v188h307v137h-307v189h215z" />
    <glyph glyph-name="brokenbar" unicode="&#xa6;" horiz-adv-x="589" 
d="M193 -102v714h204v-714h-204zM193 821v715h204v-715h-204z" />
    <glyph glyph-name="section" unicode="&#xa7;" horiz-adv-x="1091" 
d="M129 561q0 180 131 279q-65 89 -65 219q2 180 106 284q107 107 256 107q319 0 399 -305l-194 -66q-55 166 -205 166q-69 0 -113.5 -47t-44.5 -131q0 -95 73 -149q44 -33 76 -48l108 -52q86 -40 122 -60q209 -111 209 -303q0 -180 -131 -279q66 -90 66 -219
q0 -177 -107 -284t-256 -107q-319 0 -399 305l194 66q55 -166 205 -166q69 0 113.5 47t44.5 131q0 49 -17 84t-56 64q-42 31 -76 48q-12 6 -109 52q-57 26 -121 61q-209 113 -209 303zM319 580q0 -83 90 -139q50 -31 88 -48l109 -49q86 -39 109 -51q82 52 82 143
q0 51 -40 94q-41 44 -86 67q-37 19 -136 62q-83 35 -134 64q-82 -52 -82 -143z" />
    <glyph glyph-name="dieresis" unicode="&#xa8;" horiz-adv-x="710" 
d="M74 1241q-37 37 -37 92q0 56 37 92q37 37 92 37t92 -37q37 -36 37 -92q0 -55 -37 -92t-92 -37t-92 37zM455 1241q-37 37 -37 92q0 56 37 92q37 37 92 37t92 -37q37 -36 37 -92q0 -55 -37 -92t-92 -37t-92 37z" />
    <glyph glyph-name="copyright" unicode="&#xa9;" horiz-adv-x="1835" 
d="M357 147q-224 230 -224 570q0 339 224 569q225 230 560 230q336 0 560 -230q225 -229 225 -569q0 -341 -225 -570q-223 -229 -560 -229q-335 0 -560 229zM493 1153q-163 -173 -163 -436q0 -262 163 -437q163 -174 424 -174t424 174q164 176 164 437t-164 436
q-163 174 -424 174t-424 -174zM918 1159q138 0 241 -74q104 -74 123 -202l-174 -39q-47 143 -190 143q-98 0 -157 -71.5t-59 -198.5t59 -199t157 -72q144 0 190 144l174 -39q-20 -130 -123 -203q-103 -74 -241 -74q-167 0 -288 116q-120 116 -120 327t120 326
q121 116 288 116z" />
    <glyph glyph-name="ordfeminine" unicode="&#xaa;" horiz-adv-x="907" 
d="M123 852q0 124 96 195q97 71 254 71h139v35q0 71 -43 106t-118 35q-120 0 -154 -106l-141 31q23 105 101 164t194 59q329 0 329 -320v-508h-139l-18 111q-86 -119 -250 -119q-109 0 -180 62q-70 63 -70 184zM299 852q0 -98 102 -98q84 0 147 54q64 54 64 153v22h-145
q-76 0 -122 -36t-46 -95z" />
    <glyph glyph-name="guillemotleft" unicode="&#xab;" horiz-adv-x="1355" 
d="M94 561v148l600 421v-219l-387 -276l387 -277v-219zM647 561v148l600 421v-219l-387 -276l387 -277v-219z" />
    <glyph glyph-name="logicalnot" unicode="&#xac;" horiz-adv-x="1204" 
d="M133 625v188h920v-522h-213v334h-707z" />
    <glyph glyph-name="uni00AD" unicode="&#xad;" horiz-adv-x="1001" 
d="M139 555v188h723v-188h-723z" />
    <glyph glyph-name="registered" unicode="&#xae;" horiz-adv-x="1835" 
d="M357 147q-224 230 -224 570q0 339 224 569q225 230 560 230q336 0 560 -230q225 -229 225 -569q0 -341 -225 -570q-223 -229 -560 -229q-335 0 -560 229zM493 1153q-163 -173 -163 -436q0 -262 163 -437q163 -174 424 -174t424 174q164 176 164 437t-164 436
q-163 174 -424 174t-424 -174zM621 281v872h323q137 0 210 -64.5t73 -185.5q0 -98 -50.5 -160.5t-138.5 -80.5l260 -381h-200l-250 372h-51v-372h-176zM797 817h145q111 0 111 86t-111 86h-145v-172z" />
    <glyph glyph-name="overscore" unicode="&#xaf;" horiz-adv-x="571" 
d="M23 1245v189h526v-189h-526z" />
    <glyph glyph-name="degree" unicode="&#xb0;" horiz-adv-x="724" 
d="M194 1051q-65 65 -65 163t65 163q67 65 168 65q103 0 168 -65q66 -65 66 -163t-66 -163q-64 -64 -168 -64q-103 0 -168 64zM301 1276q-22 -22 -22 -62q0 -39 22 -62q22 -24 61 -24q38 0 61 24q23 25 23 62q0 39 -23 62q-22 24 -61 24q-38 0 -61 -24z" />
    <glyph glyph-name="plusminus" unicode="&#xb1;" horiz-adv-x="1159" 
d="M125 0v188h911v-188h-911zM125 723v188h360v361h189v-361h362v-188h-362v-363h-189v363h-360z" />
    <glyph glyph-name="uni00B2" unicode="&#xb2;" horiz-adv-x="780" 
d="M119 614v62l309 381q51 63 51 137q0 47 -25 73.5t-67 26.5q-101 0 -111 -123l-149 41q11 101 83 165q74 65 177 65q115 0 186 -66q70 -66 70 -178q0 -110 -80 -207l-188 -229h284v-148h-540z" />
    <glyph glyph-name="uni00B3" unicode="&#xb3;" horiz-adv-x="794" 
d="M119 854l143 20q8 -56 44.5 -88t88.5 -32q115 0 115 137q0 59 -30.5 92t-84.5 33q-44 0 -78 -25l-73 96l149 199h-239v148h471v-60l-187 -246q104 0 170 -70q66 -69 66 -173q0 -127 -72 -203t-207 -76q-120 0 -195 69t-81 179z" />
    <glyph glyph-name="acute" unicode="&#xb4;" horiz-adv-x="495" 
d="M35 1147l139 303h289l-264 -303h-164z" />
    <glyph glyph-name="uni00B5" unicode="&#xb5;" 
d="M162 -418v1450h213v-672q0 -188 160 -188q105 0 185 120q79 119 79 322v418h213v-1032h-213v176q-119 -194 -334 -192q-47 0 -90 10v-412h-213z" />
    <glyph glyph-name="paragraph" unicode="&#xb6;" horiz-adv-x="1464" 
d="M547 1434h788v-189h-127v-1663h-213v1663h-235v-1663h-213v991q-178 0 -304 126t-126 304q0 179 126 305t304 126z" />
    <glyph glyph-name="middot" unicode="&#xb7;" horiz-adv-x="651" 
d="M218 648q-44 44 -44 107q0 64 44 108t107 44q64 0 108 -44t44 -108q0 -63 -44 -107t-108 -44q-63 0 -107 44z" />
    <glyph glyph-name="cedilla" unicode="&#xb8;" horiz-adv-x="452" 
d="M16 -399l254 276h166l-172 -391z" />
    <glyph glyph-name="uni00B9" unicode="&#xb9;" horiz-adv-x="610" 
d="M111 1130v175l268 129h61v-820h-157v598z" />
    <glyph glyph-name="ordmasculine" unicode="&#xba;" horiz-adv-x="1058" 
d="M239 727q-108 121 -108 297t108 297q109 121 291 121q184 0 290 -121q108 -121 108 -297t-108 -297q-106 -121 -290 -121q-182 0 -291 121zM366 1214q-59 -80 -59 -190q0 -111 59 -191q60 -79 164 -79q105 0 163 79q59 80 59 191q0 110 -59 190t-163 80t-164 -80z" />
    <glyph glyph-name="guillemotright" unicode="&#xbb;" horiz-adv-x="1355" 
d="M109 139v219l387 277l-387 276v219l600 -421v-148zM662 139v219l387 277l-387 276v219l600 -421v-148z" />
    <glyph glyph-name="onequarter" unicode="&#xbc;" horiz-adv-x="1681" 
d="M152 1130v175l268 129h61v-820h-157v598zM254 27l1104 1474l119 -92l-1104 -1475zM922 145v72l327 602h172v-526h90v-148h-90v-145h-157v145h-342zM1112 293h152v293z" />
    <glyph glyph-name="onehalf" unicode="&#xbd;" horiz-adv-x="1845" 
d="M152 1130v175l268 129h61v-820h-157v598zM262 27l1104 1474l119 -92l-1104 -1475zM1135 0v61l309 381q51 63 51 138q0 47 -25 73.5t-67 26.5q-101 0 -111 -123l-149 41q10 100 82 164q74 65 178 65q115 0 186 -66q70 -66 70 -177q0 -110 -80 -207l-188 -230h284v-147
h-540z" />
    <glyph glyph-name="threequarters" unicode="&#xbe;" horiz-adv-x="1669" 
d="M119 854l143 20q8 -56 44.5 -88t88.5 -32q115 0 115 137q0 59 -30.5 92t-84.5 33q-44 0 -78 -25l-73 96l149 199h-239v148h471v-60l-187 -246q104 0 170 -70q66 -69 66 -173q0 -127 -72 -203t-207 -76q-120 0 -195 69t-81 179zM311 27l1104 1474l119 -92l-1104 -1475z
M958 145v72l328 602h172v-526h90v-148h-90v-145h-158v145h-342zM1149 293h151v293z" />
    <glyph glyph-name="questiondown" unicode="&#xbf;" horiz-adv-x="933" 
d="M92 -119q0 167 146 238l231 112q86 42 86 115q0 39 -23.5 61.5t-64.5 22.5q-45 0 -73 -28t-50 -89l-166 64q66 215 285 215q125 0 201 -69q77 -68 77 -185q0 -172 -174 -252l-170 -78q-55 -25 -77.5 -57.5t-22.5 -85.5q0 -56 43 -90q44 -35 106 -35q154 0 201 168
l195 -33q-26 -138 -127 -223q-101 -86 -256 -86q-161 0 -264 84t-103 231zM351 761q-44 44 -44 109q0 66 44 110t111 44q68 0 112 -44t44 -110q0 -65 -44 -109t-112 -44q-67 0 -111 44z" />
    <glyph glyph-name="Agrave" unicode="&#xc0;" horiz-adv-x="1245" 
d="M18 0l498 1434h213l498 -1434h-230l-118 356h-512l-119 -356h-230zM330 1851h288l140 -303h-164zM434 569h377l-188 580z" />
    <glyph glyph-name="Aacute" unicode="&#xc1;" horiz-adv-x="1245" 
d="M18 0l498 1434h213l498 -1434h-230l-118 356h-512l-119 -356h-230zM434 569h377l-188 580zM475 1548l139 303h289l-264 -303h-164z" />
    <glyph glyph-name="Acircumflex" unicode="&#xc2;" horiz-adv-x="1245" 
d="M18 0l498 1434h213l498 -1434h-230l-118 356h-512l-119 -356h-230zM260 1561l332 360h61l332 -360h-205l-157 163l-158 -163h-205zM434 569h377l-188 580z" />
    <glyph glyph-name="Atilde" unicode="&#xc3;" horiz-adv-x="1245" 
d="M18 0l498 1434h213l498 -1434h-230l-118 356h-512l-119 -356h-230zM246 1679q32 69 98 118q66 48 137 48q77 0 148 -42t121 -42q68 0 135 82l116 -96q-32 -69 -98 -118q-65 -48 -137 -48q-78 0 -149 42q-70 42 -119 42q-69 0 -136 -82zM434 569h377l-188 580z" />
    <glyph glyph-name="Adieresis" unicode="&#xc4;" horiz-adv-x="1245" 
d="M18 0l498 1434h213l498 -1434h-230l-118 356h-512l-119 -356h-230zM340 1642q-37 37 -37 92q0 56 37 93t92 37t92 -37t37 -93q0 -55 -37 -92q-38 -36 -92 -36t-92 36zM434 569h377l-188 580zM721 1642q-37 37 -37 92q0 56 37 93t92 37t92 -37t37 -93q0 -55 -37 -92
q-37 -36 -92 -36t-92 36z" />
    <glyph glyph-name="Aring" unicode="&#xc5;" horiz-adv-x="1245" 
d="M18 0l498 1434h213l498 -1434h-230l-118 356h-512l-119 -356h-230zM416 1739q0 87 59 148q60 61 148 61q90 0 148 -61q58 -59 58 -148q0 -86 -58 -144q-59 -57 -148 -57t-148 58q-59 59 -59 143zM434 569h377l-188 580zM549 1741q0 -33 20.5 -54.5t52.5 -21.5
q33 0 53.5 21.5t20.5 54.5q0 35 -20.5 57.5t-53.5 22.5q-32 0 -52.5 -22.5t-20.5 -57.5z" />
    <glyph glyph-name="AE" unicode="&#xc6;" horiz-adv-x="1736" 
d="M20 0l619 1434h977v-213h-625v-353h504v-213h-504v-442h645v-213h-870v356h-367l-149 -356h-230zM489 569h277v580h-35z" />
    <glyph glyph-name="Ccedilla" unicode="&#xc7;" horiz-adv-x="1423" 
d="M768 1450q224 0 374 -114q151 -115 206 -320l-213 -53q-55 141 -141 207q-85 67 -226 67q-190 0 -312 -134t-122 -386t122 -386t312 -134q140 0 226 66q86 68 141 208l213 -53q-56 -207 -205 -321q-151 -113 -375 -113q-277 0 -470 193q-194 194 -194 540q0 345 194 539
t470 194zM524 -399l254 276h166l-172 -391z" />
    <glyph glyph-name="Egrave" unicode="&#xc8;" horiz-adv-x="1163" 
d="M193 0v1434h849v-213h-624v-353h504v-213h-504v-442h645v-213h-870zM336 1851h289l139 -303h-164z" />
    <glyph glyph-name="Eacute" unicode="&#xc9;" horiz-adv-x="1163" 
d="M193 0v1434h849v-213h-624v-353h504v-213h-504v-442h645v-213h-870zM465 1548l139 303h289l-264 -303h-164z" />
    <glyph glyph-name="Ecircumflex" unicode="&#xca;" horiz-adv-x="1163" 
d="M193 0v1434h849v-213h-624v-353h504v-213h-504v-442h645v-213h-870zM260 1561l332 360h61l332 -360h-205l-157 163l-158 -163h-205z" />
    <glyph glyph-name="Edieresis" unicode="&#xcb;" horiz-adv-x="1163" 
d="M193 0v1434h849v-213h-624v-353h504v-213h-504v-442h645v-213h-870zM342 1642q-37 37 -37 92q0 56 37 93t92 37t92 -37t37 -93q0 -55 -37 -92q-37 -36 -92 -36q-54 0 -92 36zM723 1642q-37 37 -37 92q0 56 37 93t92 37t92 -37t37 -93q0 -55 -37 -92q-38 -36 -92 -36
q-55 0 -92 36z" />
    <glyph glyph-name="Igrave" unicode="&#xcc;" horiz-adv-x="610" 
d="M41 1851h289l139 -303h-164zM193 0v1434h225v-1434h-225z" />
    <glyph glyph-name="Iacute" unicode="&#xcd;" horiz-adv-x="610" 
d="M143 1548l140 303h288l-264 -303h-164zM193 0v1434h225v-1434h-225z" />
    <glyph glyph-name="Icircumflex" unicode="&#xce;" horiz-adv-x="610" 
d="M-45 1561l332 360h61l332 -360h-205l-158 163l-157 -163h-205zM193 0v1434h225v-1434h-225z" />
    <glyph glyph-name="Idieresis" unicode="&#xcf;" horiz-adv-x="610" 
d="M22 1642q-36 36 -36 92t36 93q37 37 92 37q56 0 93 -37t37 -93q0 -55 -37 -92q-37 -36 -93 -36t-92 36zM193 0v1434h225v-1434h-225zM403 1642q-36 36 -36 92t36 93q37 37 92 37q56 0 93 -37t37 -93q0 -55 -37 -92q-38 -36 -93 -36q-56 0 -92 36z" />
    <glyph glyph-name="Eth" unicode="&#xd0;" horiz-adv-x="1411" 
d="M57 623v188h168v623h422q277 0 468 -187q192 -186 192 -530q0 -343 -192 -531q-191 -186 -468 -186h-422v623h-168zM451 213h131q203 0 340 104q155 120 155 399q0 140 -40.5 242t-114.5 158q-138 105 -340 105h-131v-410h167v-188h-167v-410z" />
    <glyph glyph-name="Ntilde" unicode="&#xd1;" horiz-adv-x="1439" 
d="M193 0v1434h241l588 -1033v1033h225v-1434h-241l-588 1028v-1028h-225zM342 1679q32 69 98 118q66 48 138 48q78 0 148 -42t120 -42q68 0 135 82l117 -96q-33 -70 -99 -118q-65 -48 -137 -48q-78 0 -149 42t-119 42q-68 0 -135 -82z" />
    <glyph glyph-name="Ograve" unicode="&#xd2;" horiz-adv-x="1523" 
d="M293 175q-189 190 -189 542q0 351 189 541q191 192 468 192t468 -192q190 -190 190 -541t-190 -542q-189 -191 -468 -191q-277 0 -468 191zM456 1104q-122 -134 -122 -387t122 -387q121 -133 306 -133t306 133q122 134 122 387t-122 387q-121 133 -306 133t-306 -133z
M494 1851h288l140 -303h-164z" />
    <glyph glyph-name="Oacute" unicode="&#xd3;" horiz-adv-x="1523" 
d="M293 175q-189 190 -189 542q0 351 189 541q191 192 468 192t468 -192q190 -190 190 -541t-190 -542q-189 -191 -468 -191q-277 0 -468 191zM456 1104q-122 -134 -122 -387t122 -387q121 -133 306 -133t306 133q122 134 122 387t-122 387q-121 133 -306 133t-306 -133z
M616 1548l140 303h288l-264 -303h-164z" />
    <glyph glyph-name="Ocircumflex" unicode="&#xd4;" horiz-adv-x="1523" 
d="M293 175q-189 190 -189 542q0 351 189 541q191 192 468 192t468 -192q190 -190 190 -541t-190 -542q-189 -191 -468 -191q-277 0 -468 191zM456 1104q-122 -134 -122 -387t122 -387q121 -133 306 -133t306 133q122 134 122 387t-122 387q-121 133 -306 133t-306 -133z
M399 1561l332 360h62l331 -360h-204l-158 163l-158 -163h-205z" />
    <glyph glyph-name="Otilde" unicode="&#xd5;" horiz-adv-x="1523" 
d="M293 175q-189 190 -189 542q0 351 189 541q191 192 468 192t468 -192q190 -190 190 -541t-190 -542q-189 -191 -468 -191q-277 0 -468 191zM456 1104q-122 -134 -122 -387t122 -387q121 -133 306 -133t306 133q122 134 122 387t-122 387q-121 133 -306 133t-306 -133z
M385 1679q32 69 98 118q66 48 138 48q77 0 148 -42t120 -42q68 0 135 82l117 -96q-33 -70 -99 -118q-64 -48 -137 -48q-79 0 -149 42t-119 42q-68 0 -135 -82z" />
    <glyph glyph-name="Odieresis" unicode="&#xd6;" horiz-adv-x="1523" 
d="M293 175q-189 190 -189 542q0 351 189 541q191 192 468 192t468 -192q190 -190 190 -541t-190 -542q-189 -191 -468 -191q-277 0 -468 191zM456 1104q-122 -134 -122 -387t122 -387q121 -133 306 -133t306 133q122 134 122 387t-122 387q-121 133 -306 133t-306 -133z
M481 1642q-37 37 -37 92q0 56 37 93t92 37q56 0 92 -37q37 -37 37 -93q0 -55 -37 -92q-36 -36 -92 -36q-55 0 -92 36zM862 1642q-37 37 -37 92q0 56 37 93t92 37q56 0 92 -37q37 -37 37 -93q0 -55 -37 -92q-36 -36 -92 -36q-54 0 -92 36z" />
    <glyph glyph-name="multiply" unicode="&#xd7;" horiz-adv-x="1155" 
d="M131 332l313 315l-313 316l133 133l314 -314l313 314l133 -133l-313 -316l313 -315l-133 -133l-313 313l-314 -313z" />
    <glyph glyph-name="Oslash" unicode="&#xd8;" horiz-adv-x="1523" 
d="M104 717q0 351 189 541q190 192 469 192q202 0 366 -107l125 162l148 -108l-137 -178q155 -194 155 -502q-2 -352 -190 -542q-189 -191 -467 -191q-204 0 -367 106l-125 -162l-147 109l137 178q-156 195 -156 502zM334 717q0 -181 72 -314l587 766q-101 68 -231 68
q-185 0 -306 -133q-122 -134 -122 -387zM530 264q101 -67 232 -67q186 2 306 133q122 134 122 387q0 185 -72 313z" />
    <glyph glyph-name="Ugrave" unicode="&#xd9;" horiz-adv-x="1339" 
d="M154 516v918h225v-928q0 -148 74 -228.5t216 -80.5q143 0 217.5 80t74.5 229v928h225v-918q0 -253 -145 -392q-145 -140 -372 -140t-371 141t-144 391zM391 1851h289l139 -303h-164z" />
    <glyph glyph-name="Uacute" unicode="&#xda;" horiz-adv-x="1339" 
d="M154 516v918h225v-928q0 -148 74 -228.5t216 -80.5q143 0 217.5 80t74.5 229v928h225v-918q0 -253 -145 -392q-145 -140 -372 -140t-371 141t-144 391zM514 1548l139 303h289l-264 -303h-164z" />
    <glyph glyph-name="Ucircumflex" unicode="&#xdb;" horiz-adv-x="1339" 
d="M154 516v918h225v-928q0 -148 74 -228.5t216 -80.5q143 0 217.5 80t74.5 229v928h225v-918q0 -253 -145 -392q-145 -140 -372 -140t-371 141t-144 391zM307 1561l332 360h61l332 -360h-205l-157 163l-158 -163h-205z" />
    <glyph glyph-name="Udieresis" unicode="&#xdc;" horiz-adv-x="1339" 
d="M154 516v918h225v-928q0 -148 74 -228.5t216 -80.5q143 0 217.5 80t74.5 229v928h225v-918q0 -253 -145 -392q-145 -140 -372 -140t-371 141t-144 391zM389 1642q-37 37 -37 92q0 56 37 93t92 37q56 0 92 -37q37 -37 37 -93q0 -55 -37 -92q-36 -36 -92 -36q-55 0 -92 36z
M770 1642q-37 37 -37 92q0 56 37 93t92 37q56 0 92 -37q37 -37 37 -93q0 -55 -37 -92q-36 -36 -92 -36q-54 0 -92 36z" />
    <glyph glyph-name="Yacute" unicode="&#xdd;" horiz-adv-x="1052" 
d="M4 1434h240l282 -596l283 596h240l-410 -820v-614h-225v614zM358 1548l140 303h288l-264 -303h-164z" />
    <glyph glyph-name="Thorn" unicode="&#xde;" horiz-adv-x="1206" 
d="M193 0v1434h225v-293h289q209 0 326 -119q118 -118 118 -306q0 -187 -118 -305t-326 -118h-289v-293h-225zM418 506h299q96 0 150.5 55.5t54.5 154.5q0 101 -54.5 156.5t-150.5 55.5h-299v-422z" />
    <glyph glyph-name="germandbls" unicode="&#xdf;" horiz-adv-x="1146" 
d="M72 690v189h98v174q0 195 113 296q115 101 288 101q193 0 290 -106q97 -104 97 -267q0 -109 -52 -176q-53 -68 -122 -90q132 -41 205.5 -135.5t73.5 -241.5q0 -229 -119 -340q-119 -110 -330 -110q-81 0 -141 16v188q80 -16 141 -16q238 0 238 256q0 262 -256 262h-80
v189h55q89 0 138 50.5t49 141.5t-50.5 141t-136.5 50q-87 0 -137.5 -58.5t-50.5 -165.5v-1038h-213v690h-98z" />
    <glyph glyph-name="agrave" unicode="&#xe0;" horiz-adv-x="1052" 
d="M90 297q0 158 123 248t324 90h178v45q0 89 -54.5 134.5t-146.5 45.5q-141 0 -192 -137l-195 41q33 131 137 208q106 77 252 77q412 0 412 -408v-641h-180l-21 135q-110 -152 -319 -151q-137 0 -228 79q-90 79 -90 234zM242 1450h288l140 -303h-164zM315 297
q0 -56 34 -90.5t95 -34.5q108 0 190 68q81 69 81 194v23h-187q-98 0 -155.5 -43t-57.5 -117z" />
    <glyph glyph-name="aacute" unicode="&#xe1;" horiz-adv-x="1052" 
d="M90 297q0 158 123 248t324 90h178v45q0 89 -54.5 134.5t-146.5 45.5q-141 0 -192 -137l-195 41q33 131 137 208q106 77 252 77q412 0 412 -408v-641h-180l-21 135q-110 -152 -319 -151q-137 0 -228 79q-90 79 -90 234zM315 297q0 -56 34 -90.5t95 -34.5q108 0 190 68
q81 69 81 194v23h-187q-98 0 -155.5 -43t-57.5 -117zM358 1147l140 303h288l-264 -303h-164z" />
    <glyph glyph-name="acircumflex" unicode="&#xe2;" horiz-adv-x="1052" 
d="M90 297q0 158 123 248t324 90h178v45q0 89 -54.5 134.5t-146.5 45.5q-141 0 -192 -137l-195 41q33 131 137 208q106 77 252 77q412 0 412 -408v-641h-180l-21 135q-110 -152 -319 -151q-137 0 -228 79q-90 79 -90 234zM164 1159l332 361h61l332 -361h-205l-158 164
l-157 -164h-205zM315 297q0 -56 34 -90.5t95 -34.5q108 0 190 68q81 69 81 194v23h-187q-98 0 -155.5 -43t-57.5 -117z" />
    <glyph glyph-name="atilde" unicode="&#xe3;" horiz-adv-x="1052" 
d="M90 297q0 158 123 248t324 90h178v45q0 89 -54.5 134.5t-146.5 45.5q-141 0 -192 -137l-195 41q33 131 137 208q106 77 252 77q412 0 412 -408v-641h-180l-21 135q-110 -152 -319 -151q-137 0 -228 79q-90 79 -90 234zM135 1278q32 69 98 118q66 48 138 48q77 0 148 -42
t120 -42q68 0 135 82l117 -96q-33 -70 -99 -118q-64 -48 -137 -48q-79 0 -149 42q-71 42 -119 42q-68 0 -135 -82zM315 297q0 -56 34 -90.5t95 -34.5q108 0 190 68q81 69 81 194v23h-187q-98 0 -155.5 -43t-57.5 -117z" />
    <glyph glyph-name="adieresis" unicode="&#xe4;" horiz-adv-x="1052" 
d="M90 297q0 158 123 248t324 90h178v45q0 89 -54.5 134.5t-146.5 45.5q-141 0 -192 -137l-195 41q33 131 137 208q106 77 252 77q412 0 412 -408v-641h-180l-21 135q-110 -152 -319 -151q-137 0 -228 79q-90 79 -90 234zM242 1241q-37 37 -37 92q0 56 37 92q37 37 92 37
t92 -37q37 -36 37 -92q0 -55 -37 -92t-92 -37t-92 37zM315 297q0 -56 34 -90.5t95 -34.5q108 0 190 68q81 69 81 194v23h-187q-98 0 -155.5 -43t-57.5 -117zM622 1241q-36 37 -36 92q0 56 36 92q37 37 92 37q56 0 93 -37q37 -36 37 -92q0 -55 -37 -92t-93 -37q-55 0 -92 37z
" />
    <glyph glyph-name="aring" unicode="&#xe5;" horiz-adv-x="1052" 
d="M90 297q0 158 123 248t324 90h178v45q0 89 -54.5 134.5t-146.5 45.5q-141 0 -192 -137l-195 41q33 131 137 208q106 77 252 77q412 0 412 -408v-641h-180l-21 135q-110 -152 -319 -151q-137 0 -228 79q-90 79 -90 234zM309 1337q0 87 59 148q60 61 148 61q90 0 148 -61
q59 -61 59 -148q0 -86 -59 -143q-58 -57 -148 -57q-89 0 -148 58q-59 59 -59 142zM315 297q0 -56 34 -90.5t95 -34.5q108 0 190 68q81 69 81 194v23h-187q-98 0 -155.5 -43t-57.5 -117zM442 1339q0 -33 20.5 -54t53.5 -21t53.5 21t20.5 54q0 35 -20.5 57.5t-53.5 22.5
t-53.5 -22.5t-20.5 -57.5z" />
    <glyph glyph-name="ae" unicode="&#xe6;" horiz-adv-x="1759" 
d="M90 297q0 158 123 248t324 90h178v45q0 93 -59 137q-58 43 -148 43q-152 0 -197 -135l-180 39q29 131 128 208q100 77 249 77q243 0 346 -142q131 142 342 142q116 1 210.5 -44t151.5 -121q113 -150 113 -335v-92h-731q0 -121 67 -203t189 -82q87 0 159 46.5t111 127.5
l183 -72q-79 -153 -181 -221q-102 -69 -272 -69q-279 0 -408 231q-112 -231 -380 -231q-137 0 -228 79q-90 79 -90 234zM315 297q0 -56 34 -90.5t95 -34.5q108 0 190 68q81 69 81 194v31h-187q-96 0 -155 -47q-58 -46 -58 -121zM944 635h502q-13 95 -78 160q-63 65 -172 65
q-102 0 -168 -63q-66 -61 -84 -162z" />
    <glyph glyph-name="ccedilla" unicode="&#xe7;" horiz-adv-x="1110" 
d="M586 1049q322 0 446 -285l-190 -82q-79 178 -256 178q-132 0 -196 -94t-64 -250t64 -250t196 -94q177 0 256 178l190 -82q-125 -286 -446 -284q-234 0 -360 152q-126 151 -126 380q0 227 126 380t360 153zM342 -399l254 276h166l-172 -391z" />
    <glyph glyph-name="egrave" unicode="&#xe8;" horiz-adv-x="1144" 
d="M582 1049q117 0 211.5 -44.5t150.5 -120.5q113 -150 113 -335v-92h-731q0 -121 67 -203t189 -82q87 0 159 46.5t111 127.5l182 -72q-78 -152 -180 -221t-272 -69q-120 0 -216.5 47t-152.5 128q-113 163 -113 357q0 196 113 357q56 81 152.5 128.5t216.5 47.5zM287 1450
h288l140 -303h-164zM330 635h501q-13 95 -78 160q-63 65 -171 65q-102 0 -168 -63q-66 -61 -84 -162z" />
    <glyph glyph-name="eacute" unicode="&#xe9;" horiz-adv-x="1144" 
d="M582 1049q117 0 211.5 -44.5t150.5 -120.5q113 -150 113 -335v-92h-731q0 -121 67 -203t189 -82q87 0 159 46.5t111 127.5l182 -72q-78 -152 -180 -221t-272 -69q-120 0 -216.5 47t-152.5 128q-113 163 -113 357q0 196 113 357q56 81 152.5 128.5t216.5 47.5zM330 635
h501q-13 95 -78 160q-63 65 -171 65q-102 0 -168 -63q-66 -61 -84 -162zM422 1147l139 303h289l-264 -303h-164z" />
    <glyph glyph-name="ecircumflex" unicode="&#xea;" horiz-adv-x="1144" 
d="M582 1049q117 0 211.5 -44.5t150.5 -120.5q113 -150 113 -335v-92h-731q0 -121 67 -203t189 -82q87 0 159 46.5t111 127.5l182 -72q-78 -152 -180 -221t-272 -69q-120 0 -216.5 47t-152.5 128q-113 163 -113 357q0 196 113 357q56 81 152.5 128.5t216.5 47.5zM219 1159
l332 361h61l332 -361h-205l-157 164l-158 -164h-205zM330 635h501q-13 95 -78 160q-63 65 -171 65q-102 0 -168 -63q-66 -61 -84 -162z" />
    <glyph glyph-name="edieresis" unicode="&#xeb;" horiz-adv-x="1144" 
d="M582 1049q117 0 211.5 -44.5t150.5 -120.5q113 -150 113 -335v-92h-731q0 -121 67 -203t189 -82q87 0 159 46.5t111 127.5l182 -72q-78 -152 -180 -221t-272 -69q-120 0 -216.5 47t-152.5 128q-113 163 -113 357q0 196 113 357q56 81 152.5 128.5t216.5 47.5zM299 1241
q-37 37 -37 92q0 56 37 92q37 37 92 37t92 -37q37 -36 37 -92q0 -55 -37 -92t-92 -37t-92 37zM330 635h501q-13 95 -78 160q-63 65 -171 65q-102 0 -168 -63q-66 -61 -84 -162zM680 1241q-37 37 -37 92q0 56 37 92q37 37 92 37t92 -37q37 -36 37 -92q0 -55 -37 -92t-92 -37
t-92 37z" />
    <glyph glyph-name="igrave" unicode="&#xec;" horiz-adv-x="544" 
d="M-2 1450h289l139 -303h-164zM166 0v1032h213v-1032h-213z" />
    <glyph glyph-name="iacute" unicode="&#xed;" horiz-adv-x="544" 
d="M121 1147l139 303h289l-264 -303h-164zM166 0v1032h213v-1032h-213z" />
    <glyph glyph-name="icircumflex" unicode="&#xee;" horiz-adv-x="544" 
d="M-88 1159l332 361h61l332 -361h-205l-158 164l-157 -164h-205zM166 0v1032h213v-1032h-213z" />
    <glyph glyph-name="idieresis" unicode="&#xef;" horiz-adv-x="544" 
d="M-10 1241q-37 37 -37 92q0 56 37 92q37 37 92 37t92 -37q37 -36 37 -92q0 -55 -37 -92t-92 -37t-92 37zM166 0v1032h213v-1032h-213zM371 1241q-37 37 -37 92q0 56 37 92q37 37 92 37t92 -37q37 -36 37 -92q0 -55 -37 -92t-92 -37t-92 37z" />
    <glyph glyph-name="eth" unicode="&#xf0;" horiz-adv-x="1191" 
d="M596 1049q117 0 188 -56q-53 118 -186 215l-72 -106l-139 98l68 98q-54 30 -168 82l104 156q111 -50 168 -84l72 107l139 -99l-70 -100q390 -301 392 -844q0 -228 -133 -380q-132 -152 -363 -152q-232 0 -364 152q-132 151 -132 380q0 227 132 380q134 153 364 153z
M395 759q-69 -101 -69 -243q0 -144 69 -244q70 -100 201 -100t200 100q70 100 70 244q0 143 -70 243q-69 101 -200 101q-130 0 -201 -101z" />
    <glyph glyph-name="ntilde" unicode="&#xf1;" 
d="M176 0v1032h213v-176q54 92 142.5 142.5t191.5 50.5q137 0 220 -81t83 -229v-739h-213v672q0 188 -160 188q-105 0 -185 -120q-79 -118 -79 -322v-418h-213zM242 1278q32 69 98 118q66 48 137 48q77 0 148 -42t120 -42q69 0 136 82l116 -96q-32 -69 -98 -118
q-65 -48 -137 -48q-78 0 -149 42q-70 42 -119 42q-69 0 -136 -82z" />
    <glyph glyph-name="ograve" unicode="&#xf2;" horiz-adv-x="1216" 
d="M238 137q-138 153 -138 379q0 224 138 379q139 154 370 154q232 0 370 -154q138 -155 138 -379t-138 -379q-138 -153 -370 -153t-370 153zM400 758q-74 -101 -74 -242q0 -142 74 -243t208 -101q133 0 208 101q75 102 75 243q0 142 -75 242q-75 102 -208 102t-208 -102z
M352 1450h289l139 -303h-164z" />
    <glyph glyph-name="oacute" unicode="&#xf3;" horiz-adv-x="1216" 
d="M238 137q-138 153 -138 379q0 224 138 379q139 154 370 154q232 0 370 -154q138 -155 138 -379t-138 -379q-138 -153 -370 -153t-370 153zM400 758q-74 -101 -74 -242q0 -142 74 -243t208 -101q133 0 208 101q75 102 75 243q0 142 -75 242q-75 102 -208 102t-208 -102z
M451 1147l139 303h289l-265 -303h-163z" />
    <glyph glyph-name="ocircumflex" unicode="&#xf4;" horiz-adv-x="1216" 
d="M238 137q-138 153 -138 379q0 224 138 379q139 154 370 154q232 0 370 -154q138 -155 138 -379t-138 -379q-138 -153 -370 -153t-370 153zM246 1159l332 361h61l332 -361h-205l-158 164l-157 -164h-205zM400 758q-74 -101 -74 -242q0 -142 74 -243t208 -101
q133 0 208 101q75 102 75 243q0 142 -75 242q-75 102 -208 102t-208 -102z" />
    <glyph glyph-name="otilde" unicode="&#xf5;" horiz-adv-x="1216" 
d="M238 137q-138 153 -138 379q0 224 138 379q139 154 370 154q232 0 370 -154q138 -155 138 -379t-138 -379q-138 -153 -370 -153t-370 153zM229 1278q32 69 98 118q66 48 138 48q77 0 148 -42t120 -42q68 0 135 82l117 -96q-33 -70 -99 -118q-64 -48 -136 -48
q-78 0 -149 42t-120 42q-68 0 -135 -82zM400 758q-74 -101 -74 -242q0 -142 74 -243t208 -101q133 0 208 101q75 102 75 243q0 142 -75 242q-75 102 -208 102t-208 -102z" />
    <glyph glyph-name="odieresis" unicode="&#xf6;" horiz-adv-x="1216" 
d="M238 137q-138 153 -138 379q0 224 138 379q139 154 370 154q232 0 370 -154q138 -155 138 -379t-138 -379q-138 -153 -370 -153t-370 153zM325 1241q-36 37 -36 92q0 56 36 92q37 37 92 37q56 0 93 -37q37 -36 37 -92q0 -55 -37 -92t-93 -37q-55 0 -92 37zM400 758
q-74 -101 -74 -242q0 -142 74 -243t208 -101q133 0 208 101q75 102 75 243q0 142 -75 242q-75 102 -208 102t-208 -102zM706 1241q-36 37 -36 92q0 56 36 92q37 37 92 37q56 0 93 -37q37 -36 37 -92q0 -55 -37 -92t-93 -37q-55 0 -92 37z" />
    <glyph glyph-name="divide" unicode="&#xf7;" horiz-adv-x="1095" 
d="M92 555v188h912v-188h-912zM439 155q-44 44 -44 107q0 64 44 108t107 44q64 0 108 -44t44 -108q0 -63 -44 -107t-108 -44q-63 0 -107 44zM439 916q-44 46 -44 108q0 63 44 107q43 45 107 45t108 -45q44 -44 44 -107q0 -62 -44 -108q-44 -44 -108 -44q-63 0 -107 44z" />
    <glyph glyph-name="oslash" unicode="&#xf8;" horiz-adv-x="1216" 
d="M92 8l123 158q-115 146 -115 350q0 224 138 379q139 154 370 154q139 0 252 -62l115 148l149 -111l-123 -158q115 -146 115 -350q0 -224 -138 -379q-138 -153 -370 -153q-140 0 -252 61l-114 -147zM326 516q0 -84 32 -168l377 479q-59 33 -127 33q-133 0 -208 -102
q-74 -101 -74 -242zM481 205q59 -33 127 -33q133 0 208 101q75 102 75 243q0 86 -33 168z" />
    <glyph glyph-name="ugrave" unicode="&#xf9;" 
d="M162 293v739h213v-672q0 -188 160 -188q105 0 185 120q79 119 79 322v418h213v-1032h-213v176q-54 -91 -142.5 -141.5t-191.5 -50.5q-138 0 -220 81q-83 81 -83 228zM330 1450h288l140 -303h-164z" />
    <glyph glyph-name="uacute" unicode="&#xfa;" 
d="M162 293v739h213v-672q0 -188 160 -188q105 0 185 120q79 119 79 322v418h213v-1032h-213v176q-54 -91 -142.5 -141.5t-191.5 -50.5q-138 0 -220 81q-83 81 -83 228zM414 1147l139 303h289l-264 -303h-164z" />
    <glyph glyph-name="ucircumflex" unicode="&#xfb;" 
d="M162 293v739h213v-672q0 -188 160 -188q105 0 185 120q79 119 79 322v418h213v-1032h-213v176q-54 -91 -142.5 -141.5t-191.5 -50.5q-138 0 -220 81q-83 81 -83 228zM199 1159l331 361h62l332 -361h-205l-158 164l-158 -164h-204z" />
    <glyph glyph-name="udieresis" unicode="&#xfc;" 
d="M162 293v739h213v-672q0 -188 160 -188q105 0 185 120q79 119 79 322v418h213v-1032h-213v176q-54 -91 -142.5 -141.5t-191.5 -50.5q-138 0 -220 81q-83 81 -83 228zM311 1241q-37 37 -37 92q0 56 37 92q37 37 92 37t92 -37t37 -92t-37 -92q-36 -37 -92 -37q-55 0 -92 37
zM692 1241q-37 37 -37 92q0 56 37 92q37 37 92 37t92 -37t37 -92t-37 -92q-36 -37 -92 -37q-55 0 -92 37z" />
    <glyph glyph-name="yacute" unicode="&#xfd;" horiz-adv-x="960" 
d="M16 1032h226l243 -694l236 694h225l-522 -1450h-213l168 469zM328 1147l139 303h289l-264 -303h-164z" />
    <glyph glyph-name="thorn" unicode="&#xfe;" horiz-adv-x="1230" 
d="M176 -418v1868h213v-532q37 51 119 91q81 40 158 40q226 0 345 -144q119 -143 119 -389q0 -253 -118 -392q-117 -140 -342 -140q-94 0 -173 42t-108 93v-537h-213zM450 767q-73 -92 -73 -251t73 -251q74 -93 191 -93t190 93q74 94 74 251t-74 251q-73 93 -190 93
t-191 -93z" />
    <glyph glyph-name="ydieresis" unicode="&#xff;" horiz-adv-x="960" 
d="M16 1032h226l243 -694l236 694h225l-522 -1450h-213l168 469zM205 1241q-37 37 -37 92q0 56 37 92q37 37 92 37t92 -37q37 -36 37 -92q0 -55 -37 -92t-92 -37t-92 37zM586 1241q-37 37 -37 92q0 56 37 92q37 37 92 37t92 -37q37 -36 37 -92q0 -55 -37 -92t-92 -37t-92 37
z" />
    <glyph glyph-name="Amacron" unicode="&#x100;" horiz-adv-x="1245" 
d="M18 0l498 1434h213l498 -1434h-230l-118 356h-512l-119 -356h-230zM360 1647v188h527v-188h-527zM434 569h377l-188 580z" />
    <glyph glyph-name="amacron" unicode="&#x101;" horiz-adv-x="1052" 
d="M90 297q0 158 123 248t324 90h178v45q0 89 -54.5 134.5t-146.5 45.5q-141 0 -192 -137l-195 41q33 131 137 208q106 77 252 77q412 0 412 -408v-641h-180l-21 135q-110 -152 -319 -151q-137 0 -228 79q-90 79 -90 234zM270 1245v189h527v-189h-527zM315 297
q0 -56 34 -90.5t95 -34.5q108 0 190 68q81 69 81 194v23h-187q-98 0 -155.5 -43t-57.5 -117z" />
    <glyph glyph-name="Abreve" unicode="&#x102;" horiz-adv-x="1245" 
d="M18 0l498 1434h213l498 -1434h-230l-118 356h-512l-119 -356h-230zM387 1835h166q0 -32 20 -52t50 -20q31 0 50 19.5t19 52.5h166q0 -92 -67 -158q-67 -65 -169 -65q-103 0 -169 65t-66 158zM434 569h377l-188 580z" />
    <glyph glyph-name="abreve" unicode="&#x103;" horiz-adv-x="1052" 
d="M90 297q0 158 123 248t324 90h178v45q0 89 -54.5 134.5t-146.5 45.5q-141 0 -192 -137l-195 41q33 131 137 208q106 77 252 77q412 0 412 -408v-641h-180l-21 135q-110 -152 -319 -151q-137 0 -228 79q-90 79 -90 234zM297 1434h166q0 -32 20 -52t49 -20q31 0 50.5 19.5
t19.5 52.5h166q0 -92 -67 -158q-66 -66 -169 -66q-102 0 -169 66q-66 66 -66 158zM315 297q0 -56 34 -90.5t95 -34.5q108 0 190 68q81 69 81 194v23h-187q-98 0 -155.5 -43t-57.5 -117z" />
    <glyph glyph-name="Aogonek" unicode="&#x104;" horiz-adv-x="1245" 
d="M18 0l498 1434h213l498 -1434q-115 -100 -115 -162q0 -59 57 -59q31 0 50 18q19 17 57 66l98 -80q-53 -80 -104 -116t-127 -36q-86 0 -136.5 46.5t-50.5 127.5q0 111 129 195h-88l-118 356h-512l-119 -356h-230zM434 569h377l-188 580z" />
    <glyph glyph-name="aogonek" unicode="&#x105;" horiz-adv-x="1052" 
d="M90 297q0 158 123 248t324 90h178v45q0 89 -54.5 134.5t-146.5 45.5q-141 0 -192 -137l-195 41q33 131 137 208q106 77 252 77q412 0 412 -408v-641q-115 -100 -115 -162q0 -59 57 -59q30 0 50 18q20 17 57 66l98 -80q-53 -80 -104 -116t-127 -36q-86 0 -136.5 46.5
t-50.5 127.5q0 113 117 195l-47 135q-110 -152 -319 -151q-137 0 -228 79q-90 79 -90 234zM315 297q0 -56 34 -90.5t95 -34.5q108 0 190 68q81 69 81 194v23h-187q-98 0 -155.5 -43t-57.5 -117z" />
    <glyph glyph-name="Cacute" unicode="&#x106;" horiz-adv-x="1423" 
d="M768 1450q224 0 374 -114q151 -115 206 -320l-213 -53q-55 141 -141 207q-85 67 -226 67q-190 0 -312 -134t-122 -386t122 -386t312 -134q140 0 226 66q86 68 141 208l213 -53q-56 -207 -205 -321q-151 -113 -375 -113q-277 0 -470 193q-194 194 -194 540q0 345 194 539
t470 194zM625 1548l139 303h289l-265 -303h-163z" />
    <glyph glyph-name="cacute" unicode="&#x107;" horiz-adv-x="1110" 
d="M586 1049q322 0 446 -285l-190 -82q-79 178 -256 178q-132 0 -196 -94t-64 -250t64 -250t196 -94q177 0 256 178l190 -82q-125 -286 -446 -284q-234 0 -360 152q-126 151 -126 380q0 227 126 380t360 153zM422 1147l139 303h289l-264 -303h-164z" />
    <glyph glyph-name="Ccircumflex" unicode="&#x108;" horiz-adv-x="1423" 
d="M768 1450q224 0 374 -114q151 -115 206 -320l-213 -53q-55 141 -141 207q-85 67 -226 67q-190 0 -312 -134t-122 -386t122 -386t312 -134q140 0 226 66q86 68 141 208l213 -53q-56 -207 -205 -321q-151 -113 -375 -113q-277 0 -470 193q-194 194 -194 540q0 345 194 539
t470 194zM412 1561l331 360h62l332 -360h-205l-158 163l-158 -163h-204z" />
    <glyph glyph-name="ccircumflex" unicode="&#x109;" horiz-adv-x="1110" 
d="M586 1049q322 0 446 -285l-190 -82q-79 178 -256 178q-132 0 -196 -94t-64 -250t64 -250t196 -94q177 0 256 178l190 -82q-125 -286 -446 -284q-234 0 -360 152q-126 151 -126 380q0 227 126 380t360 153zM223 1159l332 361h61l332 -361h-205l-157 164l-158 -164h-205z
" />
    <glyph glyph-name="Cdotaccent" unicode="&#x10a;" horiz-adv-x="1423" 
d="M768 1450q224 0 374 -114q151 -115 206 -320l-213 -53q-55 141 -141 207q-85 67 -226 67q-190 0 -312 -134t-122 -386t122 -386t312 -134q140 0 226 66q86 68 141 208l213 -53q-56 -207 -205 -321q-151 -113 -375 -113q-277 0 -470 193q-194 194 -194 540q0 345 194 539
t470 194zM663 1621q-42 42 -42 103q0 63 43 106q44 44 104 44t104 -44q43 -43 43 -106q0 -61 -42 -103t-105 -42t-105 42z" />
    <glyph glyph-name="cdotaccent" unicode="&#x10b;" horiz-adv-x="1110" 
d="M586 1049q322 0 446 -285l-190 -82q-79 178 -256 178q-132 0 -196 -94t-64 -250t64 -250t196 -94q177 0 256 178l190 -82q-125 -286 -446 -284q-234 0 -360 152q-126 151 -126 380q0 227 126 380t360 153zM480 1220q-42 42 -42 103q0 62 43 105q43 45 104 45t105 -45
q43 -43 43 -105q0 -61 -42 -103t-106 -42q-63 0 -105 42z" />
    <glyph glyph-name="Ccaron" unicode="&#x10c;" horiz-adv-x="1423" 
d="M768 1450q224 0 374 -114q151 -115 206 -320l-213 -53q-55 141 -141 207q-85 67 -226 67q-190 0 -312 -134t-122 -386t122 -386t312 -134q140 0 226 66q86 68 141 208l213 -53q-56 -207 -205 -321q-151 -113 -375 -113q-277 0 -470 193q-194 194 -194 540q0 345 194 539
t470 194zM406 1921h204l158 -164l158 164h204l-331 -360h-62z" />
    <glyph glyph-name="ccaron" unicode="&#x10d;" horiz-adv-x="1110" 
d="M586 1049q322 0 446 -285l-190 -82q-79 178 -256 178q-132 0 -196 -94t-64 -250t64 -250t196 -94q177 0 256 178l190 -82q-125 -286 -446 -284q-234 0 -360 152q-126 151 -126 380q0 227 126 380t360 153zM223 1520h205l158 -164l157 164h205l-332 -361h-61z" />
    <glyph glyph-name="Dcaron" unicode="&#x10e;" horiz-adv-x="1378" 
d="M193 0v1434h421q277 0 468 -187q192 -186 192 -530q0 -343 -192 -531q-190 -186 -468 -186h-421zM217 1921h205l158 -164l157 164h205l-332 -360h-61zM418 213h131q205 0 341 104q74 56 114 158t40 241q0 140 -40 242t-114 158q-140 105 -341 105h-131v-1008z" />
    <glyph glyph-name="dcaron" unicode="&#x10f;" horiz-adv-x="1611" 
d="M100 516q0 246 119 389q119 144 346 144q77 0 158 -40q82 -40 119 -91v532h213v-1450h-213v119q-28 -51 -108 -93t-173 -42q-224 0 -343 140q-118 139 -118 392zM399 767q-73 -92 -73 -251t73 -251q73 -93 191 -93q116 0 190 93q74 94 74 251t-74 251q-74 93 -190 93
q-118 0 -191 -93zM1153 995l152 455h292l-284 -455h-160z" />
    <glyph glyph-name="Dcroat" unicode="&#x110;" horiz-adv-x="1378" 
d="M57 623v188h168v623h422q277 0 468 -187q192 -186 192 -530q0 -343 -192 -531q-191 -186 -468 -186h-422v623h-168zM451 213h131q203 0 340 104q155 120 155 399q0 140 -40.5 242t-114.5 158q-138 105 -340 105h-131v-410h167v-188h-167v-410z" />
    <glyph glyph-name="dslash" unicode="&#x111;" horiz-adv-x="1230" 
d="M100 516q0 246 119 389q119 144 346 144q77 0 158 -40q82 -40 119 -91v235h-248v172h248v125h213v-125h145v-172h-145v-1153h-213v119q-28 -51 -108 -93t-173 -42q-224 0 -343 140q-118 139 -118 392zM399 767q-73 -92 -73 -251t73 -251q73 -93 191 -93q116 0 190 93
q74 94 74 251t-74 251q-74 93 -190 93q-118 0 -191 -93z" />
    <glyph glyph-name="Emacron" unicode="&#x112;" horiz-adv-x="1163" 
d="M193 0v1434h849v-213h-624v-353h504v-213h-504v-442h645v-213h-870zM360 1647v188h527v-188h-527z" />
    <glyph glyph-name="emacron" unicode="&#x113;" horiz-adv-x="1144" 
d="M582 1049q117 0 211.5 -44.5t150.5 -120.5q113 -150 113 -335v-92h-731q0 -121 67 -203t189 -82q87 0 159 46.5t111 127.5l182 -72q-78 -152 -180 -221t-272 -69q-120 0 -216.5 47t-152.5 128q-113 163 -113 357q0 196 113 357q56 81 152.5 128.5t216.5 47.5zM322 1245
v189h526v-189h-526zM330 635h501q-13 95 -78 160q-63 65 -171 65q-102 0 -168 -63q-66 -61 -84 -162z" />
    <glyph glyph-name="Ebreve" unicode="&#x114;" horiz-adv-x="1163" 
d="M193 0v1434h849v-213h-624v-353h504v-213h-504v-442h645v-213h-870zM367 1835h165q0 -32 20 -52t50 -20q31 0 50.5 19.5t19.5 52.5h166q0 -92 -67 -158q-67 -65 -169 -65q-103 0 -169 65t-66 158z" />
    <glyph glyph-name="ebreve" unicode="&#x115;" horiz-adv-x="1144" 
d="M582 1049q117 0 211.5 -44.5t150.5 -120.5q113 -150 113 -335v-92h-731q0 -121 67 -203t189 -82q87 0 159 46.5t111 127.5l182 -72q-78 -152 -180 -221t-272 -69q-120 0 -216.5 47t-152.5 128q-113 163 -113 357q0 196 113 357q56 81 152.5 128.5t216.5 47.5zM330 635
h501q-13 95 -78 160q-63 65 -171 65q-102 0 -168 -63q-66 -61 -84 -162zM346 1434h166q0 -32 20 -52t50 -20q31 0 50 19.5t19 52.5h166q0 -92 -67 -158q-66 -66 -169 -66q-101 0 -169 66q-66 66 -66 158z" />
    <glyph glyph-name="Edotaccent" unicode="&#x116;" horiz-adv-x="1163" 
d="M193 0v1434h849v-213h-624v-353h504v-213h-504v-442h645v-213h-870zM519 1621q-42 42 -42 103q0 63 43 106q44 44 104 44q61 0 105 -44q43 -43 43 -106q0 -61 -42 -103t-106 -42q-63 0 -105 42z" />
    <glyph glyph-name="edotaccent" unicode="&#x117;" horiz-adv-x="1144" 
d="M582 1049q117 0 211.5 -44.5t150.5 -120.5q113 -150 113 -335v-92h-731q0 -121 67 -203t189 -82q87 0 159 46.5t111 127.5l182 -72q-78 -152 -180 -221t-272 -69q-120 0 -216.5 47t-152.5 128q-113 163 -113 357q0 196 113 357q56 81 152.5 128.5t216.5 47.5zM330 635
h501q-13 95 -78 160q-63 65 -171 65q-102 0 -168 -63q-66 -61 -84 -162zM476 1220q-42 42 -42 103q0 62 43 105q44 45 104 45q61 0 105 -45q43 -43 43 -105q0 -61 -42 -103t-106 -42q-63 0 -105 42z" />
    <glyph glyph-name="Eogonek" unicode="&#x118;" horiz-adv-x="1163" 
d="M193 0v1434h849v-213h-624v-353h504v-213h-504v-442h645v-213q-115 -100 -115 -162q0 -59 58 -59q30 0 50 18q17 14 56 66l98 -80q-53 -80 -104 -116t-127 -36q-86 0 -136 46.5t-50 127.5q0 111 129 195h-729z" />
    <glyph glyph-name="eogonek" unicode="&#x119;" horiz-adv-x="1144" 
d="M100 516q0 196 113 357q56 81 152.5 128.5t216.5 47.5q117 0 211.5 -44.5t150.5 -120.5q113 -150 113 -335v-92h-731q0 -121 67 -203t189 -82q87 0 159 46.5t111 127.5l182 -72q-62 -119 -133.5 -184.5t-169.5 -89.5q-115 -100 -115 -162q0 -59 58 -59q30 0 50 18
q17 14 56 66l99 -80q-53 -80 -105 -116q-51 -36 -127 -36q-86 0 -136 46.5t-50 127.5q0 98 104 179q-228 7 -347 167q-118 160 -118 365zM330 635h501q-13 95 -78 160q-63 65 -171 65q-102 0 -168 -63q-66 -61 -84 -162z" />
    <glyph glyph-name="Ecaron" unicode="&#x11a;" horiz-adv-x="1163" 
d="M193 0v1434h849v-213h-624v-353h504v-213h-504v-442h645v-213h-870zM240 1921h204l158 -164l158 164h205l-332 -360h-62z" />
    <glyph glyph-name="ecaron" unicode="&#x11b;" horiz-adv-x="1144" 
d="M582 1049q117 0 211.5 -44.5t150.5 -120.5q113 -150 113 -335v-92h-731q0 -121 67 -203t189 -82q87 0 159 46.5t111 127.5l182 -72q-78 -152 -180 -221t-272 -69q-120 0 -216.5 47t-152.5 128q-113 163 -113 357q0 196 113 357q56 81 152.5 128.5t216.5 47.5zM219 1520
h205l158 -164l157 164h205l-332 -361h-61zM330 635h501q-13 95 -78 160q-63 65 -171 65q-102 0 -168 -63q-66 -61 -84 -162z" />
    <glyph glyph-name="Gcircumflex" unicode="&#x11c;" horiz-adv-x="1474" 
d="M768 1450q224 0 375 -122q151 -121 196 -320l-206 -64q-102 293 -365 293q-192 0 -314 -134q-120 -134 -120 -386q0 -258 119 -389q120 -131 315 -131q160 0 249 93q90 94 103 234h-278v199h504v-723h-197l-16 178q-45 -78 -142 -136q-95 -58 -235 -58q-271 0 -462 188
q-190 187 -190 544q0 358 192 545q194 189 472 189zM406 1561l331 360h62l331 -360h-204l-158 163l-158 -163h-204z" />
    <glyph glyph-name="gcircumflex" unicode="&#x11d;" horiz-adv-x="1046" 
d="M94 -94q0 127 88 209q-59 59 -59 161q0 137 125 209q-70 85 -70 217q0 157 104 252q106 95 265 95q103 0 188 -45l191 102l86 -154l-140 -78q46 -80 46 -172q1 -159 -105 -253q-103 -93 -266 -93q-89 0 -166 31q-55 -31 -55 -90q0 -80 106 -80h227q157 0 249 -76
q93 -75 93 -219q0 -180 -130 -268t-322 -88q-204 0 -329 88q-126 88 -126 252zM184 1159l332 361h62l331 -361h-204l-158 164l-158 -164h-205zM549 -250q111 0 173 41t62 115q0 131 -170 131h-165q-55 0 -105 6q-45 -46 -45 -125q0 -78 66 -123q67 -45 184 -45zM547 535
q74 0 119 46t45 121q0 76 -45 122t-119 46q-72 0 -117 -46.5t-45 -121.5t45 -121t117 -46z" />
    <glyph glyph-name="Gbreve" unicode="&#x11e;" horiz-adv-x="1474" 
d="M768 1450q224 0 375 -122q151 -121 196 -320l-206 -64q-102 293 -365 293q-192 0 -314 -134q-120 -134 -120 -386q0 -258 119 -389q120 -131 315 -131q160 0 249 93q90 94 103 234h-278v199h504v-723h-197l-16 178q-45 -78 -142 -136q-95 -58 -235 -58q-271 0 -462 188
q-190 187 -190 544q0 358 192 545q194 189 472 189zM532 1835h166q0 -33 19.5 -52.5t50.5 -19.5t50.5 19.5t19.5 52.5h166q0 -92 -67 -158q-68 -65 -169 -65t-169 65q-67 66 -67 158z" />
    <glyph glyph-name="gbreve" unicode="&#x11f;" horiz-adv-x="1046" 
d="M94 -94q0 127 88 209q-59 59 -59 161q0 137 125 209q-70 85 -70 217q0 157 104 252q106 95 265 95q103 0 188 -45l191 102l86 -154l-140 -78q46 -80 46 -172q1 -159 -105 -253q-103 -93 -266 -93q-89 0 -166 31q-55 -31 -55 -90q0 -80 106 -80h227q157 0 249 -76
q93 -75 93 -219q0 -180 -130 -268t-322 -88q-204 0 -329 88q-126 88 -126 252zM549 -250q111 0 173 41t62 115q0 131 -170 131h-165q-55 0 -105 6q-45 -46 -45 -125q0 -78 66 -123q67 -45 184 -45zM311 1434h166q0 -33 19.5 -52.5t50.5 -19.5t50 19.5t19 52.5h166
q0 -92 -67 -158q-66 -66 -169 -66q-102 0 -169 66q-66 66 -66 158zM547 535q74 0 119 46t45 121q0 76 -45 122t-119 46q-72 0 -117 -46.5t-45 -121.5t45 -121t117 -46z" />
    <glyph glyph-name="Gdotaccent" unicode="&#x120;" horiz-adv-x="1474" 
d="M768 1450q224 0 375 -122q151 -121 196 -320l-206 -64q-102 293 -365 293q-192 0 -314 -134q-120 -134 -120 -386q0 -258 119 -389q120 -131 315 -131q160 0 249 93q90 94 103 234h-278v199h504v-723h-197l-16 178q-45 -78 -142 -136q-95 -58 -235 -58q-271 0 -462 188
q-190 187 -190 544q0 358 192 545q194 189 472 189zM663 1621q-42 42 -42 103q0 63 43 106q44 44 104 44t104 -44q43 -43 43 -106q0 -61 -42 -103t-105 -42t-105 42z" />
    <glyph glyph-name="gdotaccent" unicode="&#x121;" horiz-adv-x="1046" 
d="M94 -94q0 127 88 209q-59 59 -59 161q0 137 125 209q-70 85 -70 217q0 157 104 252q106 95 265 95q103 0 188 -45l191 102l86 -154l-140 -78q46 -80 46 -172q1 -159 -105 -253q-103 -93 -266 -93q-89 0 -166 31q-55 -31 -55 -90q0 -80 106 -80h227q157 0 249 -76
q93 -75 93 -219q0 -180 -130 -268t-322 -88q-204 0 -329 88q-126 88 -126 252zM549 -250q111 0 173 41t62 115q0 131 -170 131h-165q-55 0 -105 6q-45 -46 -45 -125q0 -78 66 -123q67 -45 184 -45zM547 535q74 0 119 46t45 121q0 76 -45 122t-119 46q-72 0 -117 -46.5
t-45 -121.5t45 -121t117 -46zM441 1220q-42 42 -42 103q0 62 43 105q44 45 104 45q62 0 105 -45q43 -43 43 -105q0 -61 -42 -103t-106 -42q-63 0 -105 42z" />
    <glyph glyph-name="Gcommaaccent" unicode="&#x122;" horiz-adv-x="1474" 
d="M768 1450q224 0 375 -122q151 -121 196 -320l-206 -64q-102 293 -365 293q-192 0 -314 -134q-120 -134 -120 -386q0 -258 119 -389q120 -131 315 -131q160 0 249 93q90 94 103 234h-278v199h504v-723h-197l-16 178q-45 -78 -142 -136q-95 -58 -235 -58q-271 0 -462 188
q-190 187 -190 544q0 358 192 545q194 189 472 189zM489 -639l146 533h293l-279 -533h-160z" />
    <glyph glyph-name="gcommaaccent" unicode="&#x123;" horiz-adv-x="1046" 
d="M94 -94q0 127 88 209q-59 59 -59 161q0 137 125 209q-70 85 -70 217q0 157 104 252q106 95 265 95q103 0 188 -45l191 102l86 -154l-140 -78q46 -80 46 -172q1 -159 -105 -253q-103 -93 -266 -93q-89 0 -166 31q-55 -31 -55 -90q0 -80 106 -80h227q157 0 249 -76
q93 -75 93 -219q0 -180 -130 -268t-322 -88q-204 0 -329 88q-126 88 -126 252zM199 1634h293l151 -454h-160zM549 -250q111 0 173 41t62 115q0 131 -170 131h-165q-55 0 -105 6q-45 -46 -45 -125q0 -78 66 -123q67 -45 184 -45zM547 535q74 0 119 46t45 121q0 76 -45 122
t-119 46q-72 0 -117 -46.5t-45 -121.5t45 -121t117 -46z" />
    <glyph glyph-name="Hcircumflex" unicode="&#x124;" horiz-adv-x="1417" 
d="M193 0v1434h225v-562h581v562h226v-1434h-226v659h-581v-659h-225zM346 1561l332 360h61l332 -360h-205l-157 163l-158 -163h-205z" />
    <glyph glyph-name="hcircumflex" unicode="&#x125;" horiz-adv-x="1204" 
d="M176 0v1450h213v-594q133 193 348 193q147 0 226 -81t79 -241v-727h-213v672q0 111 -41 149q-40 39 -120 39q-98 0 -189 -117q-90 -115 -90 -307v-436h-213zM205 1561l332 360h61l332 -360h-205l-158 163l-157 -163h-205z" />
    <glyph glyph-name="Hbar" unicode="&#x126;" horiz-adv-x="1417" 
d="M37 1032v189h156v213h225v-213h581v213h226v-213h155v-189h-155v-1032h-226v659h-581v-659h-225v1032h-156zM418 872h581v160h-581v-160z" />
    <glyph glyph-name="hbar" unicode="&#x127;" horiz-adv-x="1204" 
d="M37 1153v172h139v125h213v-125h250v-172h-250v-297q133 193 348 193q147 0 226 -81t79 -241v-727h-213v672q0 188 -161 188q-98 0 -189 -117q-90 -115 -90 -307v-436h-213v1153h-139z" />
    <glyph glyph-name="Itilde" unicode="&#x128;" horiz-adv-x="610" 
d="M-72 1679q32 69 98 118q66 48 138 48q78 0 148 -42t120 -42q68 0 135 82l117 -96q-33 -70 -99 -118q-65 -48 -136 -48q-79 0 -149 42t-120 42q-68 0 -135 -82zM193 0v1434h225v-1434h-225z" />
    <glyph glyph-name="itilde" unicode="&#x129;" horiz-adv-x="544" 
d="M-104 1278q32 69 98 118q65 48 137 48q77 0 148 -42t120 -42q69 0 136 82l116 -96q-33 -70 -99 -118q-64 -48 -136 -48q-78 0 -149 42t-120 42q-68 0 -135 -82zM166 0v1032h213v-1032h-213z" />
    <glyph glyph-name="Imacron" unicode="&#x12a;" horiz-adv-x="610" 
d="M41 1647v188h526v-188h-526zM193 0v1434h225v-1434h-225z" />
    <glyph glyph-name="imacron" unicode="&#x12b;" horiz-adv-x="544" 
d="M10 1245v189h527v-189h-527zM166 0v1032h213v-1032h-213z" />
    <glyph glyph-name="Ibreve" unicode="&#x12c;" horiz-adv-x="610" 
d="M70 1835h166q0 -33 19 -52.5t50 -19.5t50.5 19.5t19.5 52.5h166q0 -92 -67 -158q-67 -65 -169 -65q-103 0 -169 65t-66 158zM193 0v1434h225v-1434h-225z" />
    <glyph glyph-name="ibreve" unicode="&#x12d;" horiz-adv-x="544" 
d="M37 1434h166q0 -33 19.5 -52.5t49.5 -19.5q31 0 50.5 19.5t19.5 52.5h166q0 -92 -67 -158q-66 -66 -169 -66q-102 0 -169 66q-66 66 -66 158zM166 0v1032h213v-1032h-213z" />
    <glyph glyph-name="Iogonek" unicode="&#x12e;" horiz-adv-x="610" 
d="M147 -195q0 111 129 195h-83v1434h225v-1434q-115 -100 -115 -162q0 -59 57 -59q31 0 50 18q20 17 57 66l98 -80q-53 -80 -104 -116t-127 -36q-87 0 -137 46.5t-50 127.5z" />
    <glyph glyph-name="iogonek" unicode="&#x12f;" horiz-adv-x="544" 
d="M109 -195q0 111 129 195h-72v1032h213v-1032q-115 -100 -115 -162q0 -59 58 -59q30 0 50 18q17 14 56 66l98 -80q-53 -80 -104 -116t-127 -36q-87 0 -136.5 46.5t-49.5 127.5zM167 1220q-42 42 -42 103q0 62 43 105q43 45 104 45q62 0 105 -45q43 -43 43 -105
q0 -61 -42 -103t-106 -42q-63 0 -105 42z" />
    <glyph glyph-name="Idot" unicode="&#x130;" horiz-adv-x="610" 
d="M200 1621q-42 42 -42 103q0 63 43 106q44 44 104 44q61 0 105 -44q43 -43 43 -106q0 -61 -42 -103t-106 -42q-63 0 -105 42zM193 0v1434h225v-1434h-225z" />
    <glyph glyph-name="dotlessi" unicode="&#x131;" horiz-adv-x="544" 
d="M166 0v1032h213v-1032h-213z" />
    <glyph glyph-name="IJ" unicode="&#x132;" horiz-adv-x="1658" 
d="M193 0v1434h225v-1434h-225zM623 360l227 48q18 -100 73 -155.5t138 -55.5q107 0 160 60.5t53 197.5v979h225v-969q0 -245 -123 -364q-123 -117 -315 -117q-183 0 -299 107q-113 106 -139 269z" />
    <glyph glyph-name="ij" unicode="&#x133;" horiz-adv-x="1013" 
d="M167 1220q-42 42 -42 103q0 62 43 105q43 45 104 45q62 0 105 -45q43 -43 43 -105q0 -61 -42 -103t-106 -42q-63 0 -105 42zM166 0v1032h213v-1032h-213zM418 -248q108 33 163 95q54 61 54 180v1005h213v-985q0 -204 -94 -321t-283 -160zM636 1220q-42 42 -42 103
q0 62 43 105q43 45 104 45t105 -45q43 -43 43 -105q0 -61 -42 -103t-106 -42q-63 0 -105 42z" />
    <glyph glyph-name="Jcircumflex" unicode="&#x134;" horiz-adv-x="1048" 
d="M12 360l228 48q18 -100 73 -155.5t138 -55.5q107 0 160 60.5t53 197.5v979h225v-969q0 -245 -123 -364q-123 -117 -315 -117q-183 0 -299 107q-114 105 -140 269zM412 1561l331 360h62l332 -360h-205l-158 163l-158 -163h-204z" />
    <glyph glyph-name="jcircumflex" unicode="&#x135;" horiz-adv-x="544" 
d="M-90 1159l332 361h61l332 -361h-205l-158 164l-157 -164h-205zM-51 -248q108 33 163 95q54 61 54 180v1005h213v-985q0 -204 -94 -321t-283 -160z" />
    <glyph glyph-name="Kcommaaccent" unicode="&#x136;" horiz-adv-x="1271" 
d="M193 0v1434h225v-551l512 551h274l-577 -641l624 -793h-288l-545 702v-702h-225zM428 -639l145 533h293l-278 -533h-160z" />
    <glyph glyph-name="kcommaaccent" unicode="&#x137;" horiz-adv-x="1075" 
d="M176 0v1450h213v-829l373 411h270l-432 -475l459 -557h-271l-399 494v-494h-213zM346 -639l146 533h292l-278 -533h-160z" />
    <glyph glyph-name="kgreenlandic" unicode="&#x138;" horiz-adv-x="1075" 
d="M176 0v1032h213v-411l387 411h271l-447 -475l459 -557h-271l-399 494v-494h-213z" />
    <glyph glyph-name="Lacute" unicode="&#x139;" horiz-adv-x="1069" 
d="M193 0v1434h225v-1221h618v-213h-843zM207 1548l139 303h289l-264 -303h-164z" />
    <glyph glyph-name="lacute" unicode="&#x13a;" horiz-adv-x="555" 
d="M172 0v1450h213v-1450h-213zM172 1548l139 303h289l-264 -303h-164z" />
    <glyph glyph-name="Lcommaaccent" unicode="&#x13b;" horiz-adv-x="1069" 
d="M193 0v1434h225v-1221h618v-213h-843zM367 -639l145 533h293l-279 -533h-159z" />
    <glyph glyph-name="lcommaaccent" unicode="&#x13c;" horiz-adv-x="555" 
d="M-10 -639l145 533h293l-278 -533h-160zM172 0v1450h213v-1450h-213z" />
    <glyph glyph-name="Lcaron" unicode="&#x13d;" horiz-adv-x="1069" 
d="M193 0v1434h225v-1221h618v-213h-843zM686 995l152 455h292l-284 -455h-160z" />
    <glyph glyph-name="lcaron" unicode="&#x13e;" horiz-adv-x="1064" 
d="M172 0v1450h213v-1450h-213zM510 995l152 455h292l-284 -455h-160z" />
    <glyph glyph-name="Ldot" unicode="&#x13f;" horiz-adv-x="1069" 
d="M193 0v1434h225v-1221h618v-213h-843zM693 648q-44 44 -44 107q0 64 44 108t107 44q64 0 108 -44t44 -108q0 -63 -44 -107t-108 -44q-63 0 -107 44z" />
    <glyph glyph-name="ldot" unicode="&#x140;" horiz-adv-x="1036" 
d="M172 0v1450h213v-1450h-213zM609 648q-44 44 -44 107q0 64 44 108t107 44q64 0 108 -44t44 -108q0 -63 -44 -107t-108 -44q-63 0 -107 44z" />
    <glyph glyph-name="Lslash" unicode="&#x141;" horiz-adv-x="1093" 
d="M-2 608l219 123v703h225v-578l220 123l92 -168l-312 -174v-424h619v-213h-844v512l-127 -70z" />
    <glyph glyph-name="lslash" unicode="&#x142;" horiz-adv-x="727" 
d="M41 676l211 115v659h213v-543l123 68l88 -166l-211 -115v-694h-213v578l-123 -68z" />
    <glyph glyph-name="Nacute" unicode="&#x143;" horiz-adv-x="1439" 
d="M193 0v1434h241l588 -1033v1033h225v-1434h-241l-588 1028v-1028h-225zM561 1548l139 303h289l-264 -303h-164z" />
    <glyph glyph-name="nacute" unicode="&#x144;" 
d="M176 0v1032h213v-176q54 92 142.5 142.5t191.5 50.5q137 0 220 -81t83 -229v-739h-213v672q0 188 -160 188q-105 0 -185 -120q-79 -118 -79 -322v-418h-213zM481 1147l140 303h288l-264 -303h-164z" />
    <glyph glyph-name="Ncommaaccent" unicode="&#x145;" horiz-adv-x="1439" 
d="M193 0v1434h241l588 -1033v1033h225v-1434h-241l-588 1028v-1028h-225zM457 -639l145 533h293l-279 -533h-159z" />
    <glyph glyph-name="ncommaaccent" unicode="&#x146;" 
d="M176 0v1032h213v-176q54 92 142.5 142.5t191.5 50.5q137 0 220 -81t83 -229v-739h-213v672q0 188 -160 188q-105 0 -185 -120q-79 -118 -79 -322v-418h-213zM346 -639l146 533h292l-278 -533h-160z" />
    <glyph glyph-name="Ncaron" unicode="&#x147;" horiz-adv-x="1439" 
d="M193 0v1434h241l588 -1033v1033h225v-1434h-241l-588 1028v-1028h-225zM348 1921h205l158 -164l157 164h205l-332 -360h-61z" />
    <glyph glyph-name="ncaron" unicode="&#x148;" 
d="M176 0v1032h213v-176q54 92 142.5 142.5t191.5 50.5q137 0 220 -81t83 -229v-739h-213v672q0 188 -160 188q-105 0 -185 -120q-79 -118 -79 -322v-418h-213zM266 1520h205l158 -164l157 164h205l-332 -361h-61z" />
    <glyph glyph-name="napostrophe" unicode="&#x149;" horiz-adv-x="1492" 
d="M49 995l152 455h293l-285 -455h-160zM487 0v1032h213v-176q54 92 142.5 142.5t191.5 50.5q138 0 220 -81q83 -81 83 -229v-739h-213v672q0 188 -159 188q-107 0 -186 -120q-79 -118 -79 -322v-418h-213z" />
    <glyph glyph-name="Eng" unicode="&#x14a;" horiz-adv-x="1439" 
d="M193 0v1434h241l588 -1020v1020h225v-1434q0 -226 -122 -330t-316 -104v213q108 0 160.5 51t52.5 170l-604 1028v-1028h-225z" />
    <glyph glyph-name="eng" unicode="&#x14b;" 
d="M176 0v1032h213v-176q54 92 142.5 142.5t191.5 50.5q137 0 220 -81t83 -229v-692q0 -204 -93.5 -321t-283.5 -160l-53 186q108 33 163 95q54 61 54 180v645q0 188 -160 188q-105 0 -185 -120q-79 -118 -79 -322v-418h-213z" />
    <glyph glyph-name="Omacron" unicode="&#x14c;" horiz-adv-x="1523" 
d="M293 175q-189 190 -189 542q0 351 189 541q191 192 468 192t468 -192q190 -190 190 -541t-190 -542q-189 -191 -468 -191q-277 0 -468 191zM456 1104q-122 -134 -122 -387t122 -387q121 -133 306 -133t306 133q122 134 122 387t-122 387q-121 133 -306 133t-306 -133z
M500 1647v188h526v-188h-526z" />
    <glyph glyph-name="omacron" unicode="&#x14d;" horiz-adv-x="1216" 
d="M238 137q-138 153 -138 379q0 224 138 379q139 154 370 154q232 0 370 -154q138 -155 138 -379t-138 -379q-138 -153 -370 -153t-370 153zM400 758q-74 -101 -74 -242q0 -142 74 -243t208 -101q133 0 208 101q75 102 75 243q0 142 -75 242q-75 102 -208 102t-208 -102z
M346 1245v189h526v-189h-526z" />
    <glyph glyph-name="Obreve" unicode="&#x14e;" horiz-adv-x="1523" 
d="M293 175q-189 190 -189 542q0 351 189 541q191 192 468 192t468 -192q190 -190 190 -541t-190 -542q-189 -191 -468 -191q-277 0 -468 191zM456 1104q-122 -134 -122 -387t122 -387q121 -133 306 -133t306 133q122 134 122 387t-122 387q-121 133 -306 133t-306 -133z
M526 1835h166q0 -32 20 -52t50 -20q31 0 50 19.5t19 52.5h166q0 -92 -67 -158q-67 -65 -169 -65q-103 0 -169 65t-66 158z" />
    <glyph glyph-name="obreve" unicode="&#x14f;" horiz-adv-x="1216" 
d="M238 137q-138 153 -138 379q0 224 138 379q139 154 370 154q232 0 370 -154q138 -155 138 -379t-138 -379q-138 -153 -370 -153t-370 153zM400 758q-74 -101 -74 -242q0 -142 74 -243t208 -101q133 0 208 101q75 102 75 243q0 142 -75 242q-75 102 -208 102t-208 -102z
M373 1434h166q0 -33 19.5 -52.5t49.5 -19.5q31 0 50.5 19.5t19.5 52.5h166q0 -92 -67 -158q-66 -66 -169 -66q-102 0 -169 66q-66 66 -66 158z" />
    <glyph glyph-name="Ohungarumlaut" unicode="&#x150;" horiz-adv-x="1523" 
d="M293 175q-189 190 -189 542q0 351 189 541q191 192 468 192t468 -192q190 -190 190 -541t-190 -542q-189 -191 -468 -191q-277 0 -468 191zM456 1104q-122 -134 -122 -387t122 -387q121 -133 306 -133t306 133q122 134 122 387t-122 387q-121 133 -306 133t-306 -133z
M410 1548l139 287h289l-265 -287h-163zM836 1548l139 287h289l-265 -287h-163z" />
    <glyph glyph-name="ohungarumlaut" unicode="&#x151;" horiz-adv-x="1216" 
d="M238 137q-138 153 -138 379q0 224 138 379q139 154 370 154q232 0 370 -154q138 -155 138 -379t-138 -379q-138 -153 -370 -153t-370 153zM238 1147l139 287h289l-265 -287h-163zM400 758q-74 -101 -74 -242q0 -142 74 -243t208 -101q133 0 208 101q75 102 75 243
q0 142 -75 242q-75 102 -208 102t-208 -102zM664 1147l139 287h289l-265 -287h-163z" />
    <glyph glyph-name="OE" unicode="&#x152;" horiz-adv-x="2164" 
d="M762 1450q251 0 432 -158v142h850v-213h-625v-353h504v-213h-504v-442h645v-213h-870v141q-179 -157 -432 -157q-280 2 -469 191q-189 190 -189 542q0 351 189 541q190 192 469 192zM456 1104q-122 -134 -122 -387t122 -387q121 -133 306 -133t306 133q122 134 122 387
t-122 387q-121 133 -306 133t-306 -133z" />
    <glyph glyph-name="oe" unicode="&#x153;" horiz-adv-x="1935" 
d="M608 1049q252 0 391 -181q130 179 373 181q116 0 210.5 -44.5t151.5 -120.5q113 -150 113 -335v-92h-731q0 -121 67 -203t189 -82q87 0 159.5 46.5t110.5 127.5l183 -72q-79 -153 -181 -221q-102 -69 -272 -69q-242 0 -373 180q-139 -180 -391 -180q-232 0 -370 153
t-138 379q0 224 138 379q139 154 370 154zM400 758q-74 -101 -74 -242q0 -142 74 -243t208 -101q133 0 208 101q75 102 75 243q0 142 -75 242q-75 102 -208 102t-208 -102zM1120 635h502q-13 95 -78 160q-63 65 -172 65q-102 0 -168 -63q-66 -61 -84 -162z" />
    <glyph glyph-name="Racute" unicode="&#x154;" horiz-adv-x="1329" 
d="M193 0v1434h501q200 0 312 -106t112 -290q0 -147 -72.5 -245.5t-205.5 -133.5l413 -659h-266l-403 643h-166v-643h-225zM418 856h282q89 0 139 46t50 136t-50 136.5t-139 46.5h-282v-365zM465 1548l139 303h289l-264 -303h-164z" />
    <glyph glyph-name="racute" unicode="&#x155;" horiz-adv-x="854" 
d="M176 0v1032h213v-172q51 89 135 139q85 50 170 50q71 0 131 -25l-37 -195q-49 31 -120 31q-114 0 -196 -124q-83 -125 -83 -353v-383h-213zM356 1147l140 303h288l-264 -303h-164z" />
    <glyph glyph-name="Rcommaaccent" unicode="&#x156;" horiz-adv-x="1329" 
d="M193 0v1434h501q200 0 312 -106t112 -290q0 -147 -72.5 -245.5t-205.5 -133.5l413 -659h-266l-403 643h-166v-643h-225zM408 -639l145 533h293l-279 -533h-159zM418 856h282q89 0 139 46t50 136t-50 136.5t-139 46.5h-282v-365z" />
    <glyph glyph-name="rcommaaccent" unicode="&#x157;" horiz-adv-x="854" 
d="M141 -639l146 533h293l-279 -533h-160zM176 0v1032h213v-172q51 89 135 139q85 50 170 50q71 0 131 -25l-37 -195q-49 31 -120 31q-114 0 -196 -124q-83 -125 -83 -353v-383h-213z" />
    <glyph glyph-name="Rcaron" unicode="&#x158;" horiz-adv-x="1329" 
d="M193 0v1434h501q200 0 312 -106t112 -290q0 -147 -72.5 -245.5t-205.5 -133.5l413 -659h-266l-403 643h-166v-643h-225zM252 1921h205l157 -164l158 164h205l-332 -360h-61zM418 856h282q89 0 139 46t50 136t-50 136.5t-139 46.5h-282v-365z" />
    <glyph glyph-name="rcaron" unicode="&#x159;" horiz-adv-x="854" 
d="M137 1520h205l158 -164l157 164h205l-332 -361h-61zM176 0v1032h213v-172q51 89 135 139q85 50 170 50q71 0 131 -25l-37 -195q-49 31 -120 31q-114 0 -196 -124q-83 -125 -83 -353v-383h-213z" />
    <glyph glyph-name="Sacute" unicode="&#x15a;" horiz-adv-x="1085" 
d="M78 383l184 117q78 -303 289 -303q95 0 157 60t62 155q0 63 -43 114t-115 83q-44 21 -147 73q-77 39 -148 85q-67 43 -112 123t-45 183q0 163 108 269q110 108 267 108q260 0 395 -242l-182 -121q-84 158 -213 158q-69 0 -109 -45q-41 -46 -41 -110q0 -80 63 -135
t154 -98q90 -42 180 -90q91 -48 153 -136q64 -88 64 -211q0 -194 -126 -316q-125 -120 -322 -120q-184 0 -309 110q-125 112 -164 289zM387 1548l139 303h289l-264 -303h-164z" />
    <glyph glyph-name="sacute" unicode="&#x15b;" horiz-adv-x="921" 
d="M82 260l180 98q82 -186 227 -186q139 0 140 135q0 51 -54 83q-27 17 -52 28q-4 2 -69 27l-71 28q-221 87 -221 283q0 122 90 208q89 85 227 85q93 0 174.5 -44t130.5 -120l-135 -119q-73 94 -180 94q-44 0 -73 -27.5t-29 -74.5t41 -78t143 -70q43 -16 85 -34
q39 -17 76 -41q40 -25 67 -55q61 -73 61 -169q0 -137 -99 -232q-98 -95 -260 -95q-148 0 -250 81t-149 195zM324 1147l139 303h289l-265 -303h-163z" />
    <glyph glyph-name="Scircumflex" unicode="&#x15c;" horiz-adv-x="1085" 
d="M78 383l184 117q78 -303 289 -303q95 0 157 60t62 155q0 63 -43 114t-115 83q-44 21 -147 73q-77 39 -148 85q-67 43 -112 123t-45 183q0 163 108 269q110 108 267 108q260 0 395 -242l-182 -121q-84 158 -213 158q-69 0 -109 -45q-41 -46 -41 -110q0 -80 63 -135
t154 -98q90 -42 180 -90q91 -48 153 -136q64 -88 64 -211q0 -194 -126 -316q-125 -120 -322 -120q-184 0 -309 110q-125 112 -164 289zM176 1561l332 360h61l332 -360h-205l-157 163l-158 -163h-205z" />
    <glyph glyph-name="scircumflex" unicode="&#x15d;" horiz-adv-x="921" 
d="M82 260l180 98q82 -186 227 -186q139 0 140 135q0 51 -54 83q-27 17 -52 28q-4 2 -69 27l-71 28q-221 87 -221 283q0 122 90 208q89 85 227 85q93 0 174.5 -44t130.5 -120l-135 -119q-73 94 -180 94q-44 0 -73 -27.5t-29 -74.5t41 -78t143 -70q43 -16 85 -34
q39 -17 76 -41q40 -25 67 -55q61 -73 61 -169q0 -137 -99 -232q-98 -95 -260 -95q-148 0 -250 81t-149 195zM117 1159l332 361h61l332 -361h-205l-158 164l-157 -164h-205z" />
    <glyph glyph-name="Scedilla" unicode="&#x15e;" horiz-adv-x="1085" 
d="M78 383l184 117q78 -303 289 -303q95 0 157 60t62 155q0 63 -43 114t-115 83q-44 21 -147 73q-77 39 -148 85q-67 43 -112 123t-45 183q0 163 108 269q110 108 267 108q260 0 395 -242l-182 -121q-84 158 -213 158q-69 0 -109 -45q-41 -46 -41 -110q0 -80 63 -135
t154 -98q90 -42 180 -90q91 -48 153 -136q64 -88 64 -211q0 -194 -126 -316q-125 -120 -322 -120q-184 0 -309 110q-125 112 -164 289zM266 -399l254 276h166l-172 -391z" />
    <glyph glyph-name="scedilla" unicode="&#x15f;" horiz-adv-x="921" 
d="M82 260l180 98q82 -186 227 -186q139 0 140 135q0 51 -54 83q-27 17 -52 28q-4 2 -69 27l-71 28q-221 87 -221 283q0 122 90 208q89 85 227 85q93 0 174.5 -44t130.5 -120l-135 -119q-73 94 -180 94q-44 0 -73 -27.5t-29 -74.5t41 -78t143 -70q43 -16 85 -34
q39 -17 76 -41q40 -25 67 -55q61 -73 61 -169q0 -137 -99 -232q-98 -95 -260 -95q-148 0 -250 81t-149 195zM213 -399l254 276h166l-172 -391z" />
    <glyph glyph-name="Scaron" unicode="&#x160;" horiz-adv-x="1085" 
d="M78 383l184 117q78 -303 289 -303q95 0 157 60t62 155q0 63 -43 114t-115 83q-44 21 -147 73q-77 39 -148 85q-67 43 -112 123t-45 183q0 163 108 269q110 108 267 108q260 0 395 -242l-182 -121q-84 158 -213 158q-69 0 -109 -45q-41 -46 -41 -110q0 -80 63 -135
t154 -98q90 -42 180 -90q91 -48 153 -136q64 -88 64 -211q0 -194 -126 -316q-125 -120 -322 -120q-184 0 -309 110q-125 112 -164 289zM174 1921h205l158 -164l157 164h205l-332 -360h-61z" />
    <glyph glyph-name="scaron" unicode="&#x161;" horiz-adv-x="927" 
d="M82 260l180 98q82 -186 227 -186q139 0 140 135q0 51 -54 83q-27 17 -52 28q-4 2 -69 27l-71 28q-221 87 -221 283q0 122 90 208q89 85 227 85q93 0 174.5 -44t130.5 -120l-135 -119q-73 94 -180 94q-44 0 -73 -27.5t-29 -74.5t41 -78t143 -70q43 -16 85 -34
q39 -17 76 -41q40 -25 67 -55q61 -73 61 -169q0 -137 -99 -232q-98 -95 -260 -95q-148 0 -250 81t-149 195zM119 1520h205l157 -164l158 164h205l-332 -361h-61z" />
    <glyph glyph-name="Tcommaaccent" unicode="&#x162;" horiz-adv-x="1073" 
d="M23 1221v213h1028v-213h-402v-1221h-225v1221h-401zM256 -639l145 533h293l-278 -533h-160z" />
    <glyph glyph-name="tcommaaccent" unicode="&#x163;" horiz-adv-x="788" 
d="M43 844v188h172v285l213 133v-418h268v-188h-268v-504q0 -168 137 -168q50 0 99 29l55 -181q-73 -36 -166 -36q-156 2 -246 93q-92 94 -92 275v492h-172zM223 -639l146 533h293l-279 -533h-160z" />
    <glyph glyph-name="Tcaron" unicode="&#x164;" horiz-adv-x="1073" 
d="M23 1221v213h1028v-213h-402v-1221h-225v1221h-401zM174 1921h205l158 -164l157 164h205l-332 -360h-61z" />
    <glyph glyph-name="tcaron" unicode="&#x165;" horiz-adv-x="1210" 
d="M43 844v188h172v285l213 133v-418h268v-188h-268v-504q0 -168 137 -168q50 0 99 29l55 -181q-73 -36 -166 -36q-156 2 -246 93q-92 94 -92 275v492h-172zM772 995l152 455h293l-285 -455h-160z" />
    <glyph glyph-name="Tbar" unicode="&#x166;" horiz-adv-x="1073" 
d="M23 1221v213h1028v-213h-402v-246h355v-189h-355v-786h-225v786h-354v189h354v246h-401z" />
    <glyph glyph-name="tbar" unicode="&#x167;" horiz-adv-x="788" 
d="M43 844v188h172v285l213 133v-418h268v-188h-268v-168h242v-172h-242v-164q0 -168 137 -168q50 0 99 29l55 -181q-73 -36 -166 -36q-156 2 -246 93q-92 94 -92 275v152h-137v172h137v168h-172z" />
    <glyph glyph-name="Utilde" unicode="&#x168;" horiz-adv-x="1339" 
d="M154 516v918h225v-928q0 -148 74 -228.5t216 -80.5q143 0 217.5 80t74.5 229v928h225v-918q0 -253 -145 -392q-145 -140 -372 -140t-371 141t-144 391zM293 1679q32 69 98 118q66 48 137 48q78 0 149 -42t120 -42q68 0 135 82l117 -96q-33 -70 -99 -118q-64 -48 -137 -48
q-79 0 -149 42t-119 42q-68 0 -135 -82z" />
    <glyph glyph-name="utilde" unicode="&#x169;" 
d="M162 293v739h213v-672q0 -188 160 -188q105 0 185 120q79 119 79 322v418h213v-1032h-213v176q-54 -91 -142.5 -141.5t-191.5 -50.5q-138 0 -220 81q-83 81 -83 228zM215 1278q32 69 98 118q66 48 138 48q77 0 148 -42t120 -42q68 0 135 82l117 -96q-33 -70 -99 -118
q-64 -48 -137 -48q-79 0 -149 42q-71 42 -119 42q-68 0 -135 -82z" />
    <glyph glyph-name="Umacron" unicode="&#x16a;" horiz-adv-x="1339" 
d="M154 516v918h225v-928q0 -148 74 -228.5t216 -80.5q143 0 217.5 80t74.5 229v928h225v-918q0 -253 -145 -392q-145 -140 -372 -140t-371 141t-144 391zM408 1647v188h526v-188h-526z" />
    <glyph glyph-name="umacron" unicode="&#x16b;" 
d="M162 293v739h213v-672q0 -188 160 -188q105 0 185 120q79 119 79 322v418h213v-1032h-213v176q-54 -91 -142.5 -141.5t-191.5 -50.5q-138 0 -220 81q-83 81 -83 228zM330 1245v189h526v-189h-526z" />
    <glyph glyph-name="Ubreve" unicode="&#x16c;" horiz-adv-x="1339" 
d="M154 516v918h225v-928q0 -148 74 -228.5t216 -80.5q143 0 217.5 80t74.5 229v928h225v-918q0 -253 -145 -392q-145 -140 -372 -140t-371 141t-144 391zM434 1835h166q0 -33 19.5 -52.5t49.5 -19.5q31 0 50.5 19.5t19.5 52.5h166q0 -92 -67 -158q-67 -65 -169 -65
q-103 0 -169 65t-66 158z" />
    <glyph glyph-name="ubreve" unicode="&#x16d;" 
d="M162 293v739h213v-672q0 -188 160 -188q105 0 185 120q79 119 79 322v418h213v-1032h-213v176q-54 -91 -142.5 -141.5t-191.5 -50.5q-138 0 -220 81q-83 81 -83 228zM354 1434h166q0 -32 20 -52t50 -20q31 0 50 19.5t19 52.5h166q0 -92 -67 -158q-66 -66 -169 -66
q-101 0 -169 66q-66 66 -66 158z" />
    <glyph glyph-name="Uring" unicode="&#x16e;" horiz-adv-x="1339" 
d="M154 516v918h225v-928q0 -148 74 -228.5t216 -80.5q143 0 217.5 80t74.5 229v928h225v-918q0 -253 -145 -392q-145 -140 -372 -140t-371 141t-144 391zM463 1739q0 87 59 148q60 61 148 61q90 0 148 -61q59 -61 59 -148q0 -85 -59 -144q-58 -57 -148 -57q-89 0 -148 58
q-59 59 -59 143zM596 1741q0 -33 20.5 -54.5t52.5 -21.5q33 0 53.5 21.5t20.5 54.5q0 35 -20.5 57.5t-53.5 22.5q-32 0 -52.5 -22.5t-20.5 -57.5z" />
    <glyph glyph-name="uring" unicode="&#x16f;" 
d="M162 293v739h213v-672q0 -188 160 -188q105 0 185 120q79 119 79 322v418h213v-1032h-213v176q-54 -91 -142.5 -141.5t-191.5 -50.5q-138 0 -220 81q-83 81 -83 228zM387 1337q0 87 59 148q60 61 148 61q90 0 148 -61q59 -61 59 -148q0 -86 -59 -143q-58 -57 -148 -57
q-89 0 -148 58q-59 59 -59 142zM520 1339q0 -33 20.5 -54t53.5 -21t53.5 21t20.5 54q0 35 -20.5 57.5t-53.5 22.5t-53.5 -22.5t-20.5 -57.5z" />
    <glyph glyph-name="Uhungarumlaut" unicode="&#x170;" horiz-adv-x="1339" 
d="M154 516v918h225v-928q0 -148 74 -228.5t216 -80.5q143 0 217.5 80t74.5 229v928h225v-918q0 -253 -145 -392q-145 -140 -372 -140t-371 141t-144 391zM297 1548l139 287h289l-264 -287h-164zM723 1548l139 287h289l-264 -287h-164z" />
    <glyph glyph-name="uhungarumlaut" unicode="&#x171;" 
d="M162 293v739h213v-672q0 -188 160 -188q105 0 185 120q79 119 79 322v418h213v-1032h-213v176q-54 -91 -142.5 -141.5t-191.5 -50.5q-138 0 -220 81q-83 81 -83 228zM197 1147l139 287h289l-265 -287h-163zM623 1147l139 287h289l-265 -287h-163z" />
    <glyph glyph-name="Uogonek" unicode="&#x172;" horiz-adv-x="1339" 
d="M154 516v918h225v-928q0 -148 74 -228.5t216 -80.5q143 0 217.5 80t74.5 229v928h225v-918q0 -210 -102 -344q-100 -133 -271 -172q-115 -100 -115 -162q0 -59 58 -59q30 0 50 18q17 14 56 66l99 -80q-53 -80 -105 -116q-51 -36 -127 -36q-86 0 -136 46.5t-50 127.5
q0 99 104 179q-219 7 -356 148q-137 140 -137 384z" />
    <glyph glyph-name="uogonek" unicode="&#x173;" 
d="M162 293v739h213v-672q0 -188 160 -188q105 0 185 120q79 119 79 322v418h213v-1032q-115 -100 -115 -162q0 -59 57 -59q30 0 50 18q20 17 57 66l98 -80q-53 -80 -104 -116t-127 -36q-86 0 -136.5 46.5t-50.5 127.5q0 111 129 195h-71v176q-54 -91 -142.5 -141.5
t-191.5 -50.5q-138 0 -220 81q-83 81 -83 228z" />
    <glyph glyph-name="Wcircumflex" unicode="&#x174;" horiz-adv-x="1867" 
d="M47 1434h238l262 -1115l284 963h205l285 -963l262 1115h238l-379 -1434h-230l-278 909l-279 -909h-229zM571 1561l332 360h62l331 -360h-204l-158 163l-158 -163h-205z" />
    <glyph glyph-name="wcircumflex" unicode="&#x175;" horiz-adv-x="1544" 
d="M63 1032h226l198 -753l183 753h204l183 -753l198 753h226l-328 -1032h-195l-186 729l-186 -729h-195zM410 1159l331 361h62l332 -361h-205l-158 164l-158 -164h-204z" />
    <glyph glyph-name="Ycircumflex" unicode="&#x176;" horiz-adv-x="1052" 
d="M4 1434h240l282 -596l283 596h240l-410 -820v-614h-225v614zM164 1561l332 360h61l332 -360h-205l-158 163l-157 -163h-205z" />
    <glyph glyph-name="ycircumflex" unicode="&#x177;" horiz-adv-x="960" 
d="M16 1032h226l243 -694l236 694h225l-522 -1450h-213l168 469zM123 1159l332 361h61l332 -361h-205l-158 164l-157 -164h-205z" />
    <glyph glyph-name="Ydieresis" unicode="&#x178;" horiz-adv-x="1052" 
d="M4 1434h240l282 -596l283 596h240l-410 -820v-614h-225v614zM246 1642q-37 37 -37 92q0 56 37 93t92 37t92 -37t37 -93q0 -55 -37 -92q-38 -36 -92 -36t-92 36zM627 1642q-37 37 -37 92q0 56 37 93t92 37t92 -37t37 -93q0 -55 -37 -92q-37 -36 -92 -36t-92 36z" />
    <glyph glyph-name="Zacute" unicode="&#x179;" horiz-adv-x="1142" 
d="M78 0v111l653 1110h-622v213h925v-111l-645 -1110h672v-213h-983zM395 1548l140 303h288l-264 -303h-164z" />
    <glyph glyph-name="zacute" unicode="&#x17a;" horiz-adv-x="944" 
d="M94 0v86l465 758h-434v188h711v-86l-465 -758h487v-188h-764zM319 1147l140 303h289l-265 -303h-164z" />
    <glyph glyph-name="Zdotaccent" unicode="&#x17b;" horiz-adv-x="1142" 
d="M78 0v111l653 1110h-622v213h925v-111l-645 -1110h672v-213h-983zM456 1621q-42 42 -42 103q0 63 43 106q44 44 104 44q61 0 105 -44q43 -43 43 -106q0 -61 -42 -103t-106 -42q-63 0 -105 42z" />
    <glyph glyph-name="zdotaccent" unicode="&#x17c;" horiz-adv-x="944" 
d="M94 0v86l465 758h-434v188h711v-86l-465 -758h487v-188h-764zM378 1220q-42 42 -42 103q0 62 43 105q43 45 104 45t105 -45q43 -43 43 -105q0 -61 -42 -103t-106 -42q-63 0 -105 42z" />
    <glyph glyph-name="Zcaron" unicode="&#x17d;" horiz-adv-x="1142" 
d="M78 0v111l653 1110h-622v213h925v-111l-645 -1110h672v-213h-983zM209 1921h205l157 -164l158 164h205l-332 -360h-61z" />
    <glyph glyph-name="zcaron" unicode="&#x17e;" horiz-adv-x="944" 
d="M94 0v86l465 758h-434v188h711v-86l-465 -758h487v-188h-764zM109 1520h204l158 -164l158 164h205l-332 -361h-62z" />
    <glyph glyph-name="longs" unicode="&#x17f;" horiz-adv-x="741" 
d="M78 844v188h133v35q0 184 99 283q100 100 268 100q104 0 186 -43l-43 -180q-67 35 -133 35q-164 0 -164 -187v-1075h-213v844h-133z" />
    <glyph glyph-name="uni018E" unicode="&#x18e;" horiz-adv-x="1163" 
d="M100 1221v213h871v-1434h-850v213h624v352h-503v213h503v443h-645z" />
    <glyph glyph-name="uni018F" unicode="&#x18f;" horiz-adv-x="1144" 
d="M88 483v92h731q0 120 -68 203q-67 82 -188 82q-85 0 -158 -46.5t-112 -127.5l-182 72q78 152 180 221q101 70 272 70q120 0 216.5 -47.5t152.5 -128.5q112 -160 112 -357q0 -196 -112 -357q-56 -81 -152.5 -128t-216.5 -47q-117 0 -211.5 44t-151.5 119
q-112 148 -112 336zM313 397q14 -97 78 -161t172 -64q101 0 168 62q66 63 84 163h-502z" />
    <glyph glyph-name="florin" unicode="&#x192;" horiz-adv-x="978" 
d="M-164 -397l78 180q50 -29 117 -29q139 0 170 162l182 928h-174l37 188h174l10 53q69 365 416 365q112 0 164 -37l-78 -180q-50 29 -117 29q-141 0 -170 -162l-12 -68h227l-37 -188h-227l-180 -914q-72 -366 -416 -364q-112 0 -164 37z" />
    <glyph glyph-name="uni01B5" unicode="&#x1b5;" horiz-adv-x="1142" 
d="M78 0v111l301 512h-219v188h329l242 410h-622v213h925v-111l-299 -512h256v-188h-364l-238 -410h672v-213h-983z" />
    <glyph glyph-name="uni01B6" unicode="&#x1b6;" horiz-adv-x="944" 
d="M94 0v86l225 369h-172v172h279l133 217h-434v188h711v-86l-197 -319h154v-172h-258l-164 -267h487v-188h-764z" />
    <glyph glyph-name="Aringacute" unicode="&#x1fa;" horiz-adv-x="1245" 
d="M18 0l498 1434h213l498 -1434h-230l-118 356h-512l-119 -356h-230zM416 1686q0 87 59 148q60 60 148 60q89 0 148 -60q58 -59 58 -148q0 -86 -58 -144q-59 -57 -148 -57t-148 58q-59 59 -59 143zM434 569h377l-188 580zM475 1958l139 303h289l-264 -303h-164zM549 1688
q0 -33 20.5 -54.5t52.5 -21.5q33 0 53.5 21.5t20.5 54.5q0 35 -20.5 57t-53.5 22q-32 0 -52.5 -22t-20.5 -57z" />
    <glyph glyph-name="aringacute" unicode="&#x1fb;" horiz-adv-x="1052" 
d="M90 297q0 158 123 248t324 90h178v45q0 89 -54.5 134.5t-146.5 45.5q-141 0 -192 -137l-195 41q33 131 137 208q106 77 252 77q412 0 412 -408v-641h-180l-21 135q-110 -152 -319 -151q-137 0 -228 79q-90 79 -90 234zM307 1337q0 87 59 148q60 61 148 61q90 0 148 -61
q59 -61 59 -148q0 -86 -59 -143q-58 -57 -148 -57q-89 0 -148 58q-59 59 -59 142zM315 297q0 -56 34 -90.5t95 -34.5q108 0 190 68q81 69 81 194v23h-187q-98 0 -155.5 -43t-57.5 -117zM373 1610l139 303h289l-264 -303h-164zM440 1339q0 -33 20.5 -54t53.5 -21t53.5 21
t20.5 54q0 35 -20.5 57.5t-53.5 22.5t-53.5 -22.5t-20.5 -57.5z" />
    <glyph glyph-name="AEacute" unicode="&#x1fc;" horiz-adv-x="1736" 
d="M20 0l619 1434h977v-213h-625v-353h504v-213h-504v-442h645v-213h-870v356h-367l-149 -356h-230zM489 569h277v580h-35zM961 1548l139 303h289l-265 -303h-163z" />
    <glyph glyph-name="aeacute" unicode="&#x1fd;" horiz-adv-x="1759" 
d="M90 297q0 158 123 248t324 90h178v45q0 93 -59 137q-58 43 -148 43q-152 0 -197 -135l-180 39q29 131 128 208q100 77 249 77q243 0 346 -142q131 142 342 142q116 1 210.5 -44t151.5 -121q113 -150 113 -335v-92h-731q0 -121 67 -203t189 -82q87 0 159 46.5t111 127.5
l183 -72q-79 -153 -181 -221q-102 -69 -272 -69q-279 0 -408 231q-112 -231 -380 -231q-137 0 -228 79q-90 79 -90 234zM315 297q0 -56 34 -90.5t95 -34.5q108 0 190 68q81 69 81 194v31h-187q-96 0 -155 -47q-58 -46 -58 -121zM723 1147l139 303h289l-264 -303h-164z
M944 635h502q-13 95 -78 160q-63 65 -172 65q-102 0 -168 -63q-66 -61 -84 -162z" />
    <glyph glyph-name="circumflex" unicode="&#x2c6;" horiz-adv-x="843" 
d="M59 1159l332 361h62l331 -361h-204l-158 164l-158 -164h-205z" />
    <glyph glyph-name="caron" unicode="&#x2c7;" horiz-adv-x="843" 
d="M59 1520h205l158 -164l158 164h204l-331 -361h-62z" />
    <glyph glyph-name="breve" unicode="&#x2d8;" horiz-adv-x="524" 
d="M18 1434h166q0 -32 20 -52t50 -20q31 0 50.5 19.5t19.5 52.5h165q0 -92 -67 -158q-66 -66 -168 -66t-169 66t-67 158z" />
    <glyph glyph-name="dotaccent" unicode="&#x2d9;" horiz-adv-x="571" 
d="M179 1220q-42 42 -42 103q0 62 43 105q44 45 104 45q62 0 105 -45q43 -43 43 -105q0 -61 -42 -103t-106 -42q-63 0 -105 42z" />
    <glyph glyph-name="ring" unicode="&#x2da;" horiz-adv-x="479" 
d="M33 1337q0 87 59 148q60 61 148 61q90 0 148 -61q58 -59 58 -148q0 -86 -58 -143q-59 -57 -148 -57t-148 58q-59 59 -59 142zM166 1339q0 -33 20.5 -54t52.5 -21q33 0 53.5 21t20.5 54q0 35 -20.5 57.5t-53.5 22.5q-32 0 -52.5 -22.5t-20.5 -57.5z" />
    <glyph glyph-name="ogonek" unicode="&#x2db;" horiz-adv-x="491" 
d="M37 -195q0 111 129 195h141q-115 -100 -114 -162q0 -57 57 -57q30 0 51 18t55 64l99 -80q-53 -80 -105 -116q-51 -36 -127 -36q-87 0 -136.5 46.5t-49.5 127.5z" />
    <glyph glyph-name="tilde" unicode="&#x2dc;" horiz-adv-x="825" 
d="M35 1278q32 69 98 118q66 48 137 48q78 0 148 -42t121 -42q68 0 135 82l117 -96q-33 -70 -99 -118q-64 -48 -137 -48q-79 0 -149 42t-119 42q-68 0 -135 -82z" />
    <glyph glyph-name="hungarumlaut" unicode="&#x2dd;" horiz-adv-x="921" 
d="M41 1147l139 287h289l-264 -287h-164zM467 1147l139 287h289l-264 -287h-164z" />
    <glyph glyph-name="pi" unicode="&#x3c0;" horiz-adv-x="1245" 
d="M109 840v192h1026v-192h-174v-840h-213v840h-252v-840h-213v840h-174z" />
    <glyph glyph-name="uni0400" unicode="&#x400;" horiz-adv-x="1163" 
d="M193 0v1434h849v-213h-624v-353h504v-213h-504v-442h645v-213h-870zM340 1851h289l139 -303h-164z" />
    <glyph glyph-name="afii10023" unicode="&#x401;" horiz-adv-x="1163" 
d="M193 0v1434h849v-213h-624v-353h504v-213h-504v-442h645v-213h-870zM340 1642q-37 37 -37 92q0 56 37 93t92 37t92 -37t37 -93q0 -55 -37 -92q-38 -36 -92 -36t-92 36zM721 1642q-37 37 -37 92q0 56 37 93t92 37t92 -37t37 -93q0 -55 -37 -92q-37 -36 -92 -36t-92 36z
" />
    <glyph glyph-name="afii10051" unicode="&#x402;" horiz-adv-x="1460" 
d="M18 1221v213h1029v-213h-402v-365q133 193 348 193q147 0 226 -81t79 -241v-262q0 -204 -93.5 -321t-282.5 -160l-54 186q109 33 163 94q54 62 54 180v228q0 111 -41 149q-40 39 -120 39q-98 0 -189 -117q-90 -115 -90 -307v-436h-225v1221h-402z" />
    <glyph glyph-name="afii10052" unicode="&#x403;" horiz-adv-x="1083" 
d="M193 0v1434h872v-213h-647v-1221h-225zM442 1548l140 303h288l-264 -303h-164z" />
    <glyph glyph-name="afii10053" unicode="&#x404;" horiz-adv-x="1398" 
d="M733 1450q209 0 372 -118q162 -118 218 -316l-213 -62q-45 124 -147 204q-100 79 -230 79q-166 0 -268.5 -106.5t-124.5 -307.5h668v-213h-668q23 -203 125 -308t268 -105q130 0 230 78q102 79 147 204l213 -61q-55 -199 -218 -317q-163 -117 -372 -117q-272 0 -451 191
q-178 191 -178 542t178 541q179 192 451 192z" />
    <glyph glyph-name="afii10054" unicode="&#x405;" horiz-adv-x="1085" 
d="M78 383l184 117q78 -303 289 -303q95 0 157 60t62 155q0 63 -43 114t-115 83q-44 21 -147 73q-77 39 -148 85q-67 43 -112 123t-45 183q0 163 108 269q110 108 267 108q260 0 395 -242l-182 -121q-84 158 -213 158q-69 0 -109 -45q-41 -46 -41 -110q0 -80 63 -135
t154 -98q90 -42 180 -90q91 -48 153 -136q64 -88 64 -211q0 -194 -126 -316q-125 -120 -322 -120q-184 0 -309 110q-125 112 -164 289z" />
    <glyph glyph-name="afii10055" unicode="&#x406;" horiz-adv-x="610" 
d="M193 0v1434h225v-1434h-225z" />
    <glyph glyph-name="afii10056" unicode="&#x407;" horiz-adv-x="610" 
d="M22 1642q-36 36 -36 92t36 93q37 37 92 37q56 0 93 -37t37 -93q0 -55 -37 -92q-37 -36 -93 -36t-92 36zM193 0v1434h225v-1434h-225zM403 1642q-36 36 -36 92t36 93q37 37 92 37q56 0 93 -37t37 -93q0 -55 -37 -92q-38 -36 -93 -36q-56 0 -92 36z" />
    <glyph glyph-name="afii10057" unicode="&#x408;" horiz-adv-x="1048" 
d="M12 360l228 48q18 -100 73 -155.5t138 -55.5q107 0 160 60.5t53 197.5v979h225v-969q0 -245 -123 -364q-123 -117 -315 -117q-183 0 -299 107q-114 105 -140 269z" />
    <glyph glyph-name="afii10058" unicode="&#x409;" horiz-adv-x="1859" 
d="M20 0v213q190 0 205 197l76 1024h700v-566h308q213 0 331 -115q119 -114 119 -319q0 -204 -119 -320q-118 -114 -331 -114h-533v1221h-274l-58 -832q-14 -198 -117 -293.5t-307 -95.5zM1001 213h277q252 0 252 221t-252 221h-277v-442z" />
    <glyph glyph-name="afii10059" unicode="&#x40a;" horiz-adv-x="1955" 
d="M193 0v1434h225v-566h454v566h226v-566h307q213 0 331 -115q119 -114 119 -319q0 -204 -119 -320q-118 -114 -331 -114h-533v655h-454v-655h-225zM1098 213h276q252 0 252 221t-252 221h-276v-442z" />
    <glyph glyph-name="afii10060" unicode="&#x40b;" horiz-adv-x="1464" 
d="M23 1221v213h1028v-213h-402v-365q133 193 348 193q147 0 226.5 -81t79.5 -241v-727h-213v672q0 111 -41 149q-41 39 -121 39q-98 0 -189 -117q-90 -115 -90 -307v-436h-225v1221h-401z" />
    <glyph glyph-name="afii10061" unicode="&#x40c;" horiz-adv-x="1271" 
d="M193 0v1434h225v-551l512 551h274l-577 -641l624 -793h-288l-545 702v-702h-225zM524 1548l140 303h288l-264 -303h-164z" />
    <glyph glyph-name="uni040D" unicode="&#x40d;" horiz-adv-x="1439" 
d="M193 0v1434h225v-1033l588 1033h241v-1434h-225v1028l-588 -1028h-241zM430 1851h289l139 -303h-164z" />
    <glyph glyph-name="afii10062" unicode="&#x40e;" horiz-adv-x="1044" 
d="M4 1434h225l297 -744l301 744h213l-585 -1450h-213l174 432zM285 1835h166q0 -32 20 -52t49 -20q31 0 50.5 19.5t19.5 52.5h166q0 -92 -67 -158q-67 -65 -169 -65q-103 0 -169 65t-66 158z" />
    <glyph glyph-name="afii10145" unicode="&#x40f;" horiz-adv-x="1417" 
d="M193 0v1434h225v-1221h581v1221h226v-1434h-404v-254h-225v254h-403z" />
    <glyph glyph-name="afii10017" unicode="&#x410;" horiz-adv-x="1245" 
d="M18 0l498 1434h213l498 -1434h-230l-118 356h-512l-119 -356h-230zM434 569h377l-188 580z" />
    <glyph glyph-name="afii10018" unicode="&#x411;" horiz-adv-x="1275" 
d="M193 0v1434h847v-213h-622v-353h307q214 0 332 -115q119 -114 119 -319q0 -204 -119 -320q-119 -114 -332 -114h-532zM418 213h276q252 0 252 221t-252 221h-276v-442z" />
    <glyph glyph-name="afii10019" unicode="&#x412;" horiz-adv-x="1275" 
d="M193 0v1434h507q183 0 293 -98q109 -97 109 -277q0 -84 -41 -164t-105 -113q103 -44 161 -139q59 -97 59 -221q0 -201 -119 -312q-119 -110 -332 -110h-532zM418 213h276q252 0 252 221t-252 221h-276v-442zM418 868h262q197 0 197 176q0 177 -197 177h-262v-353z" />
    <glyph glyph-name="afii10020" unicode="&#x413;" horiz-adv-x="1083" 
d="M193 0v1434h872v-213h-647v-1221h-225z" />
    <glyph glyph-name="afii10021" unicode="&#x414;" horiz-adv-x="1415" 
d="M117 213h110l205 1221h799v-1221h123l-25 -467h-192v254h-801v-254h-193zM453 213h553v1008h-381z" />
    <glyph glyph-name="afii10022" unicode="&#x415;" horiz-adv-x="1163" 
d="M193 0v1434h849v-213h-624v-353h504v-213h-504v-442h645v-213h-870z" />
    <glyph glyph-name="afii10024" unicode="&#x416;" horiz-adv-x="1937" 
d="M20 0l627 793l-577 641h274l512 -551v551h225v-551l512 551h275l-578 -641l627 -793h-291l-545 702v-702h-225v702l-545 -702h-291z" />
    <glyph glyph-name="afii10025" unicode="&#x417;" 
d="M121 395l211 27q39 -242 258 -242q115 0 185 73q71 74 71 204q0 134 -71 207q-70 73 -185 73q-62 0 -125 -28l-86 114l297 414h-486v197h799v-74l-348 -475q25 6 59 6q164 0 263 -122q100 -121 100 -312q0 -206 -136 -339q-137 -134 -337 -134q-187 0 -322 116
q-135 115 -147 295z" />
    <glyph glyph-name="afii10026" unicode="&#x418;" horiz-adv-x="1439" 
d="M193 0v1434h225v-1033l588 1033h241v-1434h-225v1028l-588 -1028h-241z" />
    <glyph glyph-name="afii10027" unicode="&#x419;" horiz-adv-x="1439" 
d="M193 0v1434h225v-1033l588 1033h241v-1434h-225v1028l-588 -1028h-241zM483 1835h166q0 -33 19.5 -52.5t50.5 -19.5t50 19.5t19 52.5h166q0 -92 -67 -158q-67 -65 -169 -65q-103 0 -169 65t-66 158z" />
    <glyph glyph-name="afii10028" unicode="&#x41a;" horiz-adv-x="1271" 
d="M193 0v1434h225v-551l512 551h274l-577 -641l624 -793h-288l-545 702v-702h-225z" />
    <glyph glyph-name="afii10029" unicode="&#x41b;" horiz-adv-x="1323" 
d="M20 0v213q190 0 205 197l76 1024h829v-1434h-225v1221h-403l-58 -832q-14 -198 -117 -293.5t-307 -95.5z" />
    <glyph glyph-name="afii10030" unicode="&#x41c;" horiz-adv-x="1630" 
d="M193 0v1434h266l356 -955l356 955h267v-1434h-226v967l-317 -836h-160l-317 836v-967h-225z" />
    <glyph glyph-name="afii10031" unicode="&#x41d;" horiz-adv-x="1417" 
d="M193 0v1434h225v-562h581v562h226v-1434h-226v659h-581v-659h-225z" />
    <glyph glyph-name="afii10032" unicode="&#x41e;" horiz-adv-x="1523" 
d="M293 175q-189 190 -189 542q0 351 189 541q191 192 468 192t468 -192q190 -190 190 -541t-190 -542q-189 -191 -468 -191q-277 0 -468 191zM456 1104q-122 -134 -122 -387t122 -387q121 -133 306 -133t306 133q122 134 122 387t-122 387q-121 133 -306 133t-306 -133z
" />
    <glyph glyph-name="afii10033" unicode="&#x41f;" horiz-adv-x="1417" 
d="M193 0v1434h1032v-1434h-226v1221h-581v-1221h-225z" />
    <glyph glyph-name="afii10034" unicode="&#x420;" horiz-adv-x="1206" 
d="M193 0v1434h514q209 0 326 -119q118 -118 118 -306q0 -187 -118 -305t-326 -118h-289v-586h-225zM418 799h299q96 0 150.5 55.5t54.5 154.5q0 101 -54.5 156.5t-150.5 55.5h-299v-422z" />
    <glyph glyph-name="afii10035" unicode="&#x421;" horiz-adv-x="1423" 
d="M768 1450q224 0 374 -114q151 -115 206 -320l-213 -53q-55 141 -141 207q-85 67 -226 67q-190 0 -312 -134t-122 -386t122 -386t312 -134q140 0 226 66q86 68 141 208l213 -53q-56 -207 -205 -321q-151 -113 -375 -113q-277 0 -470 193q-194 194 -194 540q0 345 194 539
t470 194z" />
    <glyph glyph-name="afii10036" unicode="&#x422;" horiz-adv-x="1073" 
d="M23 1221v213h1028v-213h-402v-1221h-225v1221h-401z" />
    <glyph glyph-name="afii10037" unicode="&#x423;" horiz-adv-x="1044" 
d="M4 1434h225l297 -744l301 744h213l-585 -1450h-213l174 432z" />
    <glyph glyph-name="afii10038" unicode="&#x424;" horiz-adv-x="1601" 
d="M676 1286h12v148h225v-148h13q245 0 410 -159t165 -410q0 -252 -165 -411t-410 -159h-13v-147h-225v147h-12q-246 0 -411 159t-165 411q0 253 165 410q165 159 411 159zM672 336h16v762h-16q-150 0 -248 -110t-98 -271q0 -162 98 -272q97 -109 248 -109zM913 336h17
q151 0 248 109q98 110 98 272q0 161 -99 271q-98 110 -247 110h-17v-762z" />
    <glyph glyph-name="afii10039" unicode="&#x425;" 
d="M25 0l442 770l-379 664h252l254 -443l254 443h252l-379 -664l442 -770h-256l-313 547l-313 -547h-256z" />
    <glyph glyph-name="afii10040" unicode="&#x426;" horiz-adv-x="1423" 
d="M193 0v1434h225v-1221h581v1221h226v-1221h137l-25 -467h-192v254h-952z" />
    <glyph glyph-name="afii10041" unicode="&#x427;" horiz-adv-x="1357" 
d="M160 907v527h225v-510q0 -308 252 -310q186 0 303 134v686h225v-1434h-225v504q-124 -101 -344 -103q-203 0 -320 124q-116 125 -116 382z" />
    <glyph glyph-name="afii10042" unicode="&#x428;" horiz-adv-x="2011" 
d="M193 0v1434h225v-1221h475v1221h225v-1221h475v1221h226v-1434h-1626z" />
    <glyph glyph-name="afii10043" unicode="&#x429;" horiz-adv-x="2017" 
d="M193 0v1434h225v-1221h475v1221h225v-1221h475v1221h226v-1221h137l-25 -467h-192v254h-1546z" />
    <glyph glyph-name="afii10044" unicode="&#x42a;" horiz-adv-x="1370" 
d="M29 1221v213h483v-566h307q214 0 332 -115q119 -114 119 -319q0 -204 -119 -320q-119 -114 -332 -114h-532v1221h-258zM512 213h276q252 0 252 221t-252 221h-276v-442z" />
    <glyph glyph-name="afii10045" unicode="&#x42b;" horiz-adv-x="1765" 
d="M193 0v1434h225v-566h307q214 0 332 -115q119 -114 119 -319q0 -204 -119 -320q-119 -114 -332 -114h-532zM418 213h276q252 0 252 221t-252 221h-276v-442zM1360 0v1450h213v-1450h-213z" />
    <glyph glyph-name="afii10046" unicode="&#x42c;" horiz-adv-x="1275" 
d="M193 0v1434h225v-566h307q214 0 332 -115q119 -114 119 -319q0 -204 -119 -320q-119 -114 -332 -114h-532zM418 213h276q252 0 252 221t-252 221h-276v-442z" />
    <glyph glyph-name="afii10047" unicode="&#x42d;" horiz-adv-x="1398" 
d="M76 418l213 61q46 -126 146 -204t231 -78q166 0 268 105.5t125 307.5h-668v213h668q-23 201 -126 307.5t-267 106.5q-130 0 -231 -79q-101 -80 -146 -204l-213 62q56 200 218 316q163 118 372 118q272 0 450 -192q178 -190 178 -541t-178 -542q-179 -191 -450 -191
q-208 0 -372 117q-163 118 -218 317z" />
    <glyph glyph-name="afii10048" unicode="&#x42e;" horiz-adv-x="2101" 
d="M193 0v1434h225v-611h268q28 300 213 464q184 163 440 163q277 0 468 -192q190 -190 190 -541t-190 -542q-189 -191 -468 -191q-255 0 -440 162q-185 164 -213 464h-268v-610h-225zM1033 1104q-122 -134 -122 -387t122 -387q121 -133 306 -133t306 133q122 134 122 387
t-122 387q-121 133 -306 133t-306 -133z" />
    <glyph glyph-name="afii10049" unicode="&#x42f;" horiz-adv-x="1329" 
d="M76 0l413 659q-133 35 -205.5 133.5t-72.5 245.5q0 184 111 290q112 106 313 106h502v-1434h-226v643h-166l-403 -643h-266zM629 856h282v365h-282q-89 0 -139 -46.5t-50 -136.5t50 -136t139 -46z" />
    <glyph glyph-name="afii10065" unicode="&#x430;" horiz-adv-x="1052" 
d="M90 297q0 158 123 248t324 90h178v45q0 89 -54.5 134.5t-146.5 45.5q-141 0 -192 -137l-195 41q33 131 137 208q106 77 252 77q412 0 412 -408v-641h-180l-21 135q-110 -152 -319 -151q-137 0 -228 79q-90 79 -90 234zM315 297q0 -56 34 -90.5t95 -34.5q108 0 190 68
q81 69 81 194v23h-187q-98 0 -155.5 -43t-57.5 -117z" />
    <glyph glyph-name="afii10066" unicode="&#x431;" horiz-adv-x="1216" 
d="M100 635q0 425 137 612q138 187 392 187h84q115 0 153 96h133q0 -285 -286 -285h-90q-127 0 -208 -85q-82 -86 -89 -238q140 127 321 127q214 0 341 -154q128 -155 128 -379t-138 -379q-138 -153 -370 -153q-235 0 -372 173q-136 172 -136 478zM400 758
q-74 -101 -74 -242q0 -142 74 -243t208 -101q133 0 208 101q75 102 75 243q0 142 -75 242q-75 102 -208 102t-208 -102z" />
    <glyph glyph-name="afii10067" unicode="&#x432;" horiz-adv-x="1052" 
d="M176 0v1032h393q146 0 237 -71q91 -70 91 -199q0 -58 -30 -117q-28 -56 -74 -82q72 -36 114.5 -104t42.5 -156q0 -144 -91 -223q-92 -80 -253 -80h-430zM389 188h166q180 0 180 131q0 132 -180 132h-166v-263zM389 639h156q141 0 141 102q0 103 -141 103h-156v-205z" />
    <glyph glyph-name="afii10068" unicode="&#x433;" horiz-adv-x="882" 
d="M176 0v1032h678v-188h-465v-844h-213z" />
    <glyph glyph-name="afii10069" unicode="&#x434;" horiz-adv-x="1179" 
d="M80 188h74l139 844h721v-844h71l-24 -421h-193v233h-569v-233h-193zM354 188h447v656h-336z" />
    <glyph glyph-name="afii10070" unicode="&#x435;" horiz-adv-x="1144" 
d="M582 1049q117 0 211.5 -44.5t150.5 -120.5q113 -150 113 -335v-92h-731q0 -121 67 -203t189 -82q87 0 159 46.5t111 127.5l182 -72q-78 -152 -180 -221t-272 -69q-120 0 -216.5 47t-152.5 128q-113 163 -113 357q0 196 113 357q56 81 152.5 128.5t216.5 47.5zM330 635
h501q-13 95 -78 160q-63 65 -171 65q-102 0 -168 -63q-66 -61 -84 -162z" />
    <glyph glyph-name="afii10072" unicode="&#x436;" horiz-adv-x="1585" 
d="M16 0l459 557l-432 475h270l373 -411v411h213v-411l373 411h270l-432 -475l459 -557h-271l-399 494v-494h-213v494l-399 -494h-271z" />
    <glyph glyph-name="afii10073" unicode="&#x437;" horiz-adv-x="911" 
d="M98 287l205 30q12 -71 55.5 -112t106.5 -41q71 0 112 44.5t41 117.5q0 75 -39.5 120.5t-107.5 45.5q-52 0 -92 -23l-100 127l186 252h-311v184h612v-67l-256 -328q18 2 31 2q119 0 198 -87q80 -88 80 -230q0 -156 -102 -247q-100 -91 -252 -91q-143 0 -248 84
q-106 84 -119 219z" />
    <glyph glyph-name="afii10074" unicode="&#x438;" horiz-adv-x="1212" 
d="M176 0v1032h213v-698l412 698h235v-1032h-213v698l-411 -698h-236z" />
    <glyph glyph-name="afii10075" unicode="&#x439;" horiz-adv-x="1212" 
d="M176 0v1032h213v-698l412 698h235v-1032h-213v698l-411 -698h-236zM381 1434h166q0 -33 19.5 -52.5t49.5 -19.5q31 0 50.5 19.5t19.5 52.5h166q0 -92 -67 -158q-66 -66 -169 -66q-102 0 -169 66q-66 66 -66 158z" />
    <glyph glyph-name="afii10076" unicode="&#x43a;" horiz-adv-x="1075" 
d="M176 0v1032h213v-411l373 411h270l-432 -475l459 -557h-271l-399 494v-494h-213z" />
    <glyph glyph-name="afii10077" unicode="&#x43b;" horiz-adv-x="1226" 
d="M76 0v188q179 0 194 156l68 688h717v-1032h-213v844h-316l-61 -574q-17 -163 -110 -216q-93 -54 -279 -54z" />
    <glyph glyph-name="afii10078" unicode="&#x43c;" horiz-adv-x="1327" 
d="M176 0v1032h236l252 -631l251 631h236v-1032h-213v621l-201 -527h-147l-201 527v-621h-213z" />
    <glyph glyph-name="afii10079" unicode="&#x43d;" horiz-adv-x="1171" 
d="M176 0v1032h213v-389h393v389h213v-1032h-213v455h-393v-455h-213z" />
    <glyph glyph-name="afii10080" unicode="&#x43e;" horiz-adv-x="1216" 
d="M238 137q-138 153 -138 379q0 224 138 379q139 154 370 154q232 0 370 -154q138 -155 138 -379t-138 -379q-138 -153 -370 -153t-370 153zM400 758q-74 -101 -74 -242q0 -142 74 -243t208 -101q133 0 208 101q75 102 75 243q0 142 -75 242q-75 102 -208 102t-208 -102z
" />
    <glyph glyph-name="afii10081" unicode="&#x43f;" horiz-adv-x="1165" 
d="M176 0v1032h813v-1032h-213v844h-387v-844h-213z" />
    <glyph glyph-name="afii10082" unicode="&#x440;" horiz-adv-x="1230" 
d="M176 -418v1450h213v-119q28 51 107 93q79 43 174 43q224 0 342 -141t118 -392q0 -246 -119 -389t-345 -143q-91 0 -164 37t-113 94v-533h-213zM450 767q-73 -92 -73 -251t73 -251q74 -93 191 -93t190 93q74 94 74 251t-74 251q-73 93 -190 93t-191 -93z" />
    <glyph glyph-name="afii10083" unicode="&#x441;" horiz-adv-x="1110" 
d="M586 1049q322 0 446 -285l-190 -82q-79 178 -256 178q-132 0 -196 -94t-64 -250t64 -250t196 -94q177 0 256 178l190 -82q-125 -286 -446 -284q-234 0 -360 152q-126 151 -126 380q0 227 126 380t360 153z" />
    <glyph glyph-name="afii10084" unicode="&#x442;" horiz-adv-x="911" 
d="M72 844v188h768v-188h-279v-844h-213v844h-276z" />
    <glyph glyph-name="afii10085" unicode="&#x443;" horiz-adv-x="960" 
d="M16 1032h226l243 -694l236 694h225l-522 -1450h-213l168 469z" />
    <glyph glyph-name="afii10086" unicode="&#x444;" horiz-adv-x="1470" 
d="M629 1049v401h213v-401q237 0 382 -154q146 -155 146 -379t-147 -379q-145 -153 -381 -153v-402h-213v402q-237 0 -383 153t-146 379q0 224 146 379q147 154 383 154zM616 172h13v688h-13q-132 0 -212 -101q-78 -101 -78 -243q0 -144 78 -244q79 -100 212 -100zM842 172
h12q133 0 212 100t79 244q0 143 -79 243q-80 101 -212 101h-12v-688z" />
    <glyph glyph-name="afii10087" unicode="&#x445;" horiz-adv-x="962" 
d="M27 0l340 545l-304 487h230l188 -303l189 303h229l-303 -487l340 -545h-229l-226 360l-225 -360h-229z" />
    <glyph glyph-name="afii10088" unicode="&#x446;" horiz-adv-x="1155" 
d="M176 0v1032h213v-844h387v844h213v-844h72l-25 -421h-192v233h-668z" />
    <glyph glyph-name="afii10089" unicode="&#x447;" horiz-adv-x="1179" 
d="M164 498v534h213v-467q0 -188 160 -188q147 0 254 203v452h213v-1032h-213v326q-82 -75 -154 -107q-69 -31 -170 -31q-137 0 -220 81q-83 83 -83 229z" />
    <glyph glyph-name="afii10090" unicode="&#x448;" horiz-adv-x="1691" 
d="M176 0v1032h213v-844h350v844h213v-844h351v844h213v-1032h-1340z" />
    <glyph glyph-name="afii10091" unicode="&#x449;" horiz-adv-x="1681" 
d="M176 0v1032h213v-844h350v844h213v-844h351v844h213v-844h71l-24 -421h-193v233h-1194z" />
    <glyph glyph-name="afii10092" unicode="&#x44a;" horiz-adv-x="1126" 
d="M72 844v188h391v-393h217q160 0 252 -87t92 -233q0 -145 -92 -232t-252 -87h-430v844h-178zM463 188h166q180 0 180 131q0 132 -180 132h-166v-263z" />
    <glyph glyph-name="afii10093" unicode="&#x44b;" horiz-adv-x="1583" 
d="M176 0v1032h213v-393h217q160 0 252 -87t92 -233q0 -145 -92 -232t-252 -87h-430zM389 188h166q180 0 180 131q0 132 -180 132h-166v-263zM1194 0v1032h213v-1032h-213z" />
    <glyph glyph-name="afii10094" unicode="&#x44c;" horiz-adv-x="1052" 
d="M176 0v1032h213v-393h217q160 0 252 -87t92 -233q0 -145 -92 -232t-252 -87h-430zM389 188h166q180 0 180 131q0 132 -180 132h-166v-263z" />
    <glyph glyph-name="afii10095" unicode="&#x44d;" horiz-adv-x="1118" 
d="M78 242l182 96q88 -166 258 -166q113 0 182.5 65.5t87.5 184.5h-469v188h469q-18 117 -87.5 183.5t-182.5 66.5q-170 0 -258 -166l-182 97q135 258 440 258q236 0 368 -152q132 -151 132 -381t-132 -381t-368 -151q-305 0 -440 258z" />
    <glyph glyph-name="afii10096" unicode="&#x44e;" horiz-adv-x="1730" 
d="M176 0v1032h213v-422h164q27 189 161 314t341 125q231 0 369 -154q139 -154 139 -379t-139 -379q-138 -153 -369 -153q-207 0 -341 122q-134 124 -161 316h-164v-422h-213zM847 758q-75 -100 -75 -242q0 -141 75 -243q75 -101 208 -101t207 101q75 102 75 243
q0 139 -75 242q-75 102 -207 102q-133 0 -208 -102z" />
    <glyph glyph-name="afii10097" unicode="&#x44f;" horiz-adv-x="999" 
d="M49 0l266 475q-96 30 -149 100t-53 173q0 130 90 206q90 78 237 78h383v-1032h-213v463h-84l-247 -463h-230zM434 651h176v193h-176q-121 0 -121 -97q0 -96 121 -96z" />
    <glyph glyph-name="uni0450" unicode="&#x450;" horiz-adv-x="1144" 
d="M582 1049q117 0 211.5 -44.5t150.5 -120.5q113 -150 113 -335v-92h-731q0 -121 67 -203t189 -82q87 0 159 46.5t111 127.5l182 -72q-78 -152 -180 -221t-272 -69q-120 0 -216.5 47t-152.5 128q-113 163 -113 357q0 196 113 357q56 81 152.5 128.5t216.5 47.5zM276 1450
h289l140 -303h-164zM330 635h501q-13 95 -78 160q-63 65 -171 65q-102 0 -168 -63q-66 -61 -84 -162z" />
    <glyph glyph-name="afii10071" unicode="&#x451;" horiz-adv-x="1144" 
d="M582 1049q117 0 211.5 -44.5t150.5 -120.5q113 -150 113 -335v-92h-731q0 -121 67 -203t189 -82q87 0 159 46.5t111 127.5l182 -72q-78 -152 -180 -221t-272 -69q-120 0 -216.5 47t-152.5 128q-113 163 -113 357q0 196 113 357q56 81 152.5 128.5t216.5 47.5zM299 1241
q-37 37 -37 92q0 56 37 92q37 37 92 37t92 -37q37 -36 37 -92q0 -55 -37 -92t-92 -37t-92 37zM330 635h501q-13 95 -78 160q-63 65 -171 65q-102 0 -168 -63q-66 -61 -84 -162zM680 1241q-37 37 -37 92q0 56 37 92q37 37 92 37t92 -37q37 -36 37 -92q0 -55 -37 -92t-92 -37
t-92 37z" />
    <glyph glyph-name="afii10099" unicode="&#x452;" horiz-adv-x="1204" 
d="M37 1153v172h139v125h213v-125h250v-172h-250v-297q133 193 348 193q147 0 226 -81t79 -241v-680q0 -204 -93.5 -321t-282.5 -160l-54 186q108 33 163 95q54 61 54 180v645q0 111 -41 149q-40 39 -120 39q-98 0 -189 -117q-90 -115 -90 -307v-436h-213v1153h-139z" />
    <glyph glyph-name="afii10100" unicode="&#x453;" horiz-adv-x="882" 
d="M176 0v1032h678v-188h-465v-844h-213zM336 1147l139 303h289l-264 -303h-164z" />
    <glyph glyph-name="afii10101" unicode="&#x454;" horiz-adv-x="1118" 
d="M600 1049q305 0 440 -258l-182 -97q-88 166 -258 166q-113 0 -182.5 -66.5t-87.5 -183.5h469v-188h-469q18 -119 87.5 -184.5t182.5 -65.5q170 0 258 166l182 -96q-135 -258 -440 -258q-236 0 -368 151t-132 381t132 381q134 152 368 152z" />
    <glyph glyph-name="afii10102" unicode="&#x455;" horiz-adv-x="921" 
d="M82 260l180 98q82 -186 227 -186q139 0 140 135q0 51 -54 83q-27 17 -52 28q-4 2 -69 27l-71 28q-221 87 -221 283q0 122 90 208q89 85 227 85q93 0 174.5 -44t130.5 -120l-135 -119q-73 94 -180 94q-44 0 -73 -27.5t-29 -74.5t41 -78t143 -70q43 -16 85 -34
q39 -17 76 -41q40 -25 67 -55q61 -73 61 -169q0 -137 -99 -232q-98 -95 -260 -95q-148 0 -250 81t-149 195z" />
    <glyph glyph-name="afii10103" unicode="&#x456;" horiz-adv-x="544" 
d="M167 1220q-42 42 -42 103q0 62 43 105q43 45 104 45q62 0 105 -45q43 -43 43 -105q0 -61 -42 -103t-106 -42q-63 0 -105 42zM166 0v1032h213v-1032h-213z" />
    <glyph glyph-name="afii10104" unicode="&#x457;" horiz-adv-x="544" 
d="M-10 1241q-37 37 -37 92q0 56 37 92q37 37 92 37t92 -37q37 -36 37 -92q0 -55 -37 -92t-92 -37t-92 37zM166 0v1032h213v-1032h-213zM371 1241q-37 37 -37 92q0 56 37 92q37 37 92 37t92 -37q37 -36 37 -92q0 -55 -37 -92t-92 -37t-92 37z" />
    <glyph glyph-name="afii10105" unicode="&#x458;" horiz-adv-x="544" 
d="M-51 -248q108 33 163 95q54 61 54 180v1005h213v-985q0 -204 -94 -321t-283 -160zM167 1220q-42 42 -42 103q0 62 43 105q43 45 104 45q62 0 105 -45q43 -43 43 -105q0 -61 -42 -103t-106 -42q-63 0 -105 42z" />
    <glyph glyph-name="afii10106" unicode="&#x459;" horiz-adv-x="1630" 
d="M76 0v188q179 0 194 156l68 688h629v-393h217q160 0 252 -87t92 -233q0 -145 -93 -232q-91 -87 -251 -87h-430v844h-228l-61 -574q-17 -163 -110 -216q-93 -54 -279 -54zM967 188h166q180 0 180 131q0 132 -180 132h-166v-263z" />
    <glyph glyph-name="afii10107" unicode="&#x45a;" horiz-adv-x="1669" 
d="M172 0v1032h213v-393h408v393h213v-393h217q161 0 252 -87q92 -87 92 -233q0 -145 -93 -232q-92 -87 -251 -87h-430v451h-408v-451h-213zM1006 188h165q180 0 180 131q1 132 -180 132h-165v-263z" />
    <glyph glyph-name="afii10108" unicode="&#x45b;" horiz-adv-x="1204" 
d="M37 1153v172h139v125h213v-125h250v-172h-250v-297q133 193 348 193q147 0 226 -81t79 -241v-727h-213v672q0 188 -161 188q-98 0 -189 -117q-90 -115 -90 -307v-436h-213v1153h-139z" />
    <glyph glyph-name="afii10109" unicode="&#x45c;" horiz-adv-x="1075" 
d="M176 0v1032h213v-411l373 411h270l-432 -475l459 -557h-271l-399 494v-494h-213zM428 1147l139 303h289l-264 -303h-164z" />
    <glyph glyph-name="uni045D" unicode="&#x45d;" horiz-adv-x="1212" 
d="M176 0v1032h213v-698l412 698h235v-1032h-213v698l-411 -698h-236zM330 1450h288l140 -303h-164z" />
    <glyph glyph-name="afii10110" unicode="&#x45e;" horiz-adv-x="960" 
d="M16 1032h226l243 -694l236 694h225l-522 -1450h-213l168 469zM250 1434h166q0 -33 19.5 -52.5t49.5 -19.5q31 0 50.5 19.5t19.5 52.5h166q0 -92 -67 -158q-66 -66 -169 -66q-101 0 -169 66q-66 66 -66 158z" />
    <glyph glyph-name="afii10193" unicode="&#x45f;" horiz-adv-x="1167" 
d="M176 0v1032h213v-844h389v844h213v-1032h-301v-233h-213v233h-301z" />
    <glyph glyph-name="uni2000" unicode="&#x2000;" horiz-adv-x="1130" 
 />
    <glyph glyph-name="uni2001" unicode="&#x2001;" horiz-adv-x="2260" 
 />
    <glyph glyph-name="uni2002" unicode="&#x2002;" horiz-adv-x="1130" 
 />
    <glyph glyph-name="uni2003" unicode="&#x2003;" horiz-adv-x="2260" 
 />
    <glyph glyph-name="uni2004" unicode="&#x2004;" horiz-adv-x="753" 
 />
    <glyph glyph-name="uni2005" unicode="&#x2005;" horiz-adv-x="565" 
 />
    <glyph glyph-name="uni2006" unicode="&#x2006;" horiz-adv-x="376" 
 />
    <glyph glyph-name="uni2007" unicode="&#x2007;" horiz-adv-x="376" 
 />
    <glyph glyph-name="uni2008" unicode="&#x2008;" horiz-adv-x="282" 
 />
    <glyph glyph-name="uni2009" unicode="&#x2009;" horiz-adv-x="450" 
 />
    <glyph glyph-name="uni200A" unicode="&#x200a;" horiz-adv-x="124" 
 />
    <glyph glyph-name="uni2010" unicode="&#x2010;" horiz-adv-x="1001" 
d="M139 555v188h723v-188h-723z" />
    <glyph glyph-name="uni2011" unicode="&#x2011;" horiz-adv-x="1001" 
d="M139 555v188h723v-188h-723z" />
    <glyph glyph-name="figuredash" unicode="&#x2012;" horiz-adv-x="1001" 
d="M139 555v188h723v-188h-723z" />
    <glyph glyph-name="endash" unicode="&#x2013;" horiz-adv-x="1189" 
d="M139 555v188h912v-188h-912z" />
    <glyph glyph-name="emdash" unicode="&#x2014;" horiz-adv-x="1595" 
d="M139 555v188h1317v-188h-1317z" />
    <glyph glyph-name="quoteleft" unicode="&#x2018;" horiz-adv-x="651" 
d="M111 1450h292l152 -455h-160z" />
    <glyph glyph-name="quoteright" unicode="&#x2019;" horiz-adv-x="651" 
d="M96 995l152 455h293l-285 -455h-160z" />
    <glyph glyph-name="quotesinglbase" unicode="&#x201a;" horiz-adv-x="651" 
d="M96 -29l152 455h293l-285 -455h-160z" />
    <glyph glyph-name="quotedblleft" unicode="&#x201c;" horiz-adv-x="1056" 
d="M111 1450h292l152 -455h-160zM516 1450h293l152 -455h-160z" />
    <glyph glyph-name="quotedblright" unicode="&#x201d;" horiz-adv-x="1056" 
d="M96 995l152 455h293l-285 -455h-160zM502 995l151 455h293l-284 -455h-160z" />
    <glyph glyph-name="quotedblbase" unicode="&#x201e;" horiz-adv-x="1056" 
d="M96 -29l152 455h293l-285 -455h-160zM502 -29l151 455h293l-284 -455h-160z" />
    <glyph glyph-name="dagger" unicode="&#x2020;" horiz-adv-x="954" 
d="M115 844v188h260v504h205v-504h260v-188h-260v-946h-205v946h-260z" />
    <glyph glyph-name="daggerdbl" unicode="&#x2021;" horiz-adv-x="954" 
d="M115 401v189h260v254h-260v188h260v504h205v-504h260v-188h-260v-254h260v-189h-260v-503h-205v503h-260z" />
    <glyph glyph-name="bullet" unicode="&#x2022;" horiz-adv-x="761" 
d="M228 523q-62 62 -62 153q0 90 62 152q63 63 153 63q89 0 152 -63t63 -152q0 -90 -63 -153q-62 -62 -152 -62q-91 0 -153 62z" />
    <glyph glyph-name="ellipsis" unicode="&#x2026;" horiz-adv-x="1748" 
d="M218 34q-44 44 -44 107q0 64 44 108t107 44q64 0 108 -44t44 -108q0 -63 -44 -107t-108 -44q-63 0 -107 44zM767 34q-44 44 -44 107q0 64 44 108t107 44q64 0 108 -44t44 -108q0 -63 -44 -107t-108 -44q-63 0 -107 44zM1316 34q-44 44 -44 107q0 64 44 108t107 44
q64 0 108 -44t44 -108q0 -63 -44 -107t-108 -44q-63 0 -107 44z" />
    <glyph glyph-name="uni202F" unicode="&#x202f;" horiz-adv-x="450" 
 />
    <glyph glyph-name="perthousand" unicode="&#x2030;" horiz-adv-x="2539" 
d="M209 890q-96 94 -96 232t96 233q97 95 235 95q139 0 236 -95q96 -95 96 -233t-96 -232q-97 -95 -236 -95q-138 0 -235 95zM254 27l1104 1474l119 -92l-1104 -1475zM334 1236q-41 -44 -41 -114q0 -69 41 -113t110 -44q70 0 111 44t41 113q0 70 -41 114t-111 44
q-69 0 -110 -44zM1040 79q-96 94 -96 232q0 139 96 233q98 95 236 95t235 -95q97 -94 97 -233q0 -138 -97 -232q-97 -95 -235 -95t-236 95zM1165 425q-41 -44 -41 -114q0 -69 41 -113t111 -44q69 0 110 44t41 113q0 70 -41 114t-110 44q-70 0 -111 -44zM1859 79
q-96 94 -96 232q0 139 96 233q98 95 236 95t235 -95q97 -94 97 -233q0 -138 -97 -232q-97 -95 -235 -95t-236 95zM1984 425q-40 -43 -40 -114q0 -70 40 -113q41 -44 111 -44t111 44t41 113q0 70 -41 114t-111 44t-111 -44z" />
    <glyph glyph-name="guilsinglleft" unicode="&#x2039;" horiz-adv-x="802" 
d="M94 561v148l600 421v-219l-387 -276l387 -277v-219z" />
    <glyph glyph-name="guilsinglright" unicode="&#x203a;" horiz-adv-x="802" 
d="M109 139v219l387 277l-387 276v219l600 -421v-148z" />
    <glyph glyph-name="fraction" unicode="&#x2044;" horiz-adv-x="1251" 
d="M14 27l1104 1474l119 -92l-1104 -1475z" />
    <glyph glyph-name="uni205F" unicode="&#x205f;" horiz-adv-x="565" 
 />
    <glyph glyph-name="uni2070" unicode="&#x2070;" horiz-adv-x="831" 
d="M177 716q-87 111 -87 308q0 198 87 307q87 111 238 111q152 0 239 -111q87 -109 87 -307q0 -197 -87 -308q-87 -110 -239 -110q-151 0 -238 110zM299 1226q-45 -68 -45 -202q0 -136 45 -203t116 -67q72 0 117 67q46 67 46 203q0 135 -46 202q-45 68 -117 68
q-71 0 -116 -68z" />
    <glyph glyph-name="uni2074" unicode="&#x2074;" horiz-adv-x="704" 
d="M61 760v71l328 603h172v-527h90v-147h-90v-146h-158v146h-342zM252 907h151v293z" />
    <glyph glyph-name="uni2075" unicode="&#x2075;" horiz-adv-x="706" 
d="M92 838l154 20q20 -104 119 -104q124 0 124 129q-1 141 -124 141q-76 0 -132 -59l-124 26l45 443h444v-148h-311l-25 -168q51 39 135 39q117 0 186 -77q70 -76 70 -197q0 -125 -81 -201q-79 -76 -207 -76q-105 0 -185 65q-77 64 -88 167z" />
    <glyph glyph-name="uni2076" unicode="&#x2076;" horiz-adv-x="749" 
d="M96 874q0 90 39 160l227 408h181l-183 -305q21 8 50 8q109 0 178 -73q69 -74 69 -198q0 -119 -78 -194q-77 -74 -202 -74t-203 75q-78 77 -78 193zM260 874q0 -53 33 -86.5t84 -33.5t84 33.5t33 86.5q0 54 -33 88.5t-84 34.5t-84 -34.5t-33 -88.5z" />
    <glyph glyph-name="uni2077" unicode="&#x2077;" horiz-adv-x="692" 
d="M88 1286v148h512v-62l-311 -758h-164l276 672h-313z" />
    <glyph glyph-name="uni2078" unicode="&#x2078;" horiz-adv-x="729" 
d="M92 866q0 126 119 191q-41 23 -66.5 68.5t-25.5 95.5q0 94 67 157q67 64 178 64t178 -64q68 -63 68 -157q0 -49 -25.5 -96t-66.5 -68q119 -63 119 -191q0 -120 -75 -190q-74 -70 -198 -70q-123 0 -197 70q-75 70 -75 190zM283 948q-27 -30 -27 -82t27 -82t81 -30t81 30
q28 31 28 82t-28 82t-81 31t-81 -31zM291 1294q-27 -28 -27 -73t27 -74q29 -29 73 -29q46 0 73 29q28 28 28 74q0 45 -28 73q-27 29 -73 29q-44 0 -73 -29z" />
    <glyph glyph-name="uni2079" unicode="&#x2079;" horiz-adv-x="749" 
d="M92 1174q0 120 78 193q78 75 203 75q126 0 202 -76q78 -76 78 -192q0 -90 -39 -160l-227 -408h-180l180 303q-13 -6 -47 -6q-109 0 -179 73q-69 74 -69 198zM256 1174q0 -54 33 -88.5t84 -34.5t83.5 33.5t32.5 89.5q0 53 -32.5 86.5t-83.5 33.5t-84 -33.5t-33 -86.5z" />
    <glyph glyph-name="uni2080" unicode="&#x2080;" horiz-adv-x="831" 
d="M177 -315q-87 109 -87 307q0 196 87 307t238 111q152 0 239 -111t87 -307q0 -198 -87 -307q-87 -111 -239 -111q-151 0 -238 111zM299 194q-45 -68 -45 -202q0 -136 45 -203q45 -68 116 -68q72 0 117 68q46 67 46 203q0 135 -46 202q-45 68 -117 68q-71 0 -116 -68z" />
    <glyph glyph-name="uni2081" unicode="&#x2081;" horiz-adv-x="610" 
d="M111 98v174l268 129h61v-819h-157v598z" />
    <glyph glyph-name="uni2082" unicode="&#x2082;" horiz-adv-x="780" 
d="M119 -356l309 381q51 63 51 137q0 47 -25 73.5t-67 26.5q-101 0 -111 -123l-149 41q11 101 83 165q74 65 177 65q115 0 186 -66q70 -66 70 -178q0 -110 -80 -207l-188 -229h284v-148h-540v62z" />
    <glyph glyph-name="uni2083" unicode="&#x2083;" horiz-adv-x="794" 
d="M119 -178l143 20q8 -56 44.5 -88.5t88.5 -32.5q115 0 115 138q0 59 -30.5 92t-84.5 33q-44 0 -78 -25l-73 96l149 199h-239v147h471v-59l-187 -246q104 0 170 -70q66 -69 66 -173q0 -127 -72 -203t-207 -76q-119 0 -195 70q-75 69 -81 178z" />
    <glyph glyph-name="uni2084" unicode="&#x2084;" horiz-adv-x="704" 
d="M61 -201l328 602h172v-526h90v-147h-90v-146h-158v146h-342v71zM252 -125h151v293z" />
    <glyph glyph-name="uni2085" unicode="&#x2085;" horiz-adv-x="706" 
d="M92 -195l154 21q20 -105 119 -105q62 -1 93 31.5t31 97.5q-1 141 -124 142q-77 0 -132 -60l-124 27l45 442h444v-147h-311l-25 -168q51 39 135 39q117 0 186 -77q70 -76 70 -198q0 -124 -81 -200t-207 -76q-105 0 -185 65q-78 64 -88 166z" />
    <glyph glyph-name="uni2086" unicode="&#x2086;" horiz-adv-x="749" 
d="M96 -158q0 90 39 160l227 408h181l-183 -306q23 9 50 9q108 1 178 -73q69 -74 69 -198q0 -118 -78 -193t-202 -75q-126 0 -203 76q-78 75 -78 192zM260 -158q0 -53 33 -87t84 -34t84 34t33 87q0 54 -33 88.5t-84 34.5t-84 -34.5t-33 -88.5z" />
    <glyph glyph-name="uni2087" unicode="&#x2087;" horiz-adv-x="692" 
d="M88 254v147h512v-61l-311 -758h-164l276 672h-313z" />
    <glyph glyph-name="uni2088" unicode="&#x2088;" horiz-adv-x="729" 
d="M92 -166q0 126 119 191q-41 23 -66.5 68.5t-25.5 94.5q0 94 67 158t178 64t178 -64q68 -63 68 -158q0 -49 -25.5 -95.5t-66.5 -67.5q119 -63 119 -191q0 -118 -75 -189q-76 -71 -198 -71q-121 0 -197 71q-75 71 -75 189zM283 -84q-27 -32 -27 -82t27 -82q28 -31 81 -31
q54 0 81 31q28 31 28 82t-28 82q-27 31 -81 31q-53 0 -81 -31zM291 262q-27 -28 -27 -74t27 -74q28 -28 73 -28q46 0 73 28q28 28 28 74t-28 74q-27 29 -73 29q-44 0 -73 -29z" />
    <glyph glyph-name="uni2089" unicode="&#x2089;" horiz-adv-x="749" 
d="M92 150q0 120 78 193q78 75 203 75q126 0 202 -76q78 -76 78 -192q0 -90 -39 -160l-227 -408h-180l180 303q-13 -6 -47 -6q-109 0 -179 73q-69 74 -69 198zM256 150q0 -54 33 -88.5t84 -34.5t83.5 33.5t32.5 89.5q0 53 -32.5 86.5t-83.5 33.5t-84 -33.5t-33 -86.5z" />
    <glyph glyph-name="Euro" unicode="&#x20ac;" horiz-adv-x="1296" 
d="M59 467l95 188h90v123h-185l95 189h106q44 239 186 360q144 123 353 123q293 0 418 -233l-181 -103q-89 143 -237 143q-260 0 -320 -290h436l-94 -189h-360v-123h454l-94 -188h-342q57 -291 320 -291q150 0 237 143l181 -102q-125 -233 -418 -233q-210 0 -353 122
q-142 121 -186 361h-201z" />
    <glyph glyph-name="numero" unicode="&#x2116;" horiz-adv-x="2560" 
d="M193 0v1434h241l588 -1033v1033h225v-1434h-241l-588 1028v-1028h-225zM1582 538q-138 154 -138 379q0 226 138 379q138 154 369 154t370 -154t139 -379t-139 -379q-138 -153 -370 -153q-231 0 -369 153zM1497 0v188h911v-188h-911zM1744 1160q-75 -100 -75 -243
q0 -141 75 -243q75 -101 208 -101t207 101q75 102 75 243q0 140 -75 243q-75 102 -207 102q-133 0 -208 -102z" />
    <glyph glyph-name="trademark" unicode="&#x2122;" horiz-adv-x="1703" 
d="M51 1278v156h602v-156h-215v-664h-172v664h-215zM780 614v820h174l207 -500l207 500h174v-820h-172v463l-153 -387h-111l-154 387v-463h-172z" />
    <glyph glyph-name="uni2126" unicode="&#x2126;" horiz-adv-x="1417" 
d="M147 0v193h263l-23 38q-8 13 -50 102q-34 72 -64 156q-28 82 -50 193q-22 110 -22 219q0 235 140 392q139 157 367 157q227 0 368 -157q141 -158 141 -392q0 -166 -53 -345q-53 -180 -103 -269l-53 -94h262v-193h-477v74q2 4 9.5 19.5t12.5 26.5q16 35 50 122
q35 90 63 185q26 85 50 224q23 133 23 250q0 356 -293 356q-292 0 -292 -356q0 -190 52 -395q53 -208 105 -320l52 -112v-74h-478z" />
    <glyph glyph-name="onethird" unicode="&#x2153;" horiz-adv-x="1859" 
d="M152 1130v175l268 129h61v-820h-157v598zM254 27l1104 1474l119 -92l-1104 -1475zM1149 240l143 20q8 -56 44.5 -88.5t88.5 -32.5q115 0 115 137q0 59 -30.5 92t-84.5 33q-43 0 -77 -24l-74 96l149 199h-239v147h471v-59l-187 -246q104 0 170 -70q66 -69 66 -174
q0 -129 -72.5 -203.5t-206.5 -74.5q-120 0 -195 69t-81 179z" />
    <glyph glyph-name="twothirds" unicode="&#x2154;" horiz-adv-x="1914" 
d="M78 614v62l309 381q51 63 51 137q0 47 -25 73.5t-67 26.5q-100 0 -110 -123l-150 41q11 101 83 165q74 65 177 65q115 0 186 -66q70 -66 70 -178q0 -110 -80 -207l-188 -229h284v-148h-540zM317 27l1104 1474l119 -92l-1104 -1475zM1204 240l144 20q8 -56 44.5 -88.5
t88.5 -32.5q116 0 114 137q0 59 -30.5 92t-83.5 33q-43 0 -78 -24l-74 96l150 199h-240v147h471v-59l-186 -246q103 0 169 -70q66 -71 66 -174q0 -129 -72.5 -203.5t-205.5 -74.5q-119 0 -195 69q-76 70 -82 179z" />
    <glyph glyph-name="oneeighth" unicode="&#x215b;" horiz-adv-x="1802" 
d="M152 1130v175l268 129h61v-820h-157v598zM254 27l1104 1474l119 -92l-1104 -1475zM1116 252q0 127 119 190q-41 23 -66.5 69t-25.5 95q0 94 67 157q67 64 178 64t178 -64q68 -63 68 -157q0 -49 -25.5 -95t-66.5 -69q119 -63 119 -190q0 -120 -75 -190q-74 -70 -198 -70
q-123 0 -197 70q-75 71 -75 190zM1307 334q-27 -32 -27 -82t27 -82q28 -31 81 -31q54 0 81 31q28 31 28 82t-28 82q-27 31 -81 31q-53 0 -81 -31zM1315 680q-27 -28 -27 -74t27 -74q28 -28 73 -28q46 0 73 28q28 28 28 74t-28 74q-27 29 -73 29q-44 0 -73 -29z" />
    <glyph glyph-name="threeeighths" unicode="&#x215c;" horiz-adv-x="1857" 
d="M119 854l143 20q8 -56 44.5 -88t88.5 -32q115 0 115 137q0 59 -30.5 92t-84.5 33q-44 0 -78 -25l-73 96l149 199h-239v148h471v-60l-187 -246q104 0 170 -70q66 -69 66 -173q0 -127 -72 -203t-207 -76q-120 0 -195 69t-81 179zM309 27l1104 1474l119 -92l-1104 -1475z
M1171 252q0 127 119 190q-41 23 -66.5 69t-25.5 95q0 94 67 157q67 64 178 64q112 0 179 -64q68 -63 68 -157q0 -49 -26 -95t-67 -69q119 -63 119 -190q0 -120 -75 -190q-73 -70 -197 -70t-198 70q-75 71 -75 190zM1363 334q-28 -31 -28 -82t28 -82t81 -31t80 31
q28 31 28 82t-28 82q-27 31 -80 31t-81 -31zM1371 680q-28 -28 -28 -74t28 -74t73 -28t72 28q28 28 28 74t-28 74q-27 29 -72 29q-44 0 -73 -29z" />
    <glyph glyph-name="fiveeighths" unicode="&#x215d;" horiz-adv-x="1857" 
d="M92 838l154 20q20 -104 119 -104q124 0 124 129q-1 141 -124 141q-76 0 -132 -59l-124 26l45 443h444v-148h-311l-25 -168q51 39 135 39q117 0 186 -77q70 -76 70 -197q0 -125 -81 -201q-79 -76 -207 -76q-105 0 -185 65q-77 64 -88 167zM309 27l1104 1474l119 -92
l-1104 -1475zM1171 252q0 127 119 190q-41 23 -66.5 69t-25.5 95q0 94 67 157q67 64 178 64q112 0 179 -64q68 -63 68 -157q0 -49 -26 -95t-67 -69q119 -63 119 -190q0 -120 -75 -190q-73 -70 -197 -70t-198 70q-75 71 -75 190zM1363 334q-28 -31 -28 -82t28 -82t81 -31
t80 31q28 31 28 82t-28 82q-27 31 -80 31t-81 -31zM1371 680q-28 -28 -28 -74t28 -74t73 -28t72 28q28 28 28 74t-28 74q-27 29 -72 29q-44 0 -73 -29z" />
    <glyph glyph-name="seveneighths" unicode="&#x215e;" horiz-adv-x="1726" 
d="M115 1286v148h512v-62l-312 -758h-163l276 672h-313zM178 27l1104 1474l119 -92l-1104 -1475zM1040 252q0 127 119 190q-41 23 -66.5 69t-25.5 95q0 94 67 157q67 64 178 64q112 0 179 -64q68 -63 68 -157q0 -49 -26 -95t-67 -69q119 -63 119 -190q0 -120 -75 -190
q-73 -70 -197 -70t-198 70q-75 71 -75 190zM1232 334q-28 -31 -28 -82t28 -82t81 -31t80 31q28 31 28 82t-28 82q-27 31 -80 31t-81 -31zM1240 680q-28 -28 -28 -74t28 -74t73 -28t72 28q28 28 28 74t-28 74q-27 29 -72 29q-44 0 -73 -29z" />
    <glyph glyph-name="partialdiff" unicode="&#x2202;" horiz-adv-x="1247" 
d="M94 436q0 262 163 437q164 176 437 176q130 0 201 -62q-39 273 -270 275q-72 0 -132 -44t-87 -122l-211 63q40 125 160 209q119 82 268 82q270 0 385 -172q116 -173 116 -537q0 -310 -135 -523q-70 -111 -194 -172.5t-287 -61.5q-193 0 -304 124q-110 125 -110 328z
M319 446q0 -125 54 -199q54 -75 164 -75q156 0 252 130t96 294q0 264 -215 264q-154 0 -253 -127q-98 -128 -98 -287z" />
    <glyph glyph-name="uni2206" unicode="&#x2206;" horiz-adv-x="1396" 
d="M106 0v53l502 1381h180l502 -1381v-53h-1184zM367 193h663l-332 954z" />
    <glyph glyph-name="product" unicode="&#x220f;" horiz-adv-x="1161" 
d="M184 0v1434h793v-1434h-213v1241h-367v-1241h-213z" />
    <glyph glyph-name="summation" unicode="&#x2211;" horiz-adv-x="1120" 
d="M113 0v92l393 625l-393 624v93h880v-193h-590l316 -500v-49l-316 -499h590v-193h-880z" />
    <glyph glyph-name="minus" unicode="&#x2212;" horiz-adv-x="1169" 
d="M131 555v188h911v-188h-911z" />
    <glyph glyph-name="radical" unicode="&#x221a;" horiz-adv-x="1200" 
d="M113 604v193h344l164 -494l331 1147h201l-444 -1450h-170l-201 604h-225z" />
    <glyph glyph-name="infinity" unicode="&#x221e;" horiz-adv-x="1810" 
d="M500 1126q114 0 223 -51q112 -52 182 -151q71 99 182 151q111 51 224 51q181 0 284 -108t103 -283q0 -177 -103 -284q-102 -107 -284 -107q-113 0 -224 51q-110 51 -182 152q-71 -99 -183 -152q-110 -51 -222 -51q-183 0 -285 107q-102 106 -102 284q0 177 102 283
q102 108 285 108zM530 532q68 0 141 49t128 154q-52 102 -127 153q-74 50 -142 50q-94 0 -149 -53t-55 -150t55 -150t149 -53zM1012 735q53 -105 126 -154t142 -49q94 0 149.5 53t55.5 150t-55.5 150t-149.5 53q-68 0 -142 -50t-126 -153z" />
    <glyph glyph-name="integral" unicode="&#x222b;" horiz-adv-x="978" 
d="M-164 -397l78 180q50 -29 117 -29q139 0 170 162l229 1169q72 365 416 365q112 0 164 -37l-78 -180q-50 29 -117 29q-139 0 -170 -162l-229 -1170q-72 -366 -416 -364q-112 0 -164 37z" />
    <glyph glyph-name="approxequal" unicode="&#x2248;" horiz-adv-x="1263" 
d="M131 444q39 86 120 146q80 61 171 61q90 0 216 -53t189 -53q109 0 189 96l114 -123q-39 -86 -120 -147q-80 -60 -170 -60q-88 0 -214 53q-124 54 -192 54q-108 0 -188 -96zM133 854q39 86 120 146q80 61 171 61q92 0 215 -54q124 -53 190 -53q110 0 189 97l115 -123
q-39 -86 -120 -147q-81 -60 -171 -60q-88 0 -214 53t-192 53q-108 0 -188 -96z" />
    <glyph glyph-name="notequal" unicode="&#x2260;" horiz-adv-x="1157" 
d="M154 371v188h274l86 152h-360v188h467l124 219l164 -94l-71 -125h166v-188h-275l-86 -152h361v-188h-467l-125 -219l-164 94l71 125h-165z" />
    <glyph glyph-name="lessequal" unicode="&#x2264;" horiz-adv-x="1157" 
d="M106 0v188h936v-188h-936zM201 717v213l745 393v-227l-520 -273l520 -272v-227z" />
    <glyph glyph-name="greaterequal" unicode="&#x2265;" horiz-adv-x="1157" 
d="M115 0v188h936v-188h-936zM211 324v227l520 272l-520 273v227l745 -393v-213z" />
    <glyph glyph-name="lozenge" unicode="&#x25ca;" horiz-adv-x="1208" 
d="M131 717l371 717h205l370 -717l-370 -717h-205zM342 717l262 -533l262 533l-262 530z" />
    <glyph glyph-name="uniE000" unicode="&#xe000;" horiz-adv-x="1030" 
d="M0 1030h1030v-1030h-1030v1030z" />
    <glyph glyph-name="uniF8FF" unicode="&#xf8ff;" horiz-adv-x="1597" 
d="M193 45v1219q0 36 32 45l553 159q24 7 41 0l553 -159q33 -9 33 -45v-1219q0 -18 -13.5 -31.5t-31.5 -13.5q-4 0 -14 2l-547 158l-547 -158q-10 -2 -14 -2q-18 0 -31.5 13.5t-13.5 31.5zM281 104l473 138v417q-150 12 -275 89q-124 76 -198 200v-844zM283 1233
q12 -193 146 -330q133 -136 325 -153v620zM844 242l473 -138v844q-78 -125 -200 -200q-123 -75 -273 -89v-417zM844 750q190 16 324 153q135 137 147 330l-471 137v-620z" />
    <glyph glyph-name="uniFB01" unicode="&#xfb01;" horiz-adv-x="1148" 
d="M78 844v188h133v27q0 197 126 294q125 97 308 97q173 0 283 -59l-68 -177q-101 47 -209 48q-105 0 -167 -57q-60 -55 -60 -146v-27h561v-1032h-213v844h-348v-844h-213v844h-133z" />
    <glyph glyph-name="uniFB02" unicode="&#xfb02;" horiz-adv-x="1239" 
d="M78 844v188h133v53q0 179 90.5 272t255.5 93h518v-1450h-213v1262h-299q-139 0 -139 -162v-68h227v-188h-227v-844h-213v844h-133z" />
    <glyph glyph-name="NULL" horiz-adv-x="0" 
 />
    <glyph glyph-name="CR" horiz-adv-x="681" 
 />
    <glyph glyph-name="zero.tn" horiz-adv-x="1159" 
d="M196 178q-133 194 -133 539t133 538q134 195 383 195t383 -195q134 -194 134 -538q0 -343 -134 -539q-134 -194 -383 -194t-383 194zM355 1114q-74 -140 -74 -397q0 -258 74 -398q75 -139 224 -139q150 0 225 139t75 398q0 257 -75 397q-75 139 -225 139
q-149 0 -224 -139z" />
    <glyph glyph-name="one.tn" horiz-adv-x="1159" 
d="M258 967v229l397 238h88v-1434h-217v1126z" />
    <glyph glyph-name="two.tn" horiz-adv-x="1159" 
d="M125 0v90l528 678q72 94 91 141q24 59 24 125q0 102 -51 160.5t-146 58.5q-89 0 -144.5 -58.5t-68.5 -160.5l-204 39q11 163 127 269q119 108 290 108q184 0 300 -110t116 -298q0 -175 -119 -327l-407 -518h553v-197h-889z" />
    <glyph glyph-name="three.tn" horiz-adv-x="1159" 
d="M115 395l211 27q39 -242 258 -242q115 0 185 73q71 74 71 204q0 134 -71 207q-70 73 -185 73q-62 0 -125 -28l-86 114l297 414h-486v197h799v-74l-348 -475q25 6 59 6q164 0 263 -122q100 -121 100 -312q0 -205 -137 -339t-336 -134q-187 0 -322 116q-135 115 -147 295z
" />
    <glyph glyph-name="four.tn" horiz-adv-x="1159" 
d="M78 287v98l606 1049h229v-951h168v-196h-168v-287h-217v287h-618zM348 483h348v623z" />
    <glyph glyph-name="five.tn" horiz-adv-x="1159" 
d="M133 375l211 39q18 -118 79 -176t157 -58q116 0 177 78q62 79 62 209t-62 209q-61 78 -177 78q-164 0 -275 -148l-141 29l80 799h712v-197h-530l-43 -358q84 71 209 71q212 -2 327 -134q117 -134 117 -349q0 -214 -124 -348q-124 -135 -332 -135q-183 0 -305 103
q-123 104 -142 288z" />
    <glyph glyph-name="six.tn" horiz-adv-x="1159" 
d="M117 451q0 141 69 260l426 739h242l-313 -541q20 9 47 9q195 1 321 -132q125 -131 125 -335q0 -200 -130 -333q-131 -134 -329 -134q-197 0 -328 134q-130 133 -130 333zM334 451q0 -119 67 -195t174 -76t174 76q68 77 68 195q0 124 -67 197t-175 73t-175 -73
q-66 -72 -66 -197z" />
    <glyph glyph-name="seven.tn" horiz-adv-x="1159" 
d="M154 1237v197h847v-99l-548 -1335h-217l509 1237h-591z" />
    <glyph glyph-name="eight.tn" horiz-adv-x="1159" 
d="M121 422q0 236 196 350q-143 113 -143 291q0 161 114 274q116 113 291 113q176 0 291 -113q115 -112 115 -274q0 -174 -143 -291q197 -116 196 -350q0 -202 -133 -320t-326 -118q-192 0 -325 118t-133 320zM406 593q-68 -62 -68 -172q0 -111 69 -176t172 -65
q102 0 172 65q70 66 70 176q0 111 -69 172q-68 62 -173 62q-103 0 -173 -62zM385 1061q0 -88 55 -146q56 -57 140 -57t139 57q55 58 55 146q0 87 -55 143q-55 58 -139 58q-85 0 -140 -58q-55 -56 -55 -143z" />
    <glyph glyph-name="nine.tn" horiz-adv-x="1159" 
d="M125 983q0 200 130 333q131 134 328 134q198 0 329 -134q130 -133 130 -333q0 -141 -69 -260l-426 -739h-242l313 540q-18 -8 -47 -8q-197 0 -322 131q-124 130 -124 336zM342 983q0 -126 66 -198t175 -72t175 72q67 73 67 198q0 118 -68 194q-67 76 -174 76t-174 -76
q-67 -74 -67 -194z" />
    <glyph glyph-name="quotedblleft.alt" horiz-adv-x="1003" 
d="M121 1038q0 225 280 412l50 -59q-144 -122 -146 -222q106 -39 107 -139q0 -59 -40 -99t-102 -40q-69 0 -109 43t-40 104zM530 1038q0 224 281 412l49 -59q-145 -123 -145 -222q106 -39 106 -139q0 -59 -40 -99t-101 -40q-69 0 -109 43q-41 44 -41 104z" />
    <glyph glyph-name="quotedblright.alt" horiz-adv-x="1003" 
d="M143 950q144 122 146 221q-105 39 -107 140q0 59 40 99t102 40q68 0 108 -43q41 -44 41 -104q0 -225 -280 -412zM553 950q145 123 145 221q-106 39 -106 140q0 59 40 99t101 40q69 0 109 -43q41 -44 41 -104q0 -224 -281 -412z" />
    <glyph glyph-name="quoteleft.alt" horiz-adv-x="593" 
d="M121 1038q0 225 280 412l50 -59q-144 -122 -146 -222q106 -39 107 -139q0 -59 -40 -99t-102 -40q-69 0 -109 43t-40 104z" />
    <glyph glyph-name="quoteright.alt" horiz-adv-x="593" 
d="M143 950q144 122 146 221q-105 39 -107 140q0 59 40 99t102 40q68 0 108 -43q41 -44 41 -104q0 -225 -280 -412z" />
    <glyph glyph-name="quotesinglbase.alt" horiz-adv-x="593" 
d="M143 -168q144 122 146 221q-105 39 -107 140q0 59 40 99t102 40q68 0 108 -43q41 -44 41 -105q0 -225 -280 -411z" />
    <glyph glyph-name="quotedblbase.alt" horiz-adv-x="1003" 
d="M143 -168q144 122 146 221q-105 39 -107 140q0 59 40 99t102 40q68 0 108 -43q41 -44 41 -105q0 -225 -280 -411zM553 -168q145 123 145 221q-106 39 -106 140q0 59 40 99t101 40q69 0 109 -43q41 -44 41 -105q0 -225 -281 -411z" />
    <glyph glyph-name="arrow.l" horiz-adv-x="1339" 
d="M82 717l504 506l129 -133l-275 -279h797v-188h-797l275 -279l-129 -133z" />
    <glyph glyph-name="arrow.r" horiz-adv-x="1339" 
d="M102 623v188h797l-274 279l129 133l503 -506l-503 -506l-129 133l274 279h-797z" />
    <glyph glyph-name="arrow.u" horiz-adv-x="1323" 
d="M156 795l506 503l505 -503l-133 -129l-278 274v-797h-189v797l-278 -274z" />
    <glyph glyph-name="arrow.d" horiz-adv-x="1323" 
d="M156 647l133 129l278 -274v796h189v-796l278 274l133 -129l-505 -504z" />
    <glyph glyph-name="arrow.ul" horiz-adv-x="1325" 
d="M215 444v715h713v-188h-391l561 -563l-133 -134l-562 564v-394h-188z" />
    <glyph glyph-name="arrow.ur" horiz-adv-x="1325" 
d="M227 408l561 563h-391v188h713v-715h-188v394l-562 -564z" />
    <glyph glyph-name="arrow.dl" horiz-adv-x="1325" 
d="M215 274v715h188v-393l562 563l133 -133l-561 -563h391v-189h-713z" />
    <glyph glyph-name="arrow.dr" horiz-adv-x="1325" 
d="M227 1026l133 133l562 -563v393h188v-715h-713v189h391z" />
    <glyph glyph-name="arrow.l.xl" horiz-adv-x="1585" 
d="M82 717l504 506l129 -133l-275 -279h1043v-188h-1043l275 -279l-129 -133z" />
    <glyph glyph-name="arrow.r.xl" horiz-adv-x="1585" 
d="M102 623v188h1043l-275 279l129 133l504 -506l-504 -506l-129 133l275 279h-1043z" />
    <glyph glyph-name="arrow.u.xl" horiz-adv-x="1323" 
d="M156 913l506 504l505 -504l-133 -129l-278 275v-1043h-189v1043l-278 -275z" />
    <glyph glyph-name="arrow.d.xl" horiz-adv-x="1323" 
d="M156 520l133 129l278 -274v1042h189v-1042l278 274l133 -129l-505 -504z" />
    <glyph glyph-name="arrow.ul.xl" horiz-adv-x="1499" 
d="M215 530v715h715v-188h-391l733 -735l-133 -134l-736 734v-392h-188z" />
    <glyph glyph-name="arrow.ur.xl" horiz-adv-x="1499" 
d="M227 322l734 735h-392v188h715v-715h-188v392l-736 -734z" />
    <glyph glyph-name="arrow.dl.xl" horiz-adv-x="1499" 
d="M215 188v715h188v-391l736 733l133 -133l-733 -735h391v-189h-715z" />
    <glyph glyph-name="arrow.dr.xl" horiz-adv-x="1499" 
d="M227 1112l133 133l736 -733v391h188v-715h-715v189h392z" />
    <glyph glyph-name="dcaron.alt" horiz-adv-x="1603" 
d="M100 516q0 246 119 389q119 144 346 144q77 0 158 -40q82 -40 119 -91v532h213v-1450h-213v119q-28 -51 -108 -93t-173 -42q-224 0 -343 140q-118 139 -118 392zM399 767q-73 -92 -73 -251t73 -251q73 -93 191 -93q116 0 190 93q74 94 74 251t-74 251q-74 93 -190 93
q-118 0 -191 -93zM1182 950q145 123 145 221q-106 39 -106 140q0 59 39 99q40 40 102 40q68 0 108 -43q41 -44 41 -104q0 -225 -280 -412z" />
    <glyph glyph-name="uni0123.alt" horiz-adv-x="1046" 
d="M94 -94q0 127 88 209q-59 59 -59 161q0 137 125 209q-70 85 -70 217q0 157 104 252q106 95 265 95q103 0 188 -45l191 102l86 -154l-140 -78q46 -80 46 -172q1 -159 -105 -253q-103 -93 -266 -93q-89 0 -166 31q-55 -31 -55 -90q0 -80 106 -80h227q157 0 249 -76
q93 -75 93 -219q0 -180 -130 -268t-322 -88q-204 0 -329 88q-126 88 -126 252zM549 -250q111 0 173 41t62 115q0 131 -170 131h-165q-55 0 -105 6q-45 -46 -45 -125q0 -78 66 -123q67 -45 184 -45zM336 1298q0 225 280 412l50 -59q-144 -122 -146 -221q105 -39 107 -140
q0 -59 -40 -99t-102 -40q-69 0 -109 43t-40 104zM547 535q74 0 119 46t45 121q0 76 -45 122t-119 46q-72 0 -117 -46.5t-45 -121.5t45 -121t117 -46z" />
    <glyph glyph-name="lcaron.alt" horiz-adv-x="913" 
d="M172 0v1450h213v-1450h-213zM492 950q145 123 145 221q-105 39 -107 140q0 59 40 99t102 40q68 0 108 -43q41 -44 41 -104q0 -225 -280 -412z" />
    <glyph glyph-name="napostrophe.alt" horiz-adv-x="1492" 
d="M143 950q144 122 146 221q-105 39 -107 140q0 59 40 99t102 40q68 0 108 -43q41 -44 41 -104q0 -225 -280 -412zM489 0v1032h213v-176q54 92 142.5 142.5t191.5 50.5q138 0 220 -81q83 -81 83 -229v-739h-213v672q0 188 -159 188q-107 0 -186 -120q-79 -118 -79 -322
v-418h-213z" />
    <glyph glyph-name="tcaron.alt" horiz-adv-x="1163" 
d="M43 844v188h172v285l213 133v-418h268v-188h-268v-504q0 -168 137 -168q50 0 99 29l55 -181q-73 -36 -166 -36q-156 2 -246 93q-92 94 -92 275v492h-172zM768 950q145 123 145 221q-106 39 -106 140q0 59 40 99t101 40q69 0 109 -43q41 -44 41 -104q0 -224 -281 -412z
" />
    </font>
</defs>
</svg>
