<?xml version="1.0" standalone="no"?>
<!DOCTYPE svg PUBLIC "-//W3C//DTD SVG 20010904//EN"
 "http://www.w3.org/TR/2001/REC-SVG-20010904/DTD/svg10.dtd">
<svg version="1.0" xmlns="http://www.w3.org/2000/svg"
 width="700.000000pt" height="700.000000pt" viewBox="0 0 700.000000 700.000000"
 preserveAspectRatio="xMidYMid meet">
<metadata>
Created by potrace 1.14, written by Peter Selinger 2001-2017
</metadata>
<g transform="translate(0.000000,700.000000) scale(0.100000,-0.100000)"
fill="#000000" stroke="none">
<path d="M0 4148 c1 -2697 2 -2852 18 -2833 9 12 888 1003 1952 2204 l1935
2184 5 -1077 5 -1078 1111 1244 c611 684 1305 1460 1543 1726 l431 482 -3500
0 -3500 0 0 -2852z"/>
<path d="M5035 3497 l-1960 -2201 -5 1077 -5 1078 -1530 -1723 -1530 -1723
3494 -3 c1922 -1 3496 -1 3498 1 2 2 2 1284 1 2849 l-3 2846 -1960 -2201z"/>
</g>
</svg>
