<?xml version="1.0" standalone="no"?>
<!DOCTYPE svg PUBLIC "-//W3C//DTD SVG 20010904//EN"
 "http://www.w3.org/TR/2001/REC-SVG-20010904/DTD/svg10.dtd">
<svg version="1.0" xmlns="http://www.w3.org/2000/svg"
 width="270.000000pt" height="270.000000pt" viewBox="0 0 270.000000 270.000000"
 preserveAspectRatio="xMidYMid meet">
<metadata>
Created by potrace 1.14, written by Peter Selinger 2001-2017
</metadata>
<g transform="translate(0.000000,270.000000) scale(0.100000,-0.100000)"
fill="#000000" stroke="none">
<path d="M533 2527 c-40 -94 -115 -275 -168 -402 -53 -126 -100 -239 -105
-250 -6 -11 -66 -155 -135 -319 l-125 -299 2 -625 3 -625 34 84 c19 46 42 102
52 124 10 22 34 80 54 129 20 49 40 96 45 105 4 9 12 27 18 41 6 14 40 95 75
180 180 429 330 788 342 815 53 118 215 513 215 523 0 7 4 12 8 12 5 0 9 6 9
13 1 6 62 156 137 332 75 176 136 323 136 328 0 4 -118 7 -262 7 l-263 0 -72
-173z"/>
<path d="M1576 2663 c9 -21 18 -45 21 -53 3 -8 14 -33 23 -55 10 -22 34 -80
54 -130 21 -49 43 -103 51 -120 7 -16 54 -129 105 -250 51 -121 98 -233 105
-250 8 -16 73 -172 145 -345 161 -386 176 -421 206 -488 13 -29 24 -55 24 -57
0 -3 8 -24 19 -48 10 -23 40 -94 66 -157 59 -140 116 -277 148 -350 8 -19 46
-109 83 -200 l69 -165 3 626 2 627 -46 108 c-25 60 -51 123 -59 139 -7 17 -37
86 -65 155 -29 69 -58 139 -65 155 -8 17 -73 172 -145 345 -72 173 -137 329
-145 345 -7 17 -30 69 -50 118 l-37 87 -264 0 -264 0 16 -37z"/>
<path d="M1335 2300 c-4 -12 -16 -43 -28 -68 -11 -26 -22 -51 -23 -57 -3 -11
-288 -687 -304 -720 -5 -11 -32 -76 -60 -145 -28 -69 -57 -138 -65 -155 -13
-30 -146 -346 -245 -586 -28 -68 -58 -137 -65 -154 -8 -16 -12 -31 -10 -33 6
-6 1616 -5 1621 1 5 4 -119 311 -186 462 -10 22 -41 94 -68 160 -28 66 -134
320 -237 565 -102 245 -213 510 -247 590 -33 80 -64 149 -68 154 -5 4 -11 -2
-15 -14z"/>
</g>
</svg>
