<svg xmlns="http://www.w3.org/2000/svg" width="111" height="276" viewBox="0 0 111 276">
  <path fill="#009B68" d="M57 18v204c0 1.7-1.3 3-3 3s-3-1.3-3-3V18c0-1.7 1.3-3 3-3s3 1.3 3 3z"/>
  <path fill="#009B68" d="M56 15h50c2.8 0 5 1.3 5 3s-2.2 3-5 3H56c-2.8 0-5-1.3-5-3s2.2-3 5-3zM19 66h35c1.7 0 3 1.3 3 3s-1.3 3-3 3H19c-1.7 0-3-1.3-3-3s1.3-3 3-3zM56 66h50c2.8 0 5 1.3 5 3s-2.2 3-5 3H56c-2.8 0-5-1.3-5-3s2.2-3 5-3zM56 117h50c2.8 0 5 1.3 5 3s-2.2 3-5 3H56c-2.8 0-5-1.3-5-3s2.2-3 5-3zM56 168h50c2.8 0 5 1.3 5 3s-2.2 3-5 3H56c-2.8 0-5-1.3-5-3s2.2-3 5-3zM56 219h50c2.8 0 5 1.3 5 3s-2.2 3-5 3H56c-2.8 0-5-1.3-5-3s2.2-3 5-3z"/>
  <circle fill="#009B68" fill-opacity=".3" cx="18" cy="69" r="16"/>
  <circle fill="#009B68" cx="18" cy="69" r="6.4"/>
  <circle fill="none" stroke="#009B68" stroke-width="2" stroke-opacity=".5" cx="18" cy="69" r="17"/>
</svg>
